<svg id="Layer_1" data-name="Layer 1" xmlns="http://www.w3.org/2000/svg" xmlns:xlink="http://www.w3.org/1999/xlink" viewBox="0 0 2656.36 1138.08"><defs><style>.cls-1{fill:none;}.cls-2{clip-path:url(#clip-path);}.cls-3{opacity:0.2;}.cls-4{fill:#2b2b2b;}</style><clipPath id="clip-path" transform="translate(985.02 368.31)"><rect class="cls-1" x="-617.48" y="-368.31" width="1908" height="1138.07"/></clipPath></defs><g class="cls-2"><g class="cls-3"><path class="cls-4" d="M1086.48-100.57c-.67-1.26-1.33-2.53-2-3.83m0,0c-18.5-.17-38.12-.17-57.73-.68-4.41-.11-8.77-2-13.16-3.09l.39-2c5.92-.53,11.83-1.13,17.75-1.57,22-1.66,44-3.47,66.08.6,8.87,1.63,18.39,1.11,27.44.07,33-3.8,66.16-4.34,99.37-4.45a404.72,404.72,0,0,0,92.62-10.6c29-6.89,58.62-11.35,88-16.87,15.23-2.87,30.39-6.19,45.71-8.49,26.13-3.93,48.67-17.47,72.84-26.63,12.74-4.83,25.45-9.73,38.25-14.39,14.82-5.39,28.08-12.59,31.91-29.57s1.74-33.49-8.76-47.46a552.28,552.28,0,0,0-37.4-44.81c-16.6-17.82-36.76-30.42-60.55-36.8-10.2-2.74-20-7.44-30.31-9.18-20.26-3.41-40.75-5.19-61.37-2.59a385.15,385.15,0,0,1-75.83,2.42c-26.27-1.87-51.8,3.09-77.19,9.26-16.73,4.07-34,6.25-50.26,11.77-22.4,7.64-45.41,11.92-68.39,16.7-20.17,4.19-40.68,7.37-60.3,13.42-18,5.55-35.3,13.66-50.56,25.35a44.19,44.19,0,0,1-11.74,6.46c7.4-5.76,14.5-12,22.3-17.15a240.24,240.24,0,0,1,25.73-14.57c6.37-3.17,13.21-5.45,20-7.77,11.46-3.92,22.82-8.37,34.57-11.11,17.89-4.18,36.1-7,54.13-10.59,5.54-1.12,10.9-3.11,16.4-4.5,20-5.05,39.9-10.39,60-14.91,15.88-3.57,32-6.46,48-9,16.33-2.56,32.66-.66,49,1.21a241.4,241.4,0,0,0,57,.26c13.71-1.65,27.76-1.48,41.6-.79,12.25.61,24.77,1.74,36.51,5,16.51,4.6,33.18,9.89,48.4,17.63,21.94,11.14,39.92,27.78,54.58,47.86,5.51,7.55,11.59,14.7,17.62,21.85,8.41,10,12.5,21.69,14,34.36a129.39,129.39,0,0,1,.88,21.73c-.78,15.52-10.94,24.22-23.81,30.16-7.54,3.47-15.58,5.84-23.35,8.82-8.11,3.1-16.12,6.48-24.26,9.49-13.85,5.11-27.9,9.68-41.61,15.14-14.42,5.75-29.47,6.68-44.63,8.14-16,1.54-32,4.1-47.84,7-23.44,4.31-46.76,9.33-70.34,14.89,10,1.85,19.87,4,29.88,5.48,37.89,5.68,75.65,12.3,111.75,25.46,24.54,8.94,48.72,19.07,72.38,30.15a115.33,115.33,0,0,1,45.74,39c6.44,9.21,10.2,18.91,2.52,29.53-.67.92-.43,2.48-.7,3.72-1.5,6.82-2.47,13.81-4.67,20.39-3.13,9.31-10.58,13.64-20,12.86-20.25-1.68-40.46-3.83-60.64-6.19-15-1.75-30-4.13-45.59-6.32,1.64,4.64,3.12,8.83,4.59,13,4.06,11.69,3.22,14.68-6.2,22.09,5,12-2.72,23-21.94,19.16,1.43,2.61,2.72,4.6,3.65,6.74,1.43,3.29,3.21,6.59,3.79,10.07,1.29,7.75-4.85,12.21-12.13,9.46-9.18-3.46-18.41-6.83-27.78-9.72-1.7-.52-4.92.85-6.16,2.39-7.26,9-10.19,19.08-7.51,30.85,1.54,6.81,1.6,14,2.07,21a9.11,9.11,0,0,1-6,9.49c-7,2.86-14,6.2-21.3,7.64-4.47.88-9.57-1.41-14.56-2.31-3.26,1.86-7.17,5-11.62,6.46-11.12,3.73-18.43-1.68-20-13.34a32.3,32.3,0,0,0-4.46-12.54c-8.43-13.33-7.26-23.61,5.72-32.59,10.82-7.48,11.45-12.37,6.52-25.33-1.55-4.1-2.2-8,1-11.16,3.48-3.39,3.18-7,2.23-11.07-.39-1.66-.43-3.5-1.19-5-2-3.72-1-9.64-7.45-10.06-8.19-.53-13.26,2.18-16.55,8.54-3.14,6.07-6.27,12.18-9.87,18-4.27,6.87-2,13.78-.45,20.52,1.83,8.12,4.66,16,6.86,24,2.87,10.52-4.36,20.23-16,16.06-17.44-6.25-28.29,13.75-25.56,25.46.82,3.5,1.83,7.06,1.9,10.61.13,6.89-5.54,11.53-12.24,10-9.06-2.09-18.43-3.93-23.07-13.71a3.68,3.68,0,0,0-2.22-1.7c-6.83-1.58-8.67-5.73-7.18-12.38,1-4.28-.25-7.81-4.36-10.82-8.07-5.91-8.46-9-2.68-17a83.82,83.82,0,0,1,11.53-12.93c7.54-6.91,8.06-13.61,3.65-23-3.32-7-8.18-10.16-15.16-11.74-5.2-1.18-8.71.41-11.59,4.8a40.47,40.47,0,0,0-6,32.19c.17.74.49,1.46.6,2.2,1.86,12.91-4.56,19.17-17.51,17.07-1.5-.24-3-1-4.47-.81-14.47,1.85-20.26-7.7-24.85-18.87-.29-.7-.39-1.48-.71-2.17-2.22-4.72-3.35-12-7-13.56-6.44-2.82-14.35-2.46-21.67-2.89-3.75-.23-7.56,1.06-11.34,1-10.5,0-16.49-6.26-16.76-16.87-.08-3.32-.45-6.63-.69-10l-1.45,0c-3.11,4-5.93,8.19-9.39,11.82-9.76,10.23-18.91,9.35-26.72-2.3-1.8-2.69-3.49-5.44-5.75-6.95-3.41-1-6.8-2-10.23-2.84-1.35-.35-2.93-.86-4.13-.46-3.84,1.27-11.32,12.24-10.73,16.06.23,1.49,2,3,3.37,4,5.94,4.12,12.16,7.83,18,12.08s6.23,8.42,2,14.15c-7.18,9.61-16.14,16.1-28.64,16.39-1.06,0-2.11.5-4.61,1.12,2.85,2.32,4.56,4.37,6.75,5.37,7.46,3.38,10.41,8.89,9.44,17-.28,2.37.82,4.91,1.29,7.37,2.94-.87,6.72-.88,8.67-2.78,5.14-5,9.45-10.92,14.17-16.41,4.23-4.93,6.1-5.17,10.92-1.12q11.4,9.6,22.6,19.44c4.28,3.76,3.81,7-.76,10.92-3.37,2.92-6.31,6.33-9.43,9.52.29.66.58,1.32.86,2,5.08-.7,10.15-1.37,15.22-2.11.74-.1,1.42-.58,2.16-.73,8-1.69,8.89-1,8.63,7.21,0,1-.06,1.93,0,2.88.28,4.35-1.5,9.91,4.66,11.42,5.27,1.28,13.74-4.66,16-9,6.07-11.58,12.1-23.27,19.32-34.13,5.37-8.09,20.75-6.24,25.71,2.21,2.54,4.32,1.32,8.48-.78,12.48-1.11,2.13-2.61,4.06-4.58,7.06,4.16-.39,7.32-.5,10.42-1,7.18-1.18,13.17,1.25,15.58,6.56,2.68,5.89.79,11.54-5.77,16.21a67,67,0,0,1-8.92,5.08c-3,1.53-6.21,2.79-10.37,4.62,3,1.38,5.1,2.68,7.42,3.39,5.54,1.7,9,5.22,10.75,10.77.61,1.9,2.51,3.39,3.83,5.06,1.6-1.71,3.86-3.16,4.65-5.19,1.35-3.5,1.37-7.52,2.71-11,1.51-3.92,3-8.45,6-11.08,9.32-8.29,20.44-9.49,32-5.36,10.28,3.67,11.67,8.73,5.93,20.85h4.6c10.25.06,12.33,1.63,13.12,12,.38,5,2.47,6.17,6.54,4.76,5-1.71,10.06-3.35,14.55-6,6.54-3.82,8.23-8.35,6.1-15.53-1.5-5.05.06-8.36,3.84-11.46a93.83,93.83,0,0,0,10.05-9.37c4.48-5,9.71-5.73,15.45-3.29,4.82,2,9.39,4.64,14.5,7.21l.49-1c4.71-9.86,6.56-10.28,14-3.05,1.89,1.83,6,2.44,8.84,2,8.19-1.41,13.79-6.27,17.26-14.15,5.65-12.88,15.56-20,29.93-19.55,3.48.12,7,1.55,10.38,2.57,4.32,1.29,8.51,3.32,12.9,3.92,1.74.24,5-2.1,5.66-3.94,3.83-11.29,7.4-22.7,10.43-34.23,1.48-5.64-1.27-10.32-5.82-14-2.5-2-4.68-4.41-8-7.58,12.5-.35,22.06,12.43,19.53,23.45a9,9,0,0,1-.63,1.6c-3.31,7.48-5.1,14.52,4.76,18.7a4.59,4.59,0,0,1,2.25,3.15c1,7,6.36,9.21,11.8,11.65,8.18,3.67,14.85.14,14-8.84-.71-7.13-4.09-14-6.46-20.94-.58-1.71-1.85-3.18-3.08-5.23,2-1,3.47-1.86,5-2.51,7.79-3.32,15.52-6.76,23.41-9.81,4.5-1.73,9.18-3.55,13.9-4,8-.74,11.44-3.64,11.11-11.81a104.77,104.77,0,0,0-1.51-13.08c-.5-3,.69-5,3.37-4.52,6.76,1.31,11.6-2.69,16.92-5.37a73.77,73.77,0,0,0,7.24-4.55c10.33-6.82,10.35-18.94.09-26.23-1-.71-1.9-1.58-3.35-2.79,4.63-1.89,8.06-1,11,1.79,9.61,9.05,8.23,25.35-3,32-7.77,4.62-16,8.54-25,13.36a50,50,0,0,0,.71,6c2.61,12.42-5.65,22-18.45,21.36a14.32,14.32,0,0,0-6.61.87c-4.45,2.14-8.48,5.15-12.93,7.27s-9.13,3.52-13.2,5.06c2.09,7.75,4.53,15.3,6,23,1.17,6-.58,11.81-5.89,15.12-2.89,1.81-7.29,2.9-10.48,2.13-5.24-1.28-10.26-4-15-6.81a10.48,10.48,0,0,1-4.27-6.38c-.94-4.83-3.83-7.09-8.54-8.84-1.15,4.21-2.12,8.2-3.34,12.1-2.54,8.11-7.49,10.53-15.45,7.64-5.16-1.87-10.16-4.34-15.45-5.64-10.85-2.67-22,3.47-27.28,14.86-2.93,6.37-6.13,12.29-12.64,15.66-9,4.67-17.88,6.83-26.38-1.92-1.69,3.11-2.92,6.11-4.78,8.65-3.33,4.55-7.17,3.95-9.6-1.23-3.24-6.92-14.56-8.93-20-3.55a11.33,11.33,0,0,1-2,2c-7.43,4.31-9.46,10.4-8.4,19,.46,3.73-2.6,8.85-5.56,11.86-6.75,6.84-15.51,10.2-25.18,10.47-7.37.21-10.39-2.94-10.5-10.3s-.12-7.33-7.52-7.34a79.84,79.84,0,0,1-9.16-.19c-4.78-.54-6-3.55-3-7.28.82-1.05,1.64-2.12,2.55-3.09,5.43-5.8,4.12-10.17-3.67-12-9.27-2.19-17.51-.46-25.07,5.75-4.42,3.64-4.39,8.57-5.71,13.24-1,3.46-1.52,7.42-3.62,10.06-1.83,2.29-5.67,4.31-8.44,4.1-2.24-.18-5.38-3.55-6.07-6.06-1.69-6.16-4.84-10.15-11.08-11.57a3.49,3.49,0,0,1-1.55-.7c-2.73-2.48-5.42-5-8.12-7.52,2.72-2.08,5.25-4.5,8.2-6.16,4.61-2.61,9.52-4.65,14.26-7,3.34-1.68,5.3-5,3.5-8-1.32-2.21-5-3.85-7.8-4.14-4.48-.46-9.1.71-13.66.62-5.58-.11-7.57-4.35-4.56-9.12.61-1,1.57-1.73,2.1-2.73,1.76-3.32,5.66-6.63.85-10.38-5.55-4.32-9.59-4.32-13.2,1.13-6.5,9.83-13.24,19.71-18,30.42-3.55,8-16.42,14.33-25.34,12.4-4.4-.95-7.27-6.8-7.08-13.81.08-2.81.63-5.6,1-9-6,1.15-11.51,2.23-17,3.25-6.33,1.17-9.63-1.38-10.31-7.9l-.17.19c3.69-4.76,7.39-9.51,11.56-14.87l-23.74-21.63c-2.68,4.15-4.63,8.09-7.42,11.29-4.17,4.8-8.52,9.63-13.57,13.39-3.64,2.71-8.4,2.14-12.23-1s-4.57-7.36-3.7-12c1.61-8.47,1.33-8.93-6.21-12.94a18.71,18.71,0,0,1-6.22-4.76C998,139.47,1000,134,1008.4,133c10.1-1.24,18.69-4.52,24.9-13.09,2-2.73,2.36-4.66-.56-6.63-5.83-3.92-11.59-8-17.52-11.71-6.22-3.93-7.77-7.14-4.64-13.73a68.44,68.44,0,0,1,9.1-14.39c3.66-4.38,8.67-6.18,14.35-3.1.81.44,2,1.07,2.63.79,7.38-3,10.35,2.17,13.46,7.1,8.41,13.33,10.76,13.69,22.49,3.17,3.79-3.39,7.48-6.43,6.45-12.87-.47-2.92,2.11-7,4.38-9.55a108.11,108.11,0,0,1,13.44-12.39c5.49-4.38,6.35-6.68,2-12.33-4.7-6.17-6-12.47-3.36-19.81S1103,4.32,1110.63,6c7.94,1.79,15.79,4.2,23.82,5.25,15.25,2,28.75-1,37.06-15.88.22-.4.87-.58,1.77-1.14,1.19,7.15-2.13,12-6.78,16-12.65,11-27.37,10.94-42.55,7.4-4.21-1-8.21-2.95-12.45-3.82-2.91-.6-7.85-1.23-8.74.17-2.25,3.5-3.17,8.11-3.66,12.38-.21,1.83,1.82,4,3.1,5.89,5,7.29,4.38,11.66-2.7,17-2,1.49-4.5,2.49-6,4.34a81.25,81.25,0,0,0-7.72,11.55c-1.86,3.35-.9,5.86,2.88,7.81,1.73.89,2.41,3.91,3.47,6,.24.46,0,1.13,0,1.71.17,15.56,1.55,16.3,16.94,15,8.24-.71,16.71.16,25,1.16,6.15.74,9.85,5.31,11.91,11.06,2.18,6.06,4.37,12.12,6.42,18.23,1.83,5.44,5.22,8.64,11.17,8.83,3.61.11,7.23.77,10.83.66,7.6-.21,9.5-3,8.13-10.47-1-5.22-2.08-10.54-2-15.79.22-10.68,4.4-20,11.78-27.74,3.81-4,8.4-5.82,14-3.84,1.06.37,2.26.34,3.36.63,12.82,3.42,17.21,8.23,18.86,22,1.28,10.61-4.14,17.72-12.32,24-4.56,3.51-7.78,9.16-10.54,14.41-.81,1.54,1.35,6.09,3.35,7.42,6.29,4.16,9,9.42,8.22,16.9-.13,1.39,1.67,3.27,3,4.43,2.33,2,5.93,3.15,7.33,5.61,4.25,7.46,11.57,8.37,18.53,9.27,4.3.55,3.17-3.65,2.86-6.41-.68-6.15-2.82-12.56-1.78-18.4,2.77-15.51,16.3-29.8,36.92-24.59,4.85,1.23,6.62-.64,6.31-4.93-.72-9.89-1.59-19.77-2.76-29.62-.82-6.9-1.31-13.43,2.57-19.85,3-5,4.93-10.62,7.31-16,3.49-7.86,14.56-13.7,23-12.09a8.54,8.54,0,0,1,2.11.79c8.38,4.13,13.92,25.26,9,33.14-1.06,1.69-1.1,4.37-.83,6.49.48,3.73,1.77,7.34,2.35,11.06,1.29,8.17-1.32,14.64-8.68,18.9a43.36,43.36,0,0,0-4.11,3.1c-7.58,5.65-9.22,11.87-4.31,19.79,3.56,5.74,6.25,11.39,7.08,18.33,1,8.77,9.12,10.92,15.84,4.75a30.58,30.58,0,0,0,3.11-4c3.62-4.7,6.37-6.23,10-.44,2.37,3.74,6.14,3.93,9.65,2.89,6-1.76,12-3.66,17.47-6.55a11,11,0,0,0,5-7.79,56.5,56.5,0,0,0-1.63-17c-1.94-7.56-1.84-14.61,1.69-21.57,1.88-3.71,3.51-7.58,5.72-11.08,3.88-6.16,7.14-6.91,14-4.61,8.22,2.77,16.55,5.24,24.86,7.74,1,.31,2.18,0,4.7,0-1.31-4.19-2.3-7.69-3.49-11.12-1.79-5.15-3.87-10.21-5.47-15.42-.43-1.38.47-3.16.76-4.76,1.79.33,3.61.58,5.37,1,3.89,1,7.89,3.29,11.6,2.87,6.66-.74,8.12-4.7,5-10.67-.88-1.68-2.49-3-3.13-4.75-.5-1.34-.56-3.48.2-4.46.63-.81,2.76-.55,4.22-.6,1.82-.05,4.69.8,5.27,0,1.32-1.91,2.5-4.82,2-6.94-1.51-6.81-3.8-13.45-5.87-20.43-28-6.9-57.15-12.85-84.89-23.76a11.36,11.36,0,0,0-6-.61c-10.58,2-21,5.5-31.68,6.13a389.27,389.27,0,0,1-53.13,0c-17.73-1.38-35.31-4.93-52.87-8C1192.69-2.07,1165-11.37,1138-22.28c-19.94-8-38.81-18.33-51.66-36.39-8-11.17-11-23.82-4.94-37.28.39-.87.85-1.71,1.31-2.54.27-.5.61-1,.92-1.44l1.54.26c0,2.64.52,5.4-.09,7.89-4.25,17.45,3.08,30.49,15.63,41.36,20.91,18.11,46.25,27.52,72.16,35.09,22.65,6.62,45.55,13,68.76,16.89,26.61,4.52,53.63,7.41,80.8,4.16,10-1.2,20-2.16,30.14-4.42-1-.54-2-1.12-3.08-1.64-10.68-5.36-21.42-10.61-32-16.13-2.33-1.22-3.94-1.71-6.58-.4-9.13,4.52-19.13,3.58-28.66,2.55-22.46-2.43-45-5.05-67.18-9.06-36-6.51-69.88-19.39-99.47-41.42-12.14-9-21.29-21.21-29.08-35.77M1532,12.64c12.6-1.5,25.45-1.9,37.73-4.77,17.16-4,20.09-14.68,9.12-28.51l-.36-.45c-14.15-17.94-32.32-30.72-52.9-39.8-19.92-8.8-40.13-17.07-60.64-24.33-38-13.43-77.79-19.26-116.92-27.93-10.13-2.24-21.21-2.23-29.75-9.77-.61-.53-2.19-.17-3.25.06-9.23,2.07-18.41,4.49-27.71,6.19-4,.72-4.09,2.69-3.42,5.59,5.37,23.13,17.37,42,35.53,57.22,20,16.69,42.52,28.33,66.89,37.1C1433.45.17,1481.56,11.36,1532,12.64ZM1089.13-102a77.53,77.53,0,0,1,5.27,5.85c13,17.87,28.85,32,48.77,42.09a282,282,0,0,0,84.51,27.23c18.93,3,38,5,57.11,6.86,8.32.8,16.78.13,24.29.13-11.49-10.83-23.8-21-34.27-32.72s-14.49-25.79-7.6-41.34c3.07-6.93,5.9-14,8.93-21.18-2.26,0-4.33-.14-6.37,0-17.63,1.43-35.26,2.8-52.87,4.43-13,1.21-26,2.84-39.07,4.21-19.64,2.07-39.25,4.56-58.95,5.9C1109.33-99.88,1099.62-101.42,1089.13-102Zm225.72,64.31c17.16,7.28,32.6,18.83,51.77,21.21a5.78,5.78,0,0,0-2.22-1.7,187,187,0,0,1-48.35-30c-15.76-13.62-29.5-28.77-34.34-50-.47-2-1.3-4-2.24-6.82-2.11,4.88-3.71,8.94-5.58,12.86-6.26,13.07-2.64,25.11,5.71,35.13a159.53,159.53,0,0,0,49.3,39.42c26.82,14,55.24,23.77,84.51,31,15.21,3.73,30.61,6.79,46,9.56,14.17,2.54,28.53,4,42.73,6.44,20,3.45,40.07,6.7,60.52,6.22,5.47-.12,10.49-1.54,13-6.56,2.68-5.35,4.33-11.23,6.64-17.45-5.68,1.74-9.93,3.54-14.37,4.34-23.68,4.27-47.64,3.61-71.22.7s-46.86-8.73-70.26-13.34C1405.69-.86,1387-12,1365.38-14,1346.27-15.87,1330.58-27.27,1314.85-37.71Z" transform="translate(985.02 368.31)"/><path class="cls-4" d="M994.69,540.74c-3-2.85-5.94-1.25-8,.89-8.37,8.53-16.08,17.49-14.86,30.78.91,10-.23,18.87-7.56,27.05-6.45,7.19-5.43,13.85.48,21.79,4.33,5.81,8.85,11.47,13,16.78-18.18-4.59-27.28-28.33-15.49-43.43,4.56-5.83,6.11-11.72,5.17-18.54C965.31,561.28,972,550.19,982,540.5c1.9-1.85,4.71-2.74,5.93-3.41-6.66-16.52-15-33.12-19.82-50.69-3.06-11.21-.6-23.87-1.14-35.86-.45-10.24,1.72-18.92,9.52-26.36,12.56-12,23.8-25.4,36.91-36.68,7.58-6.51,17.73-10,26.71-14.89,2-1.08,4.48-1.83,5.83-3.49,7.5-9.26,17.53-15.27,27.46-21.14a92,92,0,0,1,22.81-9.45c8.89-2.41,16.65-5.81,23-12.73,7.15-7.8,14-16.24,25.77-17.7-.21-.72-.41-1.43-.61-2.15l-96.7,17.22-.54-1.62c2.09-1,4.09-2.32,6.28-2.82,15.47-3.55,31-6.75,46.48-10.38,26.55-6.25,53.38-7.4,80.54-6.06,49.89,2.46,93.87,20.47,132.69,51.11,14.47,11.43,27,25.38,40.12,38.5,20,20,39.4,40.69,59.7,60.41a103.84,103.84,0,0,0,40.85,24.29c3.57,1.16,5.35.76,7.43-2.43,19.51-29.8,45-54,72.25-76.35,18-14.71,39.21-23.76,60.23-33.06,16.78-7.43,32.78-15.95,45.81-29.43,2.45-2.52,8.18-4.75,10.79-3.57,4.66,2.12,5.35,7.69,4.13,13-3.38,14.63-11.13,25.81-24.91,32.37,8.17-12.39,21.92-22,19.65-40.87-2.44,1.18-4.39,1.56-5.51,2.74-17.58,18.54-40.61,27.94-63.32,37.64-25.1,10.72-46.53,26.53-66.26,45.1a456.46,456.46,0,0,0-50.13,55.86,9.6,9.6,0,0,1-6.94,3.2c-10.09-.38-19.24-4.06-27.71-9.44-21.51-13.66-38.69-32.24-56.31-50.3-18-18.49-35.12-38-54-55.55-29.87-27.78-65.62-44.83-105.32-53.74-20.26-4.54-40.72-5.05-61.58-4.34l.81,2.71c-9.79,1.31-18.26,5.31-24.25,13.34-9.13,12.23-21.33,18.26-36,22.09-15.47,4-29.92,11.13-41.74,23.05A93.48,93.48,0,0,1,1028,385.46c-10.46,5.46-18.69,13.12-26.47,21.53-8.05,8.7-15.84,17.64-23.53,26.66-1.76,2.08-3.71,4.92-3.72,7.42-.07,16-.9,32.17,1,48,2.16,17.75,8,34.78,18.49,49.73a7.9,7.9,0,0,1,.71,2.12Z" transform="translate(985.02 368.31)"/><path class="cls-4" d="M994.53,540.89c8.15,6.3,18,7.65,27.68,9.15,15,2.31,30.16,3.4,45.08,6,22.89,4.06,45.5,9.86,68.47,13.22,11.88,1.73,24.33.29,36.46-.61,10.85-.81,21.06,1.46,31.47,3.78,24.94,5.58,49.89,11.9,75.7,10.91,15.76-.61,31.45-2.69,47.18-4,6.46-.53,12.94-.95,19.42-1.07,15.76-.29,30.71-4.62,45.5-9.36,17.26-5.54,34.16-12.2,51.46-17.56,24.2-7.5,48.63-14.21,73-21.3,12.92-3.78,23.92-11.12,35-18.5,10.85-7.22,21.8-15.07,33.85-19.5,15.78-5.8,24.9-15.91,26.29-31.91,1-11.15,4-22.68-.6-33.88-.87-2.08-1.3-4.35-2.21-6.42-3.9-8.87-7.76-17.76-11.92-26.51-2.75-5.78-6-11.32-9.16-17.29,5.63-.86,9.24,2.4,11.48,7.28,3,6.54,5.51,13.31,8.73,21.22,6.07-4.86,11.92-8.94,17.07-13.78,14.59-13.72,29.21-27.51,36.78-46.81,1.18-3,2.5-6.05,2.89-9.19,1.51-12.1-1.46-16-13.76-18.26-53.06-9.77-99.79-32.95-141.61-66.82-10.63-8.62-21.88-16.52-33.22-24.19-15.44-10.43-33.2-14.51-51.27-17.3-8.26-1.27-16.56-2.76-24.88-3-8.53-.28-17.11.88-25.67,1.27a50,50,0,0,1-11.67-.71,70.34,70.34,0,0,1,30.85-6.86c37.69.53,73.06,8.6,103.7,32.12,14.82,11.37,29.14,23.52,44.63,33.89,25.13,16.83,51.65,31.09,81.59,37.78,11.06,2.47,21.88,6,33,8.31,14.47,3,17.49,12.87,14.54,26.07-3.88,17.4-14.24,31.52-26.68,43.92A221.82,221.82,0,0,1,1623,399.14c-4.08,3.16-9.18,5-14.56,7.84a57.34,57.34,0,0,1,2.68,6.12q3.72,11.29,7.11,22.7a11.19,11.19,0,0,1,.08,4.58c-1.55,10.88-1.66,22.29-5.23,32.47a30.53,30.53,0,0,1-22,19.25c-14,3.35-25.88,11.16-36.32,19.63-17.91,14.54-37.3,23.76-59.46,29.59-24.08,6.34-47.29,15.91-71.08,23.44-25,7.93-49.77,17.17-76.64,17.75-25.14.54-50.28,3.4-75.38,2.9-17.84-.36-35.57-4.88-53.41-7.07-18.56-2.27-36.8-6.6-56-3.75-11.24,1.67-23.21-.05-34.65-1.64-17.07-2.35-34.29-4.73-50.83-9.33-16.3-4.54-32.82-5.69-49.34-7.88-10-1.33-20.59-1.9-29-8.72-1.89-1.53-2.91-4.16-4.34-6.28Z" transform="translate(985.02 368.31)"/><path class="cls-4" d="M954.57,673.15c22.93,31.39,55.63,45.46,90.67,57,34.08,11.25,69.43,16.55,104,25.44,10.94,2.81,22.58,3.3,33.94,3.9,22.29,1.17,44.62,1.83,66.94,2.41,22.48.59,45,1.59,67.46,1,26.67-.7,53.41-1.84,79.9-4.81,20.4-2.29,40.35-8.45,60.71-11.54,22.82-3.47,44.49-10.88,66.11-18.19,20.37-6.88,40.86-14.27,58.88-26.45,15.74-10.63,24.77-26.27,30.78-44.25,5.44-16.28,4.44-32.14.47-48.29-1.27-5.13-1.22-10.1,2.44-14.46.54.32,1.09.48,1.11.69,1.31,14,4.57,28.17,3.44,42-2.56,31.13-15,57.3-44.09,72.8-38.08,20.32-78.48,33.67-120.87,41.31-17.68,3.18-35.14,7.64-52.87,10.49-12.36,2-25,2.45-37.52,3.16-21.32,1.22-42.64,2.59-64,3-15.81.28-31.64-.85-47.45-1.4-13.73-.48-27.46-.93-41.18-1.54-24.52-1.08-49.16-1.14-73.21-6.92-37.3-9-75.18-15.72-111.45-28.74-22.18-8-42.76-19-60.57-34.52C961.74,689.57,956,682.77,954.57,673.15Z" transform="translate(985.02 368.31)"/><path class="cls-4" d="M1019.57,653.19c3.22,1.42,6.4,2.93,9.67,4.23q10.52,4.19,21.11,8.16c2.82,1,6.12,1.23,8.57,2.81,13.48,8.64,29.28,9.71,44.09,13.92,5.78,1.64,12,1.62,18,2.56,3.91.62,8.26.71,11.57,2.56,13.05,7.27,27.43,8.2,41.7,10.2,5.9.82,11.5,3.71,17.38,4.91a186.91,186.91,0,0,0,22.32,3.23c10.6.85,21.25,1.55,31.87,1.4,6.71-.1,13.4-1.89,20.11-2.87q4.2-.62,8.42-1c15.29-1.48,30.58-3,45.88-4.38,13.43-1.22,26.62-2.22,40.2,1.23,7.38,1.87,16.18-.11,24-2,10.2-2.46,19.86-4,30.63-2.32,8,1.26,16.79-1.48,25.07-3.2,14.59-3,29.06-6.68,43.58-10.05,3.67-.86,7.68-1,11-2.64,14.39-7.06,30-10.11,45.07-14.94,8.7-2.8,16.92-8.55,24-14.61,4-3.45,5.93-10,7.42-15.53a48.4,48.4,0,0,1,15.67-25.21c3.17-2.7,5.81-6,9.21-9.59-9.37-9.43-11.27-21.91-15.2-33.51-3.59-10.64-8.43-20.19-18-27-4.66-3.33-8.17-8.28-12.21-12.5l1.05-1.54c2.14.9,4.5,1.47,6.38,2.75,17.18,11.79,28.43,27.54,33.16,48.2,1.39,6.08,5.2,11.8,8.77,17.1,3.31,4.92,3.49,9.16-.14,13.52a71.3,71.3,0,0,1-8.29,8.64c-6.44,5.51-11.17,12.4-13,20.42-2.39,10.43-9.12,16.07-17.64,21.13-12.24,7.26-25.35,11.47-39.18,14.39-7.31,1.54-14.35,4.8-21.22,7.93a119.58,119.58,0,0,1-29.13,9c-11.86,2.08-23.28,6.65-35.11,9.12-7.67,1.6-15.86,2.54-23.58,1.66a57.83,57.83,0,0,0-22.44,1.38c-12.4,3.37-24.41,5.1-37.85,2-11.78-2.72-24.88,0-37.36.73-12.31.76-24.58,2-36.86,3.23-5.44.53-11,.9-16.24,2.26-9.76,2.52-19.39,2.52-29.37,1.58-8.28-.78-16.76,1-25.11.56-6.92-.33-13.78-2.08-20.65-3.32-10.22-1.85-20.43-3.68-30.6-5.75-5.17-1.05-10.71-1.69-15.26-4.1-9.38-5-19.51-5.58-29.54-7.55-16.27-3.19-32.75-6-47.78-13.81-4.36-2.26-9.11-3.75-13.57-5.83-10.55-4.92-21-10-31.56-15C1018.83,654.92,1019.2,654.05,1019.57,653.19Z" transform="translate(985.02 368.31)"/><path class="cls-4" d="M997.23,430.37c-.31,6.67,3.18,7.61,8.66,8.57,9.79,1.72,19.66,4.15,27.26,11.78,2.31,2.31,5.78,3.61,8.92,4.86,7,2.81,14,5.9,21.25,7.69a36.66,36.66,0,0,0,15.5.33c12.37-2.46,24.53-6,36.84-8.76,2.51-.57,5.31-.12,7.95.15,9.79,1,19.57,2,29.34,3.2,9.38,1.14,18.74,2.55,28.12,3.75,8.43,1.08,16.91,1.82,25.31,3.13a34.41,34.41,0,0,1,10,3.46c5.48,2.79,9.74,2.83,13.17-1.92,3.63-5,8.55-7.1,14-9.08,9.2-3.37,18-7.35,28.39-4.39,4.2,1.19,9.27-.94,14-1.2,2.27-.12,5.08-.14,6.78,1,6.38,4.39,12.37,9.34,18.57,14a12.25,12.25,0,0,0,4,2c20.87,5.66,41.36,6.42,61.3-4,10.2-5.31,19.47.22,28.69,3.9,2.56,1,4.74,3,6.86,5.82a42.89,42.89,0,0,1-6-1c-4.7-1.43-9.25-3.89-14-4.43-5-.57-10.67-.5-15.31,1.25-12.92,4.88-26,9.07-39.82,7.78-8-.74-15.9-3.15-23.76-5.14a16,16,0,0,1-5.77-3.48c-5.35-4.45-10.5-9.16-15.9-13.54a7.6,7.6,0,0,0-4.56-1.17c-7.09.09-14.19.42-21.29.56-1.1,0-2.48-1.06-3.28-.68-9.15,4.37-19.24,7.62-27,13.78-8.94,7.05-12.83,8.93-22.76,3.35a14.89,14.89,0,0,0-4.77-1.42c-12.66-2.18-25.27-4.69-38-6.29-9.43-1.19-19-1.07-28.54-1.74-3-.2-6.25-.43-8.87-1.71-10.38-5.07-20.91-3-31.25-.77-7.16,1.53-14.12,4.23-21,7s-13.44,2.88-20.32-.2c-5.84-2.62-12.06-4.4-18-6.73-3-1.17-6.36-2.15-8.64-4.23-9.61-8.76-21.32-11.85-33.61-13.93-2.07-.34-5-2.14-5.45-3.85-.61-2.19.83-5,1.39-7.49Z" transform="translate(985.02 368.31)"/><path class="cls-4" d="M1286,362.05c-2.37,2.81-4.55,5.81-7.14,8.4-6.59,6.61-14.1,12.45-19.89,19.69-9.18,11.49-21.32,18.86-33.33,26.43-7.68,4.85-14.51,10.3-19.29,18.58a71.5,71.5,0,0,0,7.08-3.93c13.2-9.34,26.32-18.8,39.48-28.2,8-5.74,15.94-11.72,24.27-17,4-2.55,8.88-3.78,13.36-5.6l1,1.53c-3.91,3.48-7.51,7.42-11.8,10.34-20.13,13.71-40.44,27.16-60.75,40.61a49.75,49.75,0,0,1-10.45,5.72c-2.32.83-5.21,0-7.84-.07.44-2.81-.11-6.56,1.5-8.26a156,156,0,0,1,18.48-16.85c8.16-6.21,17.44-11,25.34-17.48,6.26-5.16,10.81-12.35,16.76-18,6.21-5.86,13.15-11,19.84-16.29.63-.5,1.72-.42,2.59-.61Z" transform="translate(985.02 368.31)"/><path class="cls-4" d="M1403.52,23.88c7.22,5.35,9.82,11,8.38,18-1.13,5.47-4.7,8.87-10.38,10.11-9.93,2.16-13.38-6-18.47-11.48-10.09,7.82-11.29,13.28-5.37,24.43.18.34.38.66.57,1,8.94,15,2.76,18.15-9.13,23.41-4.27,1.89-8.21,1.2-11.48-2.18-4.17-4.31-10-8-8.27-15.25,1.18-4.87,2.1-9.25-.19-14.21-1-2.1.29-5.53,1.18-8.13,1.1-3.22,3.07-6.14,4.3-9.33,2.21-5.73,1.18-7-5.4-7.71,2.25-1,5.36-3.44,6.56-2.71,2.15,1.31,4.51,4.64,4.31,6.92-.36,4.37-2.18,8.7-3.91,12.84-1.41,3.38-2.53,6.11-.86,10.09,1.25,3,.41,7.11-.17,10.62-.83,5,2.56,13,8.1,13.77,3.67.51,8-2.8,11.77-4.86.69-.38.69-3.16.16-4.48-1.29-3.15-3.15-6-4.66-9.12-5.24-10.62-4.29-17.25,3.67-26.06.9-1,1.83-2,2.77-2.91,4.53-4.57,7.66-4.35,11.73.82,1.54,2,2.73,4.51,4.73,5.65,2.35,1.35,6.41,2.88,7.9,1.79,2.26-1.64,3.81-5.4,4.07-8.39C1405.74,32.84,1404.4,29.06,1403.52,23.88Z" transform="translate(985.02 368.31)"/><path class="cls-4" d="M1116.42,431c4.86-2.63,10-4.9,14.53-8,14.19-9.51,28.87-17.87,45.27-22.8l1,1.61c-8.32,5.49-16.52,11.18-25,16.41-7.09,4.38-14.66,7.95-21.71,12.37-7.23,4.54-14.54,3.58-22.68,2.3,10.65-13.86,23.85-23.36,37.33-32.35,13.91-9.27,28.53-17.47,42.33-26.88,5.36-3.65,9.33-9.35,13.94-14.1,1.46-1.51,2.71-3.47,4.48-4.39,7.73-4,15.51-8,23.53-11.39,2.47-1,5.74-.16,8.43.95-8.46,4-17,7.91-25.36,12.13-2.63,1.33-5.42,3.11-7.09,5.43-7.79,10.79-18.27,18.32-29.28,25.22-13.68,8.57-27.61,16.73-41.17,25.48-7.06,4.56-13.55,10-20.3,15.06C1115.23,429,1115.82,430,1116.42,431Z" transform="translate(985.02 368.31)"/><path class="cls-4" d="M1417.69,348.94c-5,2.59-10.1,4.87-14.8,7.86a81.78,81.78,0,0,0-12.89,10c-1.57,1.51-2.86,5.38-2,6.85,1.13,1.95,4.59,3.82,6.85,3.6,8.63-.81,17.18-2.43,25.76-3.82,2.8-.45,5.56-1.24,8.37-1.63,7.21-1,13.15.34,17.92,6.93,5.36,7.42,14,6.14,21.65,5.28,10.14-1.14,17.27-5.79,19.82-17.09,2.45-10.81,9.38-18.61,20.19-23.09s20.79-10.09,31.12-15.26c1.83-.92,3.52-2.12,5.79-3.5-8.83-6-18.28-6.38-27.74-7.5,8.08,0,16.17-.19,24.23.12a13.6,13.6,0,0,1,6.76,2.57c4.1,2.86,3.43,7.68-1.29,9.91-12.39,5.81-24.62,12-37.32,17.07-9.77,3.88-15.29,10.81-18.64,20.18-4.92,13.78-12,18.87-26.62,19.25-9,.22-17.26-.62-23.9-8.08-4.65-5.22-10.92-1.49-16.29-.76-8,1.09-15.94,3.27-23.89,5-.38.08-.75.17-1.13.22-6,.82-14.12-2.12-15.68-6.12-2.39-6.13,1-10.56,4.84-14.83,7.55-8.33,18.44-10,27.62-15Z" transform="translate(985.02 368.31)"/><path class="cls-4" d="M995.43-264.44c-1.38,1.89-2.43,4.22-4.21,5.6-13.18,10.26-24.81,22-34.07,36a44.2,44.2,0,0,0-7.32,21.81c-.76,10.36-2.69,20.66-4.67,30.88-2.54,13.15,2.14,23.94,9.85,34,1.74,2.26,3.92,4.23,5.4,6.64,5.41,8.8,14.1,12.39,23.27,15.35,5.69,1.83,11.35,3.74,18.14,6-10.3,3-18.8,1.44-27.3-1.77-9.85-3.73-17-9.75-19.82-20.36a21.63,21.63,0,0,0-3.55-7.12c-9.18-12.36-11.47-26.24-7.55-40.69a97.64,97.64,0,0,0,3-28.29c-.19-8.15,2.55-15.05,7.14-21.82,7-10.36,14.73-20,24.56-27.7,4.86-3.81,10.22-7,15.36-10.41C994.24-265.75,994.83-265.09,995.43-264.44Z" transform="translate(985.02 368.31)"/><path class="cls-4" d="M1064.85,188.54c-13.48,13.2-22.75,29.13-30.72,46.12-12,25.64-24.11,51.21-29.65,79.24-2.13,10.8-3.54,21.74-5.44,33.65,14.29-9.13,25.63-22.49,44.14-20.94-3.7,1.78-7.62,3.22-11.07,5.39-9.6,6.05-19,12.49-28.54,18.56-1.88,1.19-4.63,2.32-6.47,1.76-1.23-.37-2.49-3.95-2.13-5.78,3.53-18.47,6-37.28,11.54-55.17,5.54-18.08,13.72-35.4,21.48-52.72,6.84-15.28,13.64-30.73,25.43-43.11a106.27,106.27,0,0,1,8.92-8c.26-.21,1.53.8,2.33,1.23Z" transform="translate(985.02 368.31)"/><path class="cls-4" d="M1340.29,353.67c-9.15-6.3-18.41-12.43-27.43-18.91-29.6-21.28-61.23-38.5-97.36-45.05-16-2.9-32.52-3.08-48.83-3.46-22.27-.52-44.45,1-66.06,7.12a26.06,26.06,0,0,1-4.51.63c-.33,0-.69-.24-1-.38,15.5-11.9,99.12-13.91,130.59-5.42,43.93,11.84,80.45,36.3,115.67,63.54C1341,352.38,1340.63,353,1340.29,353.67Z" transform="translate(985.02 368.31)"/><path class="cls-4" d="M1155.3-147.38c19-7.33,41.51-1,59.41-14.39a62.34,62.34,0,0,0-35.57-10.31c-27.41.15-54.82-.58-82.23-1-.49,0-1-.24-1.51-1.43,7.64-.59,15.28-1.61,22.93-1.66,10.09-.07,20.2.93,30.3.9,11.61,0,23.21-.82,34.83-1,11.92-.22,22.61,4.5,33.07,9.41,5.79,2.71,5.53,6.67,0,10.17a60.12,60.12,0,0,1-27.27,8.88c-11.17,1-22.4,1.35-33.6,2Z" transform="translate(985.02 368.31)"/><path class="cls-4" d="M1506.58,702.19c-16.6,9.78-33.82,13.8-51.26,17.19-18,3.5-35.88,7.44-53.91,10.71-25.86,4.69-51.68,10.06-77.76,13-20,2.25-40.29,1.82-60.43,1.31-8.84-.23-17.6-3.62-26.18-6.81,5.26.85,10.57,1.48,15.77,2.6,15.29,3.27,30.68,1.9,46.09,1.62,25.8-.48,50.8-6.08,76-10.75,33.48-6.21,67-12,100.41-18.76C1485.54,710.24,1495.36,705.89,1506.58,702.19Z" transform="translate(985.02 368.31)"/><path class="cls-4" d="M1169.22,52.66c5.35-2,10.17-4.26,15.24-5.44,2.26-.53,5.07,1,7.56,1.83,5.53,1.87,10.94,2.81,16.53,0,1-.51,4,.36,4.07.9,1.1,7.16,6.38,6.44,11.31,6.32,9-.23,11.76-4,9.41-12.92-.43-1.61-.77-3.25-1.19-5.07,5.21,2.07,9.37,9.33,8.55,14.48-.9,5.71-4.49,9.22-11.13,9.35-7.57.14-15.79,1.83-21.43-5.94-.71-1-3.09-.68-4.67-1-4.74-1.07-9.71-1.57-14.14-3.4-7.61-3.15-11.2-2.91-16.36,3.77-3.23,4.19-5.1,3.62-7.24-.67a80,80,0,0,0-4.86-8.42c-4.7-7.14-4.66-13,1.11-19.22,6.57-7.07,14-13.06,24.11-14.06,2.92-.28,6,.69,8.93,1.09l-.09,1.69c-1,.36-2,1.06-3,1-9.81-.1-17.42,4.78-24.46,10.85-5.76,5-6.46,10.07-2.71,16.66C1166.51,47.53,1168.15,50.7,1169.22,52.66Z" transform="translate(985.02 368.31)"/><path class="cls-4" d="M1376.18-154.28c-7.17,1.42-14.28,3.31-21.52,4.17-10.54,1.24-21.23,2.85-31.76,2.32-16.26-.81-32.42-3.47-48.66-5-3.6-.33-7.4.73-11,1.51-2.67.58-5.23,1.73-8.11,1.94,4.39-5.72,10.4-8.79,17.26-8.44,14.79.77,29.6,1.86,44.28,3.71,13,1.64,25.74,1,38.6-.9,6.82-1,13.78-1.09,20.67-1.59Z" transform="translate(985.02 368.31)"/><path class="cls-4" d="M943.48,665.48c-2.23-3.83-5.36-7.4-6.5-11.53-3.32-12.06-6.25-24.27-8.55-36.57-1.68-9,2-17.3,6.11-25.09a34.68,34.68,0,0,0,4.23-18,32.81,32.81,0,0,1,3-14.18c7-15.25,19.48-25,34.23-32.1a7.39,7.39,0,0,1,5.09-.28c-5,3.26-10.12,6.34-15,9.82-9.7,7-18,15.41-22.33,26.79-1.38,3.64-.41,8.12-1.07,12.12a100.51,100.51,0,0,1-3.46,15.2c-1.75,5.39-5.82,10.44-6.08,15.78-.42,8.52.82,17.29,2.57,25.7,2.23,10.66,5.67,21.07,8.59,31.59Z" transform="translate(985.02 368.31)"/><path class="cls-4" d="M1142.1,724.12c-17.34,4.39-34.45,2.26-50.59-3.19-16.72-5.64-32.78-13.48-48.65-21.33-13.23-6.54-25.76-14.49-38.13-23,2.41.93,4.92,1.66,7.21,2.82,12.16,6.2,24.17,12.7,36.41,18.74,21.57,10.65,43.07,21.57,67.66,23.55C1124.72,722.44,1133.41,723.32,1142.1,724.12Z" transform="translate(985.02 368.31)"/><path class="cls-4" d="M1487.74-182.6C1515-196,1542.31-209,1565-229.78l1.27,1c-2.62,4-4.78,8.39-8,11.85-8,8.64-17.92,14.54-28.47,19.53-6.32,3-12.56,6.21-18.63,9.68A38.82,38.82,0,0,1,1487.74-182.6Z" transform="translate(985.02 368.31)"/><path class="cls-4" d="M967.31-84.2c7.33-2.61,13.47,0,17.88,7.75,4.55,8,3.52,15.74-2.81,21.24a16.25,16.25,0,0,1-21,.3c-5.67-4.57-7.82-13.39-4.44-19.76,1.94-3.65,4.53-6.93,8.51-5.78-1.8,4.42-4.43,8.39-4.83,12.57-.44,4.6,2.44,8.88,7.59,9,3.37.11,7.59-.88,10-3,3.55-3.1,2.82-8,.07-11.5C975.18-77.3,971.12-80.5,967.31-84.2Z" transform="translate(985.02 368.31)"/><path class="cls-4" d="M1148.34,344.15c-24.65,14.16-45,33.57-64.68,54.11l15.13-6.87.69,1.21c-4.79,3.16-9.35,6.8-14.47,9.26-2.18,1.05-5.53-.36-8.35-.65,1-2.22,1.5-5,3.1-6.6,17.75-18.11,35.89-35.8,58.08-48.55,3-1.7,6.39-2.59,9.6-3.86Z" transform="translate(985.02 368.31)"/><path class="cls-4" d="M1044.7,300.27c-5.67,3.76-11.12,8-17.13,11.08-2.61,1.35-7.32,1.72-9.35.21s-3.14-6.29-2.42-9c7.09-27.07,17.26-52.78,34.78-75a35.43,35.43,0,0,0,2.79-5l2.18,1.91c-3.16,5.23-6,10.66-9.55,15.65-12.55,17.85-18.87,38.42-25.61,58.78-.94,2.84,0,6.29,0,9.46,3-.68,6.12-1,8.9-2.11,5-2.09,9.84-4.69,14.74-7.07Z" transform="translate(985.02 368.31)"/><path class="cls-4" d="M1499.58,719.28c4.52-1.9,9-4,13.56-5.67,27.57-10.15,51.9-25.42,72-46.93,5.44-5.82,9.14-13.27,13.63-20-.52,2-.58,4.79-1.87,6.75-5.21,7.86-9.76,16.58-16.46,22.95-17.06,16.21-36.56,29.17-58.67,37.61-7,2.67-14.41,4.31-21.63,6.42C1500,720.05,1499.77,719.67,1499.58,719.28Z" transform="translate(985.02 368.31)"/><path class="cls-4" d="M995.09,473.31c-.55,2.7-1.11,4.14-1.07,5.56.15,4.46,0,8.75,5,11.61,3,1.71,4.79,5.49,7.11,8.36.1.12,0,.38.09.56,6.69,19.7,9.07,17.89,26.6,19.64,2.18.22,4.37.29,6.56.43l.54,1.71c-1.28.82-2.59,2.38-3.84,2.34-6.45-.24-13.07-.09-19.27-1.59-8.6-2.08-11.49-10-14-17.42-1.65-4.82-3.45-8.67-8.51-11.23C988.22,490.21,988.33,478.89,995.09,473.31Z" transform="translate(985.02 368.31)"/><path class="cls-4" d="M1323.17,388.43c-5.26,13-19.8,16-24,29.13l9.49-.72.74,1.61c-4.83,2.73-9.51,5.78-14.55,8.07-3,1.34-5.41-1.64-4.63-4.77,3.83-15.3,14.81-24.3,27.6-31.7C1319.05,389.36,1320.54,389.2,1323.17,388.43Z" transform="translate(985.02 368.31)"/><path class="cls-4" d="M1010.57-49.25c6.12,2.23,9.1,8.82,7.79,14.88a13.77,13.77,0,0,1-14.53,11,12.31,12.31,0,0,1-11.46-12c-.31-7.81,4.55-14.06,12-15.36-2.17,3.19-4.43,6.21-6.36,9.44-2.07,3.47-1.19,7.08,1.82,9.13,1.77,1.2,5.76,1.54,7.13.37a16.28,16.28,0,0,0,4.59-8.35C1012.18-42.69,1011.05-45.63,1010.57-49.25Z" transform="translate(985.02 368.31)"/><path class="cls-4" d="M1453.4,442.52l51.07-58.74,1.72,1.45c-6.76,8.93-13.36,18-20.31,26.76s-13.91,17.21-21.21,25.5c-2.55,2.9-6.11,4.89-9.21,7.3C1454.77,444,1454.09,443.27,1453.4,442.52Z" transform="translate(985.02 368.31)"/><path class="cls-4" d="M989.3-200.44c5.79.2,8.35,3.5,8.1,8.46-.33,6.48-8.58,15.83-15,16.41a6.84,6.84,0,0,1-4.92-2.2c-.77-.85-.68-3.17-.11-4.45a136.65,136.65,0,0,1,7.44-14.69C986-198.76,988.43-199.79,989.3-200.44Z" transform="translate(985.02 368.31)"/><path class="cls-4" d="M1010.52-88c.61-.41,1.28-1.24,1.84-1.17,5.68.71,11.12,9.38,9.77,15.4-1.32,5.85-9,10-14.84,8.17-6.68-2.14-11-10.32-9-17,1.5-5,5.11-6.57,12.42-5.4-9.43,3.09-11.42,7-6.69,13.41,2.14,2.89,4.84,4,8.38,2.21s3.73-4.65,2.47-7.7A81.16,81.16,0,0,0,1010.52-88Z" transform="translate(985.02 368.31)"/><path class="cls-4" d="M1246.76,551.06c3.93-1,7.84-2.65,11.81-2.83,2.18-.1,4.93,1.76,6.63,3.52,5.64,5.82,13.21,6.83,20.28,7.19,4.29.21,8.76-3.53,13.18-5.41,1.19-.51,2.62-1.26,3.73-1q10.41,2.47,20.71,5.7c-6.64-1.7-13.43,3.17-20.39-1.43-1.85-1.22-6.64,2.25-10.15,3.31s-7.32,3.15-10.44,2.4c-7.1-1.71-15.19-2.1-19.61-9.86-.71-1.23-3.85-1.56-5.82-1.46a83.94,83.94,0,0,0-9.76,1.56C1246.87,552.19,1246.82,551.62,1246.76,551.06Z" transform="translate(985.02 368.31)"/><path class="cls-4" d="M1506.75,580.61c2,2.09,5.45,4,5.71,6.33.23,2.12-2.45,5.35-4.67,6.81A30.08,30.08,0,0,1,1486,598.2c-3.13-.53-7.12-3.36-8.33-6.17-1.78-4.1,1.5-7.84,5.28-9.58,3.47-1.59,7.47-2,11.24-3,.15.55.3,1.1.46,1.65-2.7.78-5.77,1-8,2.49-2.36,1.6-3.91,4.42-5.81,6.7,2.37,1.19,4.82,3.53,7.08,3.35a67.71,67.71,0,0,0,15.89-3.32c4.41-1.47,6.63-4.44.86-8.53Z" transform="translate(985.02 368.31)"/><path class="cls-4" d="M1579.61,536.87c14.61,5.36,21.92,16,22.92,29.86a38.17,38.17,0,0,0,5,15.44c3.6,6.4,4.91,12.61,2.71,19.6-2.09,6.65-4.08,13.32-6.11,20l-1.47-.07c0-2.21-.43-4.53.08-6.61a132.29,132.29,0,0,1,4.2-13.58c2.33-6.33,2.36-12.47-1.87-17.87-5.25-6.67-4.79-14.65-5.82-22.3-.92-6.85-3.92-12.07-9.87-15.85C1586.13,543.38,1583.46,540.3,1579.61,536.87Z" transform="translate(985.02 368.31)"/><path class="cls-4" d="M1579.18,427.48c1.16,7-4.21,13.81-12.26,16.15-6.86,2-13.91,3.38-20.88,5-4.75,1.11-9.49,2.31-14.29,3.16-2.24.4-4.61.07-6.92.07-.11-.62-.21-1.24-.31-1.86,8.07-1.82,16.09-4,24.23-5.37C1560.73,442.62,1571.23,438.25,1579.18,427.48Z" transform="translate(985.02 368.31)"/><path class="cls-4" d="M1129.79-41.65a403.85,403.85,0,0,0,85.94,28C1184.69-15.79,1156.64-26.92,1129.79-41.65Z" transform="translate(985.02 368.31)"/><path class="cls-4" d="M1107.38-143.22c-14.8,5.55-29.18-1.74-44.18,3.45C1069.16-148.66,1094.68-150,1107.38-143.22Z" transform="translate(985.02 368.31)"/><path class="cls-4" d="M1249.61,63.3c2.08-13.93,10.72-24.67,17.42-36.37C1269.43,42.94,1257.77,52.29,1249.61,63.3Z" transform="translate(985.02 368.31)"/><path class="cls-4" d="M1355.4,496.34c-1.82,1.25-3.48,3.06-5.49,3.61-4.18,1.14-9,3.13-12.75,2.05-11.33-3.21-22.3-7.72-33.4-11.76a31.61,31.61,0,0,1-3.34-1.68c.12-.58.25-1.15.38-1.73,6.62,1.33,13.34,2.28,19.83,4.11a60.76,60.76,0,0,1,12.92,5.73c5.5,3.1,10.62,3.3,16-.09,1.53-1,3.55-1.12,5.35-1.65Z" transform="translate(985.02 368.31)"/><path class="cls-4" d="M1552.33,460.81c-1.28,2-3.07,3.74-3.51,5.77s-.38,5.07.8,6.67c7.35,10,7.2,13.83-2.68,21.13-3.43,2.54-7.82,3.78-11.76,5.61l-1-1.81c3.85-3,7.68-6,11.56-8.95,6.34-4.83,6.5-6.53,1.12-12.77C1541.31,470,1543.74,462.83,1552.33,460.81Z" transform="translate(985.02 368.31)"/><path class="cls-4" d="M1458.29,599.4,1445,608.28l1,1.86,14-5.37,1.27.78c-1.09,1.83-1.84,4-3.33,5.41-4.27,4-9.69,4.59-15,3.27-1.53-.39-3.65-3.84-3.32-5.42C1441,602.6,1453.33,597.25,1458.29,599.4Z" transform="translate(985.02 368.31)"/><path class="cls-4" d="M1540.86-269.68c-3.7-1.74-6.81-2.53-8.92-4.44-1.33-1.2-1.75-4.17-1.44-6.18.22-1.46,1.72-4.33,4.38-1.59,0,.05.95-1,1.51-1.1,2.51-.29,5.8-1.43,7.38-.28,1.82,1.32,3.3,5,2.78,7.15C1546-273.74,1543-271.94,1540.86-269.68Z" transform="translate(985.02 368.31)"/><path class="cls-4" d="M1202.62-260.26c7.14.43,13.63,1.06,17.92,7.18.76,1.08,1.31,3.12.79,4.07s-2.51,1.48-3.86,1.5C1208.89-247.38,1202.75-252.38,1202.62-260.26Z" transform="translate(985.02 368.31)"/><path class="cls-4" d="M1378-213.88c-8.07,6.69-18.24,7.21-22.89,1.18C1361.05-218.85,1370.3-219.32,1378-213.88Z" transform="translate(985.02 368.31)"/><path class="cls-4" d="M1433.75-263.6c-5.54,9.28-17.64,12-24.44,5.34C1416.86-262.76,1424.66-264.28,1433.75-263.6Z" transform="translate(985.02 368.31)"/><path class="cls-4" d="M1009.71-165.88c-.58,5.8-2.37,10.89-7.11,14.72-2.55,2.06-5.12,1-5.17-1.37a24.38,24.38,0,0,1,2.43-11.13C1001.68-167.22,1005.46-167.79,1009.71-165.88Z" transform="translate(985.02 368.31)"/><path class="cls-4" d="M1135.36-242c-5.82-5.94-4.08-17.51,2.83-20.39C1143.69-255.16,1142.83-248.19,1135.36-242Z" transform="translate(985.02 368.31)"/><path class="cls-4" d="M1487.12,614l-9.16,6.49h13.78c-3.44,5.37-10.41,8.09-15.2,6.28-4.49-1.7-5.69-5.89-1.89-8.7,3.44-2.54,7.8-3.82,11.75-5.65Z" transform="translate(985.02 368.31)"/><path class="cls-4" d="M1501.74-262.64c.09-6.92,2.19-8.26,6-5.51a27.26,27.26,0,0,1,7.22,7.54c.76,1.26-.34,4.42-1.58,5.85-.64.75-4,.25-5.15-.77A64.71,64.71,0,0,1,1501.74-262.64Z" transform="translate(985.02 368.31)"/><path class="cls-4" d="M1006.37,686.64c-18-9.9-39.35-16.2-43.74-41.1C968.5,668.87,990.84,673.93,1006.37,686.64Z" transform="translate(985.02 368.31)"/><path class="cls-4" d="M1293.18,662.11c-7.58,9.24-16.58,15.57-27.25,20.44C1267.41,676.3,1286.6,661.79,1293.18,662.11Z" transform="translate(985.02 368.31)"/><path class="cls-4" d="M1021.55-256.23c-3.87,14.12-5.49,15.76-12.8,15.43-1.29-5.31.28-9.9,4.53-13C1015.49-255.37,1018.76-255.46,1021.55-256.23Z" transform="translate(985.02 368.31)"/><path class="cls-4" d="M1266.22-281.06c3.39,7.24.55,13.8-6.38,15.38-1.24.28-3.22,0-3.91-.77a4.6,4.6,0,0,1-.61-4.15C1257.75-275.06,1260.17-279.76,1266.22-281.06Z" transform="translate(985.02 368.31)"/><path class="cls-4" d="M1462.49,80.57l19.92,20.73C1470.28,98.77,1461,89.23,1462.49,80.57Z" transform="translate(985.02 368.31)"/><path class="cls-4" d="M1280.21,31.21,1267,62.56c-2.47-7.2,5.19-27.25,11.21-32.09Z" transform="translate(985.02 368.31)"/><path class="cls-4" d="M1057,575.8c-10.41,10-23.18,16.35-35.91,22.74l-1-1.54,35.62-22.86C1056.19,574.69,1056.61,575.25,1057,575.8Z" transform="translate(985.02 368.31)"/><path class="cls-4" d="M1499-312.25c5.71,2.35,9.84,5.33,11.1,10.78.39,1.66-.86,3.7-1.36,5.57-1.64-.47-3.69-.48-4.84-1.5C1499.7-301.14,1496.44-305.42,1499-312.25Z" transform="translate(985.02 368.31)"/><path class="cls-4" d="M1178.81-291.3c0,9.27-3.83,15.44-10.15,17.5-2.4-5.25-1.16-10.13,2.31-14.09C1172.56-289.7,1175.79-290.07,1178.81-291.3Z" transform="translate(985.02 368.31)"/><path class="cls-4" d="M1291.83-298c5.88,1.41,11.05,2.21,15.86,4,3.23,1.18,2.76,3.78,0,5.48C1301.21-284.69,1293.07-288.78,1291.83-298Z" transform="translate(985.02 368.31)"/><path class="cls-4" d="M1021.57-228.84c-1.6,9.79-6.07,15.16-12.53,15.39C1007.8-221.95,1012.88-228.42,1021.57-228.84Z" transform="translate(985.02 368.31)"/><path class="cls-4" d="M1475.65,70.93c13.55,7.9,17.88,12.12,19.55,19C1484.32,86.05,1476.85,78.77,1475.65,70.93Z" transform="translate(985.02 368.31)"/><path class="cls-4" d="M1170.86-252.82l9.53,14.35c-6,2.52-9.39.57-12-3S1166-248.52,1170.86-252.82Z" transform="translate(985.02 368.31)"/><path class="cls-4" d="M1037.31-150.33c-5-3.77-5.71-11.89-1.46-15.33,1.08-.87,2.88-1.71,4-1.39.88.24,1.64,2.26,1.82,3.58C1042.34-158.59,1041.87-153.94,1037.31-150.33Z" transform="translate(985.02 368.31)"/><path class="cls-4" d="M1484-248.06c8.67,5.15,9.73,11.3,3.2,16.7C1481.3-236,1480-242.37,1484-248.06Z" transform="translate(985.02 368.31)"/><path class="cls-4" d="M1128.17-287.21c7.55-4.18,16.44-3.85,21.11.58C1144.2-281.83,1133.93-281.94,1128.17-287.21Z" transform="translate(985.02 368.31)"/><path class="cls-4" d="M1240.13-192.09c-.13-5.18,3.23-7.74,6.85-9,2.73-.92,6.1.13,9.91.35C1252.59-193.09,1247.84-190.86,1240.13-192.09Z" transform="translate(985.02 368.31)"/><path class="cls-4" d="M1106.76-274.41c-5.54,7.84-10.76,9.63-19.18,6.89C1090.42-273,1101-276.92,1106.76-274.41Z" transform="translate(985.02 368.31)"/><path class="cls-4" d="M1025.71-193.24c-2.13-6.43-.12-10.11,3.92-11.87,2.51-1.09,5.89-.18,8.87-.17.28,1,.56,2,.83,3Z" transform="translate(985.02 368.31)"/><path class="cls-4" d="M1357.7,548.55c8.84-1.88,16.32-6.22,25.23-2.89C1376.63,550.63,1363.48,552.42,1357.7,548.55Z" transform="translate(985.02 368.31)"/><path class="cls-4" d="M1302.89-232.42c-.15,5.48-2,9.55-6.66,11.87-2.29,1.13-4.18.75-4.2-2.33C1292-228.07,1296.82-232.51,1302.89-232.42Z" transform="translate(985.02 368.31)"/><path class="cls-4" d="M1112.36-50.78c-9.21-3.6-19.87-16-19.81-22.59Z" transform="translate(985.02 368.31)"/><path class="cls-4" d="M1314.82-191.19c-6,3.22-11.94.54-13.46-6.06C1308.46-199.25,1311.61-197.83,1314.82-191.19Z" transform="translate(985.02 368.31)"/><path class="cls-4" d="M1043.06,603.43l19-18.43,2.06,2.22-19.56,17.84Z" transform="translate(985.02 368.31)"/><path class="cls-4" d="M1411.12-305.79c-4.84,5-9.61,5.16-14.45.61C1401.42-309,1406-308.55,1411.12-305.79Z" transform="translate(985.02 368.31)"/><path class="cls-4" d="M1477.29-285.29v10.21c-1.15-.18-2.93.05-3.36-.6-2.18-3.39-2.89-6.85.57-9.68Z" transform="translate(985.02 368.31)"/><path class="cls-4" d="M1471-224.81c-.7,3.24-1.41,6.48-2.11,9.72-1.27-.48-3.47-.74-3.64-1.48-.86-3.71-.39-7.16,3.6-8.85Z" transform="translate(985.02 368.31)"/><path class="cls-4" d="M1302,675.72,1312.73,665l1.59,1.67-11,10.52Z" transform="translate(985.02 368.31)"/><path class="cls-4" d="M1037.42,510.31a80.21,80.21,0,0,1-9.16-2.31c-.45-.16-.06-2.7-.06-4.47l9.8,4.78C1037.81,509,1037.61,509.64,1037.42,510.31Z" transform="translate(985.02 368.31)"/><path class="cls-4" d="M1035.29,709.35l-14.1-6.92,1-2L1036,708C1035.74,708.45,1035.51,708.9,1035.29,709.35Z" transform="translate(985.02 368.31)"/><path class="cls-4" d="M1490.06,64.81l10.17,9.25c-.42.49-.83,1-1.25,1.49l-10.64-8.94Z" transform="translate(985.02 368.31)"/><path class="cls-4" d="M1368.17-85.67c-3.57,6.38-1.44,8.53,3.89,8.72,1.1,0,2.17.63,3.28.77,5.29.68,8.42,3.31,8,9-.34,4.57,1.87,6.37,6.13,6a39.65,39.65,0,0,0,6.69-1.15c6.16-1.69,11.51-1.63,16.88,3.14,4.53,4,11,5.78,15.56,9.8,7.43,6.57,5.54,14.85-3.71,18.06a52.07,52.07,0,0,1-28.57,1.31c-5-1.07-9.92-2.48-15-3.12-3.23-.42-5-1.5-5.07-4.81-.06-4.06-2.29-6.3-5.94-7.41-7.2-2.21-14.44-4.32-21.61-6.63-10.64-3.42-20.66-7.91-25.89-18.75a49.84,49.84,0,0,1-4.46-12.77c-.65-3.68,1.17-7.07,5.76-6.63C1338.42-88.84,1352.69-87.28,1368.17-85.67Zm-43.1-.54c.88,9.53,5.07,15.62,10.53,20.58,7.34,6.66,16.81,8.87,26.13,11.61,6.52,1.91,14.91,4.35,18,9.33,3.45,5.62,7.25,6.56,12.21,7.67,1.84.41,3.63,1,5.48,1.4,8.87,1.73,17.68,1.93,26.32-1.25,3.22-1.18,5.33-2.85,3.67-6.82-2.92-7-19-16.17-26.4-15.14a99.7,99.7,0,0,1-12.43,1c-6.3.07-8.78-2.27-8.61-8.47.12-4.24-1.82-5.87-5.54-6.44a47.11,47.11,0,0,1-7.21-1.4c-3.55-1.13-7.14-2.52-4.76-7.65Z" transform="translate(985.02 368.31)"/><path class="cls-4" d="M1494.25-60.78c6.27,1.38,12.73,2.19,18.76,4.29a214.22,214.22,0,0,1,25.12,10.57c8.12,4.06,9.57,7.8,6.3,16.27a70.74,70.74,0,0,1-9.08,16.41c-3.42,4.61-9.12,5.19-14.6,4.59-6.23-.68-12.42-1.87-18.66-2.38-1.29-.1-3.51,1.54-4,2.85-2.29,6.33-5.74,7.75-11.16,3.67a125.25,125.25,0,0,1-14.38-12.08c-1.89-1.92-2.39-5.38-3.12-8.24-.36-1.39.73-3.23.24-4.51-1.91-5,.67-5.45,4.64-5.45,6.37,0,12.64-8.31,11.1-14.34C1482.94-58.9,1483.84-60,1494.25-60.78Zm-3.55,51.1c3-7.36,4.92-8.58,12.56-7.69,4.13.48,8.21,1.58,12.35,1.86,5.57.38,11.82,2.33,16.23-2.51,3.12-3.44,5.37-7.84,7.38-12.12,3.73-7.94,2.23-11-6.1-13.79-6.78-2.3-13.47-5-20.38-6.77-7.3-1.91-14.81-3-23-4.61,1.5,7.18,5,12.89-1.86,17-4.77,2.89-9.49,5.86-15,9.26.7,1.9,1.06,5.85,3.21,8C1480.31-16.8,1485.55-13.58,1490.7-9.68Z" transform="translate(985.02 368.31)"/><path class="cls-4" d="M1201.46-104.32c-6.22,11.12-19.94,15.83-24.35,29.2,4.85,1.17,9.66,2.59,14.56,3.44s7.81,3.54,9.69,7.82c2.24,5.12,6.05,7.76,11.64,8.76,6.65,1.18,13.19,3.12,19.72,4.93,4.69,1.31,8.48.35,11.86-3.25,3.14-3.35,2.71-6.82,1.29-10.62-2.2-5.84-4.62-11.62-6.37-17.59-2.5-8.56.77-18.53,8-23.69,0,3.08.52,5.67-.09,7.94a38.87,38.87,0,0,0,1.46,25.62c4.87,12.19,1,22.34-9.34,24.43-4.45.91-9.49-1.19-14.27-1.8-4.08-.53-8.2-1.33-12.29-1.24-8.4.18-13.1-2-16.29-9.67-2.17-5.22-6.58-5.78-10.9-6.84-2.75-.68-5.65-.76-8.41-1.39-5.64-1.29-7.91-5.92-5.07-10.84C1179-90.85,1189.64-98.28,1201.46-104.32Z" transform="translate(985.02 368.31)"/><path class="cls-4" d="M1134.21-89.42c7.53-3,15.07-5.8,23.32-3.18.11.75.22,1.51.32,2.26l-23.22,3.42Z" transform="translate(985.02 368.31)"/><path class="cls-4" d="M1142.22-78.86c6.39-3.9,10.93-7.85,18.45-6C1155.56-79.55,1150.19-78,1142.22-78.86Z" transform="translate(985.02 368.31)"/><path class="cls-4" d="M1410.65-51.11c-3.91,5.63-7.49,6.4-14.74,1.77l14.16-3.8C1410.26-52.46,1410.46-51.79,1410.65-51.11Z" transform="translate(985.02 368.31)"/></g><g class="cls-3"><path class="cls-4" d="M-826.55-99.19c-.67-1.26-1.33-2.53-2-3.82m0,0c-18.5-.18-38.12-.17-57.72-.68-4.42-.12-8.78-2-13.17-3.1l.39-2c5.92-.53,11.83-1.13,17.75-1.57,22-1.66,44-3.46,66.09.6,8.86,1.64,18.38,1.11,27.43.07,33-3.8,66.16-4.34,99.37-4.44a404.88,404.88,0,0,0,92.63-10.61c29-6.89,58.61-11.35,87.95-16.87,15.23-2.87,30.39-6.19,45.71-8.49,26.14-3.93,48.67-17.47,72.84-26.63,12.74-4.83,25.45-9.73,38.26-14.39,14.81-5.38,28.07-12.59,31.9-29.57s1.75-33.48-8.75-47.46a554.47,554.47,0,0,0-37.41-44.81c-16.6-17.82-36.76-30.42-60.55-36.8-10.2-2.73-20-7.44-30.31-9.18-20.26-3.41-40.75-5.19-61.37-2.59a385.15,385.15,0,0,1-75.83,2.42c-26.27-1.87-51.8,3.09-77.19,9.26-16.73,4.07-34.05,6.25-50.26,11.78-22.4,7.63-45.41,11.91-68.39,16.69-20.17,4.2-40.68,7.37-60.29,13.42-18,5.55-35.31,13.66-50.56,25.36a44.38,44.38,0,0,1-11.75,6.45c7.4-5.76,14.5-12,22.3-17.15a240.24,240.24,0,0,1,25.73-14.57c6.37-3.17,13.21-5.45,20-7.76,11.46-3.93,22.82-8.38,34.57-11.12,17.89-4.18,36.1-7,54.13-10.59,5.54-1.11,10.91-3.1,16.4-4.49,20-5.06,39.9-10.4,60-14.92,15.89-3.57,31.95-6.46,48-9,16.33-2.56,32.67-.66,49,1.22a242.47,242.47,0,0,0,57,.26c13.71-1.66,27.77-1.49,41.6-.8,12.25.61,24.77,1.74,36.51,5,16.52,4.61,33.18,9.89,48.4,17.63,21.94,11.14,39.92,27.79,54.58,47.86,5.51,7.55,11.59,14.7,17.62,21.85,8.41,10,12.5,21.69,14,34.36a130.46,130.46,0,0,1,.89,21.73C-311.86-201-322-192.33-334.9-186.4c-7.54,3.48-15.58,5.84-23.35,8.82-8.11,3.1-16.12,6.48-24.26,9.49-13.84,5.12-27.9,9.68-41.61,15.15-14.41,5.74-29.46,6.67-44.62,8.13-16,1.54-32,4.1-47.85,7-23.44,4.31-46.75,9.33-70.34,14.89,10,1.85,19.87,4,29.88,5.49,37.9,5.67,75.65,12.29,111.75,25.45,24.54,8.94,48.72,19.07,72.38,30.15a115.41,115.41,0,0,1,45.74,39c6.44,9.21,10.2,18.91,2.52,29.53-.67.92-.43,2.48-.7,3.72-1.5,6.82-2.47,13.81-4.67,20.39-3.13,9.31-10.57,13.65-20,12.86-20.25-1.67-40.46-3.83-60.64-6.19-15-1.75-30-4.13-45.58-6.31,1.63,4.63,3.11,8.82,4.58,13,4.06,11.68,3.22,14.67-6.2,22.08,5,12-2.72,23-21.94,19.16,1.43,2.61,2.72,4.6,3.65,6.74,1.44,3.29,3.22,6.59,3.79,10.07,1.29,7.75-4.85,12.21-12.12,9.46-9.18-3.46-18.42-6.83-27.78-9.72-1.71-.52-4.93.85-6.17,2.39-7.26,9-10.19,19.08-7.51,30.85,1.54,6.81,1.61,14,2.08,21a9.11,9.11,0,0,1-6,9.49c-7,2.86-14,6.21-21.3,7.65-4.47.88-9.57-1.42-14.56-2.32-3.26,1.86-7.17,5-11.62,6.46-11.12,3.73-18.43-1.68-20-13.33a32.29,32.29,0,0,0-4.46-12.55c-8.43-13.32-7.26-23.61,5.72-32.59,10.82-7.48,11.45-12.37,6.52-25.33-1.55-4.1-2.2-8,1-11.16,3.47-3.39,3.17-7,2.22-11.07-.39-1.66-.43-3.5-1.19-4.95-1.95-3.73-1-9.65-7.45-10.07-8.18-.53-13.26,2.18-16.55,8.54-3.14,6.07-6.27,12.19-9.87,18-4.27,6.88-2,13.78-.45,20.52,1.83,8.12,4.66,16,6.86,24,2.87,10.52-4.36,20.24-16,16.06-17.44-6.25-28.29,13.75-25.56,25.46.82,3.51,1.83,7.07,1.9,10.62.14,6.88-5.54,11.53-12.24,10C-676,187.59-685.4,185.75-690,176a3.63,3.63,0,0,0-2.22-1.69c-6.83-1.59-8.67-5.74-7.18-12.39,1-4.27-.25-7.81-4.36-10.82-8.07-5.91-8.46-9-2.68-17a84.29,84.29,0,0,1,11.53-12.93c7.54-6.9,8.06-13.61,3.65-23-3.32-7.06-8.18-10.16-15.15-11.75-5.21-1.18-8.71.41-11.6,4.8a40.51,40.51,0,0,0-6,32.19c.17.74.49,1.46.6,2.21,1.86,12.9-4.56,19.16-17.51,17.06-1.5-.24-3-1-4.47-.8-14.46,1.84-20.26-7.71-24.85-18.88-.29-.7-.39-1.48-.71-2.16-2.22-4.72-3.35-12-7-13.57-6.44-2.81-14.34-2.46-21.67-2.89-3.74-.22-7.56,1.06-11.34,1.05-10.5,0-16.49-6.26-16.76-16.86-.08-3.33-.45-6.64-.69-10l-1.45,0c-3.11,4-5.93,8.2-9.39,11.82-9.76,10.23-18.91,9.35-26.72-2.3-1.8-2.68-3.49-5.44-5.75-7-3.41-1-6.8-2-10.23-2.84-1.34-.34-2.93-.86-4.13-.46-3.84,1.27-11.32,12.24-10.73,16.06.23,1.49,2,3,3.37,4,5.94,4.12,12.16,7.84,18,12.08s6.23,8.42,2,14.15c-7.18,9.61-16.14,16.1-28.64,16.39-1.06,0-2.11.5-4.6,1.12,2.84,2.32,4.55,4.38,6.74,5.37,7.46,3.38,10.41,8.89,9.45,17-.29,2.37.81,4.91,1.28,7.37,2.94-.87,6.72-.88,8.67-2.78,5.14-5,9.45-10.92,14.17-16.41,4.23-4.93,6.1-5.17,10.92-1.11q11.41,9.59,22.6,19.43c4.28,3.76,3.81,7-.76,10.93-3.37,2.91-6.3,6.33-9.43,9.52l.87,2c5.07-.7,10.14-1.37,15.21-2.1.74-.11,1.42-.58,2.16-.74,8-1.69,8.89-1,8.63,7.22,0,1-.06,1.92,0,2.87.28,4.36-1.5,9.91,4.66,11.42,5.27,1.28,13.74-4.66,16-9,6.07-11.58,12.1-23.27,19.32-34.13,5.37-8.09,20.75-6.24,25.71,2.21,2.54,4.32,1.32,8.49-.78,12.48-1.11,2.13-2.61,4.06-4.58,7.07,4.16-.39,7.32-.5,10.42-1,7.19-1.18,13.18,1.26,15.58,6.57,2.68,5.88.79,11.53-5.77,16.21a67.46,67.46,0,0,1-8.92,5.07c-3,1.53-6.21,2.79-10.37,4.62,3,1.39,5.11,2.68,7.42,3.39,5.55,1.7,8.95,5.23,10.75,10.77.61,1.9,2.51,3.39,3.83,5.06,1.6-1.71,3.86-3.16,4.65-5.19,1.35-3.5,1.37-7.52,2.71-11,1.51-3.92,3-8.44,6-11.08,9.32-8.29,20.44-9.49,32-5.36,10.27,3.67,11.66,8.73,5.92,20.85h4.6c10.25.06,12.33,1.64,13.12,12,.38,5,2.47,6.17,6.54,4.76,4.95-1.71,10.06-3.35,14.55-6,6.55-3.82,8.24-8.35,6.1-15.53-1.5-5.05.06-8.36,3.84-11.46a93.83,93.83,0,0,0,10.05-9.37c4.48-5,9.71-5.73,15.45-3.29,4.82,2,9.39,4.65,14.5,7.21l.49-1c4.71-9.87,6.56-10.29,14.05-3,1.88,1.82,6,2.44,8.83,1.95,8.19-1.4,13.8-6.26,17.26-14.15,5.65-12.88,15.56-20,29.93-19.55,3.49.12,7,1.55,10.38,2.57,4.32,1.29,8.51,3.32,12.9,3.92,1.74.24,5-2.1,5.67-3.94C-489.6,163-486,151.56-483,140c1.48-5.64-1.27-10.31-5.82-14-2.5-2-4.68-4.4-8-7.58,12.5-.35,22.06,12.44,19.53,23.45a8.45,8.45,0,0,1-.63,1.6c-3.31,7.48-5.1,14.52,4.77,18.7a4.61,4.61,0,0,1,2.24,3.15c1,7,6.36,9.21,11.81,11.65,8.17,3.68,14.84.14,14-8.83-.71-7.14-4.09-14-6.46-20.95-.58-1.71-1.85-3.18-3.08-5.22,2-1,3.47-1.87,5-2.52,7.79-3.32,15.53-6.76,23.42-9.8,4.49-1.74,9.17-3.56,13.9-4,8-.74,11.43-3.64,11.1-11.81a104.62,104.62,0,0,0-1.51-13.07c-.5-3,.69-5,3.37-4.53,6.76,1.31,11.6-2.69,16.92-5.37a71.93,71.93,0,0,0,7.24-4.55c10.33-6.82,10.36-18.94.09-26.23-1-.71-1.9-1.58-3.35-2.79,4.63-1.88,8.06-1,11,1.79,9.61,9,8.23,25.35-3,32-7.76,4.62-15.94,8.54-25,13.36a47.26,47.26,0,0,0,.7,6c2.62,12.42-5.65,22-18.45,21.36a14.32,14.32,0,0,0-6.61.87c-4.44,2.15-8.48,5.15-12.93,7.27s-9.12,3.53-13.19,5.06c2.08,7.76,4.52,15.3,6,23,1.17,5.94-.58,11.81-5.89,15.11-2.89,1.81-7.29,2.91-10.48,2.13-5.24-1.28-10.26-4-14.95-6.8a10.53,10.53,0,0,1-4.27-6.39c-.94-4.82-3.83-7.09-8.54-8.84-1.15,4.21-2.12,8.2-3.34,12.1-2.54,8.11-7.49,10.53-15.45,7.64-5.16-1.87-10.16-4.34-15.44-5.64-10.86-2.67-22,3.47-27.29,14.86-2.93,6.38-6.13,12.29-12.64,15.66-9,4.67-17.88,6.83-26.38-1.92-1.69,3.11-2.92,6.11-4.78,8.65-3.33,4.56-7.17,3.95-9.59-1.23-3.25-6.92-14.57-8.93-20-3.55a11,11,0,0,1-2,2c-7.43,4.31-9.46,10.4-8.4,19,.46,3.73-2.6,8.86-5.56,11.86-6.74,6.84-15.51,10.2-25.18,10.48-7.37.2-10.39-2.94-10.5-10.31s-.12-7.33-7.52-7.33a84.71,84.71,0,0,1-9.16-.19c-4.78-.54-5.95-3.56-3-7.29.83-1.05,1.64-2.12,2.55-3.09,5.43-5.79,4.12-10.16-3.67-12-9.27-2.18-17.51-.46-25.07,5.75-4.42,3.64-4.39,8.57-5.71,13.24-1,3.46-1.52,7.42-3.62,10.06-1.83,2.3-5.67,4.31-8.44,4.1-2.24-.18-5.38-3.54-6.07-6.06-1.69-6.16-4.84-10.15-11.08-11.57a3.43,3.43,0,0,1-1.55-.7c-2.73-2.47-5.42-5-8.11-7.52,2.71-2.08,5.24-4.49,8.19-6.16,4.61-2.61,9.52-4.65,14.26-7,3.34-1.68,5.3-5,3.5-8-1.32-2.22-5-3.85-7.8-4.14-4.48-.47-9.1.7-13.66.61-5.57-.1-7.56-4.35-4.56-9.12.61-1,1.57-1.73,2.1-2.72,1.76-3.32,5.67-6.64.85-10.38-5.55-4.33-9.59-4.33-13.2,1.13-6.5,9.82-13.24,19.71-18,30.41-3.56,8-16.43,14.33-25.35,12.41-4.4-.95-7.27-6.8-7.08-13.82.08-2.8.63-5.6,1-9-6,1.15-11.51,2.22-17,3.24-6.33,1.17-9.62-1.38-10.31-7.9l-.17.2,11.56-14.88-23.74-21.63c-2.67,4.15-4.63,8.09-7.42,11.29-4.17,4.8-8.52,9.63-13.57,13.39-3.63,2.71-8.4,2.14-12.23-1s-4.57-7.35-3.69-12c1.6-8.47,1.32-8.93-6.22-12.94a18.81,18.81,0,0,1-6.22-4.76c-5.12-6.74-3.11-12.17,5.25-13.2,10.1-1.23,18.69-4.52,24.9-13.08,2-2.74,2.36-4.67-.56-6.64-5.83-3.92-11.59-8-17.52-11.71-6.22-3.92-7.77-7.13-4.64-13.73a68.44,68.44,0,0,1,9.1-14.39c3.66-4.38,8.67-6.17,14.35-3.09.81.43,2,1.06,2.63.79,7.38-3.05,10.35,2.16,13.46,7.09,8.41,13.33,10.77,13.69,22.5,3.18,3.79-3.4,7.48-6.44,6.44-12.88-.47-2.92,2.11-7,4.38-9.55A108.88,108.88,0,0,1-816.15,48c5.49-4.38,6.36-6.68,2-12.33-4.7-6.17-6-12.47-3.35-19.81S-810,5.71-802.39,7.43c7.93,1.78,15.78,4.19,23.81,5.24,15.25,2,28.75-1.05,37.06-15.87.23-.41.87-.59,1.77-1.15,1.19,7.15-2.13,12-6.78,16-12.65,11-27.36,10.94-42.55,7.4-4.21-1-8.21-2.95-12.44-3.82-2.92-.6-7.85-1.23-8.75.17-2.25,3.5-3.16,8.11-3.65,12.38-.21,1.83,1.81,4,3.09,5.89,5,7.3,4.38,11.66-2.7,17-2,1.49-4.5,2.49-6,4.35a80.59,80.59,0,0,0-7.72,11.54c-1.85,3.35-.9,5.86,2.88,7.81,1.73.9,2.42,3.91,3.48,6,.23.46,0,1.13,0,1.71.17,15.56,1.55,16.31,16.94,15,8.24-.72,16.71.15,25,1.15,6.15.74,9.85,5.31,11.91,11.06,2.18,6.06,4.37,12.12,6.42,18.23,1.83,5.44,5.22,8.65,11.17,8.83,3.62.11,7.23.77,10.83.67,7.6-.22,9.5-3,8.13-10.48-1-5.22-2.08-10.54-2-15.79.22-10.68,4.4-20,11.78-27.74,3.81-4,8.4-5.81,14-3.84,1.06.38,2.26.34,3.36.63,12.82,3.42,17.21,8.23,18.86,22,1.28,10.61-4.14,17.72-12.32,24-4.56,3.52-7.78,9.16-10.54,14.41-.8,1.54,1.35,6.09,3.36,7.42,6.28,4.16,8.94,9.43,8.21,16.9-.13,1.39,1.67,3.27,3,4.43,2.33,2,5.93,3.15,7.33,5.61,4.25,7.46,11.57,8.37,18.54,9.27,4.29.56,3.16-3.65,2.85-6.41-.68-6.15-2.82-12.56-1.78-18.4,2.77-15.51,16.3-29.79,36.92-24.58,4.85,1.22,6.62-.65,6.31-4.93-.72-9.89-1.59-19.78-2.76-29.63-.82-6.9-1.31-13.43,2.57-19.85,3-5,4.93-10.62,7.31-16,3.49-7.86,14.56-13.7,23-12.09a8.57,8.57,0,0,1,2.11.8c8.39,4.12,13.92,25.26,9,33.13-1.06,1.69-1.1,4.37-.83,6.49.48,3.73,1.77,7.34,2.36,11.06,1.28,8.17-1.33,14.64-8.69,18.9a43.36,43.36,0,0,0-4.11,3.1c-7.58,5.65-9.22,11.87-4.31,19.79,3.56,5.75,6.25,11.4,7.08,18.33,1,8.77,9.12,10.92,15.84,4.76a31.35,31.35,0,0,0,3.11-4.06c3.62-4.7,6.37-6.23,10-.44,2.37,3.74,6.14,3.93,9.65,2.9,6-1.77,12-3.67,17.48-6.55a11,11,0,0,0,5-7.8,56.41,56.41,0,0,0-1.63-17c-1.94-7.57-1.84-14.62,1.69-21.58,1.88-3.71,3.51-7.58,5.72-11.08,3.88-6.15,7.14-6.91,14-4.6,8.22,2.76,16.55,5.23,24.86,7.73,1,.31,2.18.05,4.7.05-1.31-4.2-2.3-7.7-3.49-11.13-1.79-5.15-3.87-10.21-5.47-15.42-.42-1.37.47-3.16.77-4.76,1.79.34,3.6.58,5.36,1,3.89,1,7.89,3.29,11.6,2.88,6.66-.75,8.12-4.71,5-10.68-.88-1.67-2.49-3-3.13-4.75-.5-1.34-.56-3.47.2-4.46.63-.81,2.76-.55,4.22-.59,1.82-.06,4.69.79,5.27,0,1.32-1.92,2.5-4.82,2-7-1.51-6.81-3.8-13.45-5.87-20.43-28-6.9-57.15-12.85-84.89-23.76a11.46,11.46,0,0,0-6-.61c-10.58,2-21,5.51-31.68,6.14a390.88,390.88,0,0,1-53.13,0c-17.73-1.38-35.31-4.93-52.87-8C-720.34-.69-748-10-775-20.9c-19.94-8-38.81-18.33-51.66-36.39-8-11.17-11-23.82-4.94-37.27.39-.87.85-1.72,1.31-2.55.27-.5.61-1,.92-1.44l1.54.27c0,2.63.52,5.39-.09,7.88-4.25,17.45,3.08,30.5,15.63,41.36,20.91,18.11,46.26,27.52,72.16,35.09,22.65,6.62,45.55,13,68.77,16.89,26.6,4.52,53.62,7.41,80.79,4.16,10-1.19,20-2.16,30.14-4.41-1-.55-2-1.12-3.07-1.64-10.69-5.36-21.43-10.62-32-16.14-2.33-1.22-3.93-1.71-6.58-.4-9.13,4.53-19.13,3.58-28.66,2.55-22.46-2.43-45-5-67.18-9.06-36-6.51-69.88-19.39-99.47-41.42-12.14-9-21.29-21.2-29.08-35.77M-381,14c12.59-1.51,25.44-1.91,37.72-4.78,17.16-4,20.09-14.68,9.12-28.51l-.36-.45c-14.15-17.94-32.32-30.72-52.9-39.8-19.92-8.8-40.12-17.07-60.64-24.33C-486-97.26-525.85-103.1-565-111.77c-10.13-2.24-21.21-2.23-29.75-9.77-.61-.53-2.18-.17-3.25.07-9.23,2.06-18.4,4.48-27.71,6.18-4,.73-4.09,2.69-3.42,5.59,5.37,23.13,17.37,42,35.53,57.22,20,16.7,42.52,28.33,66.89,37.1C-479.58,1.55-431.47,12.74-381,14ZM-823.9-100.63a75.63,75.63,0,0,1,5.27,5.84c13,17.87,28.85,32,48.77,42.1a282,282,0,0,0,84.51,27.22c18.93,3,38,5,57.12,6.86,8.31.81,16.77.13,24.28.13-11.49-10.82-23.79-20.95-34.27-32.72s-14.49-25.79-7.6-41.34c3.08-6.93,5.9-14,8.94-21.18-2.27,0-4.34-.14-6.38,0-17.63,1.43-35.26,2.79-52.86,4.42-13,1.21-26,2.84-39.08,4.21-19.64,2.07-39.25,4.56-58.94,5.91C-803.7-98.5-813.41-100-823.9-100.63Zm225.73,64.31C-581-29-565.58-17.5-546.41-15.12a5.76,5.76,0,0,0-2.22-1.69,187.22,187.22,0,0,1-48.35-30c-15.76-13.61-29.5-28.76-34.34-50-.47-2-1.3-4-2.24-6.82-2.11,4.89-3.71,8.94-5.58,12.86-6.26,13.07-2.64,25.11,5.71,35.14a159.68,159.68,0,0,0,49.31,39.41c26.81,14,55.23,23.77,84.5,31,15.21,3.74,30.61,6.79,46,9.56,14.17,2.54,28.53,4,42.73,6.44,20,3.46,40.08,6.7,60.52,6.22,5.47-.12,10.49-1.53,13-6.56,2.68-5.35,4.33-11.23,6.64-17.45-5.67,1.75-9.93,3.54-14.36,4.34-23.68,4.27-47.65,3.61-71.23.7s-46.86-8.72-70.26-13.34C-507.34.52-526-10.57-547.65-12.65-566.75-14.49-582.45-25.89-598.17-36.32Z" transform="translate(985.02 368.31)"/><path class="cls-4" d="M-918.34,542.12c-3-2.84-5.94-1.25-8,.89-8.37,8.53-16.08,17.49-14.86,30.78.91,10-.23,18.87-7.56,27.05-6.45,7.19-5.43,13.85.48,21.8,4.33,5.81,8.85,11.47,13,16.77-18.18-4.58-27.28-28.33-15.49-43.42,4.56-5.84,6.12-11.73,5.17-18.55-2.05-14.78,4.67-25.86,14.59-35.55,1.9-1.85,4.72-2.75,5.93-3.42-6.66-16.52-15-33.12-19.81-50.69-3.07-11.2-.61-23.87-1.15-35.85-.45-10.25,1.72-18.93,9.52-26.36,12.56-12,23.81-25.4,36.92-36.68,7.57-6.52,17.72-10,26.7-14.89,2-1.09,4.48-1.84,5.83-3.49,7.5-9.26,17.53-15.28,27.46-21.15a92.2,92.2,0,0,1,22.81-9.45c8.89-2.4,16.65-5.8,23-12.73,7.15-7.8,14-16.24,25.77-17.7-.21-.71-.41-1.43-.61-2.15l-96.69,17.22-.55-1.62c2.09-1,4.09-2.31,6.28-2.82,15.47-3.54,31-6.75,46.48-10.38,26.55-6.24,53.38-7.4,80.54-6.06,49.89,2.46,93.87,20.47,132.69,51.12,14.47,11.43,27,25.37,40.12,38.49,20,20,39.4,40.69,59.7,60.41A103.84,103.84,0,0,0-459.29,478c3.57,1.16,5.35.76,7.44-2.43,19.5-29.8,45-54,72.24-76.34,18-14.71,39.21-23.77,60.23-33.07,16.78-7.42,32.78-15.94,45.82-29.42,2.44-2.53,8.17-4.76,10.78-3.57,4.66,2.11,5.35,7.68,4.13,13-3.38,14.63-11.13,25.81-24.91,32.38,8.17-12.4,21.92-22,19.65-40.88-2.44,1.18-4.39,1.56-5.51,2.74C-287,358.91-310,368.3-332.74,378c-25.09,10.72-46.53,26.53-66.26,45.1A457.19,457.19,0,0,0-449.13,479a9.56,9.56,0,0,1-6.94,3.2c-10.08-.38-19.24-4.06-27.71-9.44-21.51-13.66-38.69-32.24-56.31-50.3-18-18.49-35.12-38-54-55.55C-623.95,339.09-659.7,322-699.4,313.13c-20.26-4.54-40.71-5.05-61.57-4.33.29,1,.53,1.8.8,2.7-9.79,1.31-18.26,5.31-24.25,13.34-9.13,12.23-21.33,18.26-36,22.09-15.47,4-29.92,11.13-41.74,23.05A93.48,93.48,0,0,1-885,386.84c-10.46,5.46-18.69,13.12-26.47,21.53-8,8.7-15.84,17.64-23.53,26.66-1.76,2.08-3.71,4.92-3.72,7.42-.06,16-.9,32.17,1,48,2.16,17.75,8,34.78,18.49,49.73a7.9,7.9,0,0,1,.71,2.12Z" transform="translate(985.02 368.31)"/><path class="cls-4" d="M-918.5,542.27c8.15,6.3,18,7.66,27.68,9.15,15,2.32,30.17,3.4,45.08,6,22.89,4.06,45.5,9.86,68.47,13.22,11.88,1.74,24.33.29,36.46-.61,10.85-.81,21.06,1.46,31.47,3.79,24.94,5.57,49.89,11.89,75.7,10.9,15.76-.61,31.45-2.69,47.18-4,6.46-.53,12.94-.94,19.42-1.06,15.76-.29,30.71-4.63,45.5-9.37,17.26-5.54,34.16-12.2,51.46-17.56,24.2-7.49,48.63-14.21,72.95-21.3,12.92-3.77,23.92-11.11,35-18.5,10.84-7.22,21.79-15.07,33.84-19.5,15.79-5.8,24.9-15.91,26.29-31.91,1-11.15,4.05-22.68-.6-33.87-.87-2.09-1.3-4.36-2.21-6.42-3.9-8.88-7.76-17.77-11.92-26.52-2.75-5.77-6-11.32-9.16-17.29,5.64-.86,9.24,2.4,11.48,7.28,3,6.55,5.51,13.32,8.73,21.23,6.07-4.86,11.93-9,17.07-13.79,14.6-13.72,29.21-27.51,36.78-46.8,1.18-3,2.5-6.06,2.89-9.2,1.51-12.1-1.46-16-13.76-18.26-53.06-9.77-99.78-32.94-141.61-66.82-10.63-8.61-21.88-16.52-33.22-24.18-15.44-10.44-33.2-14.52-51.27-17.3-8.26-1.28-16.56-2.77-24.88-3-8.53-.28-17.11.88-25.67,1.27a50.37,50.37,0,0,1-11.66-.7,70.45,70.45,0,0,1,30.84-6.87c37.69.53,73.06,8.6,103.7,32.12,14.82,11.37,29.14,23.52,44.63,33.89,25.13,16.83,51.65,31.1,81.59,37.78,11.06,2.48,21.89,6,33,8.31,14.47,3,17.49,12.87,14.54,26.07-3.88,17.4-14.24,31.52-26.68,43.92A221.82,221.82,0,0,1-290,400.52c-4.08,3.17-9.18,5-14.56,7.84a59.22,59.22,0,0,1,2.69,6.12q3.72,11.29,7.1,22.7a11.19,11.19,0,0,1,.08,4.58c-1.55,10.88-1.66,22.29-5.23,32.47a30.53,30.53,0,0,1-22,19.25c-14,3.35-25.88,11.16-36.32,19.63-17.91,14.54-37.3,23.76-59.46,29.59-24.07,6.34-47.29,15.92-71.08,23.45-25,7.92-49.77,17.16-76.64,17.74-25.14.54-50.28,3.4-75.38,2.9-17.84-.36-35.57-4.88-53.41-7.06-18.55-2.27-36.8-6.6-56-3.76-11.24,1.67-23.2-.05-34.65-1.63-17.07-2.36-34.29-4.74-50.83-9.34-16.3-4.54-32.82-5.69-49.34-7.88-10-1.33-20.59-1.9-29-8.72-1.89-1.53-2.91-4.15-4.34-6.28Z" transform="translate(985.02 368.31)"/><path class="cls-4" d="M-958.46,674.53c22.93,31.4,55.63,45.46,90.67,57,34.08,11.25,69.43,16.55,104,25.44,10.94,2.81,22.58,3.3,33.94,3.9,22.3,1.18,44.62,1.84,66.94,2.42,22.48.58,45,1.58,67.46,1,26.67-.7,53.41-1.84,79.9-4.81,20.4-2.29,40.35-8.45,60.71-11.54,22.82-3.47,44.49-10.87,66.11-18.18,20.37-6.89,40.86-14.28,58.88-26.46,15.74-10.63,24.77-26.27,30.78-44.24,5.44-16.29,4.44-32.15.47-48.29-1.27-5.14-1.22-10.11,2.44-14.47.54.33,1.09.48,1.11.69,1.31,14,4.57,28.18,3.44,42-2.56,31.14-15,57.3-44.09,72.81-38.08,20.31-78.48,33.66-120.87,41.3-17.68,3.19-35.14,7.65-52.87,10.49-12.36,2-25,2.45-37.52,3.17-21.32,1.22-42.64,2.58-64,3-15.8.29-31.63-.85-47.45-1.4-13.73-.47-27.46-.93-41.18-1.53-24.51-1.09-49.16-1.14-73.21-6.93-37.3-9-75.18-15.71-111.45-28.74-22.18-8-42.76-19-60.57-34.51C-951.29,691-957.08,684.16-958.46,674.53Z" transform="translate(985.02 368.31)"/><path class="cls-4" d="M-893.46,654.57c3.22,1.42,6.4,2.94,9.67,4.24q10.51,4.17,21.11,8.15c2.83,1,6.12,1.24,8.58,2.81,13.47,8.64,29.27,9.72,44.08,13.92,5.78,1.64,12,1.62,18,2.56,3.91.62,8.26.71,11.57,2.56,13.05,7.27,27.43,8.2,41.7,10.2,5.9.82,11.5,3.71,17.38,4.91A184.89,184.89,0,0,0-699,707.15c10.6.85,21.25,1.55,31.87,1.4,6.71-.1,13.4-1.88,20.11-2.87q4.2-.61,8.42-1c15.3-1.48,30.59-3,45.89-4.38,13.42-1.22,26.61-2.22,40.19,1.23,7.38,1.87,16.18-.11,24-2,10.2-2.46,19.86-4,30.63-2.32,8,1.27,16.79-1.48,25.07-3.2,14.59-3,29.06-6.67,43.58-10,3.67-.86,7.68-1,11-2.64,14.39-7.06,30-10.1,45.07-14.94,8.7-2.8,16.92-8.54,24-14.61,4-3.45,5.93-10,7.42-15.53A48.61,48.61,0,0,1-326.25,611c3.17-2.7,5.81-6,9.21-9.58-9.37-9.44-11.27-21.92-15.2-33.52-3.59-10.64-8.43-20.19-18-27-4.66-3.32-8.17-8.28-12.21-12.5.35-.51.7-1,1.06-1.54,2.13.9,4.5,1.47,6.37,2.75,17.18,11.79,28.43,27.54,33.16,48.21,1.4,6.07,5.2,11.8,8.77,17.09,3.32,4.92,3.49,9.16-.14,13.53a71.18,71.18,0,0,1-8.29,8.63c-6.44,5.52-11.17,12.4-13,20.42-2.39,10.43-9.12,16.07-17.64,21.13-12.24,7.27-25.35,11.48-39.18,14.39-7.31,1.54-14.35,4.8-21.22,7.93a119.64,119.64,0,0,1-29.12,9c-11.87,2.08-23.29,6.65-35.11,9.12-7.68,1.61-15.87,2.55-23.59,1.66a58,58,0,0,0-22.44,1.38c-12.4,3.37-24.41,5.1-37.85,2-11.78-2.72-24.88,0-37.36.74-12.31.75-24.58,2-36.86,3.22-5.44.53-11,.9-16.24,2.26-9.76,2.52-19.39,2.52-29.37,1.58-8.28-.78-16.76,1-25.1.56-6.93-.33-13.79-2.08-20.66-3.32-10.21-1.84-20.43-3.68-30.6-5.75-5.17-1.05-10.71-1.69-15.26-4.1-9.38-5-19.51-5.58-29.54-7.55-16.27-3.18-32.75-6-47.78-13.81-4.36-2.25-9.11-3.75-13.57-5.83-10.55-4.92-21-10-31.55-15Z" transform="translate(985.02 368.31)"/><path class="cls-4" d="M-915.8,431.76c-.31,6.66,3.18,7.6,8.66,8.56,9.79,1.72,19.66,4.16,27.26,11.78,2.31,2.31,5.78,3.61,8.92,4.87,7,2.8,14,5.89,21.26,7.68a36.78,36.78,0,0,0,15.49.34c12.37-2.47,24.53-6,36.84-8.77,2.51-.57,5.31-.11,8,.15,9.79,1,19.57,2,29.34,3.2,9.39,1.14,18.74,2.55,28.12,3.75,8.43,1.08,16.91,1.82,25.31,3.14a34.16,34.16,0,0,1,10,3.45c5.47,2.8,9.73,2.83,13.16-1.91,3.64-5,8.55-7.1,14-9.09,9.2-3.37,18-7.35,28.39-4.39,4.2,1.19,9.27-.93,14-1.19,2.26-.13,5.07-.15,6.78,1,6.37,4.39,12.36,9.34,18.56,14a12.17,12.17,0,0,0,4,2c20.86,5.66,41.35,6.43,61.29-4,10.2-5.31,19.47.21,28.69,3.89,2.57,1,4.75,3,6.86,5.82a42.89,42.89,0,0,1-6-.95c-4.7-1.42-9.25-3.89-14-4.43-5-.56-10.67-.5-15.31,1.25-12.92,4.88-26,9.07-39.82,7.78-8-.74-15.9-3.15-23.76-5.14a15.87,15.87,0,0,1-5.76-3.48c-5.36-4.44-10.5-9.15-15.91-13.54a7.58,7.58,0,0,0-4.55-1.16c-7.1.08-14.2.41-21.3.55-1.1,0-2.48-1.06-3.28-.68-9.15,4.38-19.24,7.63-27,13.78-8.93,7.06-12.83,8.94-22.76,3.35a14.82,14.82,0,0,0-4.77-1.42c-12.66-2.18-25.27-4.69-38-6.29-9.43-1.19-19-1.07-28.54-1.73-3-.21-6.25-.44-8.87-1.72-10.38-5.07-20.91-3-31.25-.77-7.16,1.53-14.12,4.23-21,7s-13.44,2.88-20.32-.2c-5.84-2.62-12.06-4.4-18-6.73-3-1.17-6.36-2.15-8.64-4.23-9.61-8.75-21.32-11.85-33.61-13.92-2.06-.35-5-2.15-5.45-3.85-.61-2.2.83-5,1.39-7.5Z" transform="translate(985.02 368.31)"/><path class="cls-4" d="M-627.06,363.43c-2.37,2.81-4.55,5.81-7.13,8.4-6.6,6.61-14.11,12.45-19.9,19.69-9.18,11.49-21.32,18.86-33.33,26.44-7.68,4.84-14.51,10.29-19.29,18.57a71.42,71.42,0,0,0,7.08-3.92c13.2-9.35,26.32-18.81,39.48-28.21,8-5.74,15.94-11.72,24.27-17,4-2.55,8.88-3.77,13.36-5.6l1,1.53c-3.91,3.48-7.51,7.43-11.8,10.35-20.13,13.7-40.44,27.15-60.74,40.6A50.07,50.07,0,0,1-704.56,440c-2.32.83-5.21,0-7.84-.06.44-2.81-.11-6.57,1.5-8.26a156.08,156.08,0,0,1,18.48-16.86c8.16-6.2,17.44-11,25.34-17.48,6.26-5.16,10.81-12.34,16.76-18,6.21-5.86,13.15-10.94,19.84-16.29.63-.5,1.72-.42,2.59-.6Z" transform="translate(985.02 368.31)"/><path class="cls-4" d="M-509.51,25.26c7.22,5.35,9.82,11,8.38,18-1.13,5.46-4.7,8.86-10.38,10.1-9.93,2.16-13.38-6-18.47-11.48-10.09,7.82-11.28,13.28-5.37,24.43.18.34.38.67.57,1,8.95,15,2.76,18.14-9.13,23.41a9.5,9.5,0,0,1-11.48-2.19c-4.17-4.31-10-8-8.27-15.25,1.18-4.87,2.1-9.24-.19-14.21-1-2.1.29-5.53,1.18-8.13,1.1-3.22,3.07-6.14,4.3-9.33,2.21-5.73,1.19-7-5.4-7.71,2.25-1,5.36-3.44,6.56-2.7,2.15,1.3,4.51,4.64,4.32,6.91-.37,4.37-2.19,8.71-3.92,12.84-1.41,3.38-2.53,6.11-.86,10.09,1.25,3,.41,7.11-.17,10.62-.83,5,2.57,13,8.1,13.77,3.67.51,8-2.8,11.77-4.86.69-.38.7-3.16.16-4.47C-539.09,72.94-541,70-542.47,67c-5.23-10.62-4.29-17.24,3.67-26.06.9-1,1.83-1.95,2.77-2.91,4.53-4.57,7.66-4.35,11.74.83,1.53,1.94,2.72,4.5,4.72,5.65,2.35,1.35,6.41,2.87,7.9,1.79,2.26-1.65,3.81-5.4,4.07-8.4C-507.29,34.22-508.63,30.45-509.51,25.26Z" transform="translate(985.02 368.31)"/><path class="cls-4" d="M-796.61,432.35c4.86-2.63,10-4.9,14.53-8,14.19-9.51,28.88-17.87,45.27-22.8l1,1.61c-8.32,5.49-16.52,11.18-25,16.42-7.08,4.37-14.66,7.94-21.71,12.37-7.23,4.53-14.53,3.57-22.68,2.29,10.65-13.86,23.85-23.35,37.33-32.35,13.91-9.27,28.53-17.47,42.33-26.88,5.36-3.65,9.33-9.35,13.94-14.1,1.46-1.51,2.71-3.47,4.48-4.39,7.73-4,15.52-8,23.54-11.39,2.46-1,5.73-.16,8.43.95-8.47,4-17,7.91-25.36,12.13a19.61,19.61,0,0,0-7.1,5.44c-7.78,10.79-18.27,18.31-29.28,25.21-13.68,8.57-27.61,16.73-41.17,25.48-7.06,4.56-13.55,10-20.3,15.06C-797.8,430.41-797.21,431.38-796.61,432.35Z" transform="translate(985.02 368.31)"/><path class="cls-4" d="M-495.34,350.33c-5,2.58-10.1,4.86-14.8,7.85a81.78,81.78,0,0,0-12.89,10c-1.57,1.51-2.86,5.38-2,6.85a8.66,8.66,0,0,0,6.85,3.61c8.63-.81,17.19-2.44,25.76-3.83,2.8-.45,5.56-1.24,8.37-1.63,7.21-1,13.15.34,17.92,6.93,5.36,7.42,14,6.14,21.65,5.28,10.14-1.14,17.27-5.79,19.82-17.09,2.45-10.81,9.38-18.61,20.19-23.08s20.79-10.09,31.12-15.27c1.83-.92,3.52-2.12,5.79-3.5-8.83-6-18.28-6.37-27.74-7.5,8.08,0,16.17-.19,24.24.12a13.45,13.45,0,0,1,6.75,2.58c4.11,2.85,3.44,7.68-1.29,9.9-12.39,5.81-24.62,12-37.32,17.07-9.77,3.88-15.29,10.81-18.64,20.18-4.92,13.78-12,18.88-26.62,19.25-9,.23-17.26-.62-23.9-8.08-4.65-5.22-10.92-1.49-16.29-.76-8,1.09-15.94,3.27-23.89,5-.38.08-.75.17-1.13.22-6,.83-14.12-2.12-15.68-6.12-2.39-6.13,1-10.56,4.84-14.83,7.55-8.33,18.44-10,27.63-15Z" transform="translate(985.02 368.31)"/><path class="cls-4" d="M-917.6-263.06c-1.38,1.89-2.43,4.22-4.21,5.6-13.18,10.27-24.81,22-34.07,36a44.24,44.24,0,0,0-7.32,21.81c-.76,10.36-2.69,20.66-4.67,30.88-2.54,13.15,2.14,23.94,9.85,34,1.74,2.27,3.92,4.23,5.4,6.64,5.41,8.8,14.1,12.39,23.27,15.35,5.69,1.83,11.35,3.74,18.14,6-10.3,3-18.8,1.44-27.3-1.77-9.85-3.73-17-9.75-19.82-20.35a21.58,21.58,0,0,0-3.55-7.13c-9.18-12.36-11.47-26.23-7.54-40.69a97.94,97.94,0,0,0,3-28.29c-.19-8.15,2.55-15.05,7.14-21.81,7-10.37,14.73-20,24.56-27.71,4.86-3.81,10.22-7,15.36-10.4Z" transform="translate(985.02 368.31)"/><path class="cls-4" d="M-848.18,189.92c-13.48,13.2-22.75,29.13-30.72,46.12-12,25.64-24.11,51.22-29.65,79.25-2.13,10.79-3.54,21.73-5.44,33.64,14.29-9.13,25.64-22.49,44.14-20.94-3.7,1.78-7.62,3.22-11.07,5.39-9.6,6.05-19,12.49-28.54,18.56-1.88,1.19-4.63,2.32-6.46,1.77-1.24-.38-2.49-3.95-2.14-5.79,3.53-18.46,6-37.28,11.54-55.17C-901,274.67-892.8,257.35-885,240c6.84-15.27,13.65-30.73,25.43-43.11a108,108,0,0,1,8.92-8c.26-.21,1.53.8,2.33,1.24Z" transform="translate(985.02 368.31)"/><path class="cls-4" d="M-572.74,355.05c-9.15-6.29-18.41-12.43-27.43-18.91-29.6-21.28-61.23-38.5-97.35-45.05-16-2.9-32.53-3.08-48.84-3.46-22.27-.51-44.45,1-66.06,7.12a27.07,27.07,0,0,1-4.51.64c-.33,0-.69-.25-1-.39,15.5-11.9,99.13-13.91,130.6-5.42,43.92,11.85,80.44,36.3,115.66,63.54C-572.06,353.76-572.4,354.41-572.74,355.05Z" transform="translate(985.02 368.31)"/><path class="cls-4" d="M-757.73-146c19-7.33,41.51-1,59.41-14.38a62.27,62.27,0,0,0-35.57-10.31c-27.41.14-54.82-.59-82.23-1-.48,0-1-.25-1.51-1.44,7.64-.59,15.28-1.61,22.93-1.66,10.09-.07,20.2.93,30.3.9,11.61,0,23.22-.82,34.83-1,11.92-.23,22.61,4.49,33.07,9.4,5.79,2.71,5.54,6.67,0,10.17a60.12,60.12,0,0,1-27.27,8.88c-11.17,1-22.39,1.35-33.59,2C-757.47-145-757.6-145.49-757.73-146Z" transform="translate(985.02 368.31)"/><path class="cls-4" d="M-406.44,703.57c-16.61,9.78-33.83,13.8-51.27,17.19-18,3.5-35.88,7.45-53.91,10.71-25.86,4.69-51.68,10.06-77.76,13-20,2.25-40.29,1.82-60.43,1.31-8.84-.23-17.59-3.62-26.17-6.81,5.26.85,10.56,1.48,15.77,2.6,15.28,3.27,30.67,1.9,46.09,1.62,25.8-.47,50.79-6.08,76-10.75,33.48-6.21,67-12.05,100.41-18.75C-427.48,711.62-417.67,707.27-406.44,703.57Z" transform="translate(985.02 368.31)"/><path class="cls-4" d="M-743.81,54.05c5.35-2,10.17-4.27,15.24-5.45,2.26-.53,5.08,1,7.56,1.83,5.53,1.88,10.94,2.81,16.53,0,1-.52,4,.36,4.07.9,1.1,7.16,6.38,6.43,11.31,6.31,9-.23,11.77-4,9.41-12.91-.43-1.62-.77-3.26-1.19-5.08,5.21,2.07,9.37,9.33,8.55,14.48-.9,5.71-4.49,9.22-11.13,9.35-7.57.14-15.79,1.83-21.43-5.93-.7-1-3.08-.68-4.67-1-4.74-1.07-9.71-1.57-14.13-3.4-7.62-3.15-11.21-2.91-16.37,3.78-3.23,4.18-5.1,3.61-7.24-.68a81,81,0,0,0-4.86-8.42c-4.7-7.14-4.65-13,1.11-19.22,6.57-7.07,14-13.06,24.12-14.06,2.91-.28,5.94.69,8.92,1.09l-.09,1.69c-1,.37-2,1.06-3,1-9.81-.1-17.42,4.78-24.45,10.85-5.77,5-6.47,10.07-2.72,16.66C-746.52,48.91-744.88,52.08-743.81,54.05Z" transform="translate(985.02 368.31)"/><path class="cls-4" d="M-536.85-152.9c-7.17,1.42-14.28,3.31-21.52,4.17-10.54,1.25-21.23,2.86-31.76,2.33-16.26-.82-32.42-3.48-48.66-5-3.6-.33-7.4.74-11,1.52-2.67.57-5.23,1.72-8.11,1.93,4.39-5.71,10.4-8.79,17.27-8.44,14.78.77,29.59,1.86,44.27,3.71,13,1.64,25.74,1,38.6-.9,6.82-1,13.78-1.09,20.67-1.59Z" transform="translate(985.02 368.31)"/><path class="cls-4" d="M-969.55,666.87c-2.23-3.83-5.36-7.41-6.5-11.54-3.32-12.06-6.25-24.27-8.55-36.57-1.68-9,2-17.3,6.11-25.09a34.68,34.68,0,0,0,4.23-18,32.84,32.84,0,0,1,3-14.18c7-15.25,19.48-25,34.23-32.1a7.39,7.39,0,0,1,5.09-.28c-5,3.26-10.12,6.34-15,9.83-9.7,7-18,15.4-22.33,26.79-1.38,3.64-.41,8.11-1.06,12.11A102.17,102.17,0,0,1-973.76,593c-1.75,5.38-5.82,10.44-6.08,15.77-.42,8.52.82,17.29,2.57,25.7,2.23,10.66,5.67,21.07,8.59,31.59Z" transform="translate(985.02 368.31)"/><path class="cls-4" d="M-770.93,725.5c-17.34,4.4-34.45,2.26-50.59-3.19-16.72-5.64-32.78-13.47-48.65-21.32-13.23-6.54-25.76-14.49-38.13-23a71.36,71.36,0,0,1,7.21,2.82c12.16,6.19,24.17,12.69,36.41,18.73,21.57,10.65,43.08,21.57,67.67,23.55C-788.31,723.82-779.62,724.7-770.93,725.5Z" transform="translate(985.02 368.31)"/><path class="cls-4" d="M-425.29-181.22C-398-194.63-370.71-207.63-348-228.4l1.27,1c-2.62,4-4.78,8.4-8,11.85-8,8.64-17.91,14.54-28.47,19.53-6.32,3-12.56,6.21-18.63,9.68A38.82,38.82,0,0,1-425.29-181.22Z" transform="translate(985.02 368.31)"/><path class="cls-4" d="M-945.72-82.81c7.33-2.62,13.47,0,17.88,7.74,4.55,7.95,3.52,15.74-2.8,21.24a16.25,16.25,0,0,1-21,.3c-5.67-4.57-7.82-13.38-4.44-19.75,1.94-3.66,4.54-6.94,8.51-5.79-1.79,4.43-4.43,8.39-4.83,12.57-.44,4.61,2.44,8.89,7.59,9,3.37.11,7.59-.87,10-3,3.55-3.09,2.82-8,.07-11.5C-937.84-75.91-941.9-79.12-945.72-82.81Z" transform="translate(985.02 368.31)"/><path class="cls-4" d="M-764.69,345.54c-24.65,14.16-45,33.56-64.68,54.1l15.13-6.86.69,1.2c-4.79,3.16-9.35,6.8-14.47,9.26-2.18,1.05-5.53-.35-8.35-.65,1-2.22,1.5-5,3.1-6.6,17.75-18.11,35.89-35.8,58.08-48.54,3-1.71,6.39-2.6,9.6-3.86Z" transform="translate(985.02 368.31)"/><path class="cls-4" d="M-868.33,301.65c-5.67,3.76-11.12,8-17.13,11.08-2.61,1.35-7.32,1.73-9.35.21s-3.14-6.29-2.42-9c7.09-27.07,17.26-52.78,34.78-75a35.37,35.37,0,0,0,2.8-5l2.17,1.91c-3.16,5.23-6,10.66-9.54,15.65-12.56,17.85-18.88,38.42-25.62,58.79-.94,2.84-.05,6.28,0,9.45,3-.68,6.12-1,8.91-2.11,5-2.08,9.83-4.69,14.73-7.07Z" transform="translate(985.02 368.31)"/><path class="cls-4" d="M-413.45,720.66c4.52-1.9,9-4,13.56-5.67,27.57-10.15,51.91-25.42,72-46.93,5.44-5.82,9.14-13.27,13.64-20-.53,2-.59,4.79-1.88,6.75-5.21,7.86-9.76,16.58-16.46,22.95C-349.63,694-369.13,707-391.24,715.4c-7,2.67-14.41,4.31-21.63,6.42Z" transform="translate(985.02 368.31)"/><path class="cls-4" d="M-917.94,474.69c-.54,2.71-1.11,4.15-1.07,5.57.15,4.46,0,8.74,5,11.61,3,1.7,4.79,5.49,7.11,8.35.1.13,0,.38.09.56,6.69,19.7,9.07,17.89,26.6,19.64,2.18.22,4.37.29,6.56.43l.54,1.71c-1.28.82-2.59,2.39-3.84,2.34-6.45-.24-13.07-.09-19.26-1.59-8.61-2.08-11.5-10-14-17.42-1.65-4.82-3.45-8.67-8.51-11.23C-924.81,491.59-924.7,480.27-917.94,474.69Z" transform="translate(985.02 368.31)"/><path class="cls-4" d="M-589.86,389.81c-5.26,13-19.8,16-24,29.13l9.49-.72.74,1.61c-4.83,2.73-9.51,5.79-14.55,8.07-3,1.34-5.41-1.64-4.63-4.77,3.83-15.3,14.81-24.3,27.6-31.7C-594,390.74-592.49,390.59-589.86,389.81Z" transform="translate(985.02 368.31)"/><path class="cls-4" d="M-902.46-47.87c6.12,2.23,9.1,8.83,7.79,14.88A13.77,13.77,0,0,1-909.2-22a12.31,12.31,0,0,1-11.46-12c-.3-7.81,4.55-14.06,12-15.36-2.17,3.19-4.43,6.22-6.36,9.44-2.07,3.47-1.19,7.09,1.82,9.13,1.77,1.2,5.76,1.55,7.13.37a16.24,16.24,0,0,0,4.59-8.35C-900.85-41.3-902-44.25-902.46-47.87Z" transform="translate(985.02 368.31)"/><path class="cls-4" d="M-459.63,443.9l51.07-58.74,1.72,1.45c-6.76,8.93-13.36,18-20.31,26.76s-13.91,17.21-21.21,25.5c-2.55,2.9-6.11,4.89-9.21,7.3C-458.25,445.41-458.94,444.66-459.63,443.9Z" transform="translate(985.02 368.31)"/><path class="cls-4" d="M-923.73-199.06c5.79.2,8.35,3.5,8.1,8.46-.33,6.48-8.58,15.83-15,16.41a6.87,6.87,0,0,1-4.92-2.19c-.77-.85-.68-3.18-.11-4.46a137.59,137.59,0,0,1,7.44-14.69C-927.06-197.38-924.59-198.4-923.73-199.06Z" transform="translate(985.02 368.31)"/><path class="cls-4" d="M-902.51-86.6c.62-.41,1.28-1.24,1.84-1.17,5.68.71,11.12,9.38,9.77,15.4-1.32,5.86-9,10.05-14.84,8.17-6.68-2.14-11-10.31-9-17,1.49-5,5.1-6.57,12.41-5.4-9.43,3.1-11.42,7-6.69,13.41,2.14,2.89,4.85,4,8.38,2.21s3.73-4.65,2.47-7.69A79.23,79.23,0,0,0-902.51-86.6Z" transform="translate(985.02 368.31)"/><path class="cls-4" d="M-666.27,552.44c3.93-1,7.84-2.64,11.81-2.83,2.18-.1,4.93,1.76,6.63,3.52,5.64,5.82,13.21,6.84,20.29,7.19,4.28.21,8.75-3.52,13.17-5.41,1.19-.51,2.62-1.26,3.73-1,6.95,1.65,13.83,3.56,20.71,5.71-6.64-1.71-13.43,3.16-20.39-1.43-1.85-1.22-6.64,2.24-10.15,3.31s-7.32,3.14-10.44,2.39c-7.1-1.71-15.19-2.09-19.61-9.86-.71-1.23-3.85-1.56-5.82-1.46a83.94,83.94,0,0,0-9.76,1.56C-666.16,553.57-666.21,553-666.27,552.44Z" transform="translate(985.02 368.31)"/><path class="cls-4" d="M-406.28,582c2,2.1,5.46,4,5.71,6.33.23,2.12-2.45,5.35-4.67,6.82A30.08,30.08,0,0,1-427,599.58c-3.13-.53-7.12-3.35-8.33-6.17-1.77-4.1,1.5-7.84,5.28-9.57,3.47-1.6,7.47-2,11.24-3,.15.55.31,1.1.46,1.65-2.7.78-5.77,1-8,2.49-2.36,1.6-3.91,4.42-5.81,6.7,2.37,1.2,4.82,3.53,7.08,3.35a67.79,67.79,0,0,0,15.9-3.32c4.4-1.46,6.62-4.43.85-8.53Z" transform="translate(985.02 368.31)"/><path class="cls-4" d="M-333.42,538.25c14.61,5.37,21.92,16,22.92,29.86a38.32,38.32,0,0,0,5.05,15.44c3.6,6.4,4.91,12.61,2.71,19.6-2.08,6.65-4.08,13.33-6.11,20l-1.47-.07c0-2.21-.43-4.52.08-6.6a131.71,131.71,0,0,1,4.2-13.59c2.33-6.33,2.36-12.47-1.87-17.86-5.25-6.68-4.79-14.66-5.82-22.31-.92-6.85-3.92-12.07-9.87-15.85C-326.9,544.77-329.57,541.68-333.42,538.25Z" transform="translate(985.02 368.31)"/><path class="cls-4" d="M-333.85,428.87c1.16,7-4.21,13.8-12.26,16.14-6.86,2-13.9,3.38-20.87,5-4.76,1.11-9.5,2.31-14.3,3.16-2.24.4-4.61.07-6.92.07-.1-.62-.21-1.24-.31-1.86,8.08-1.82,16.09-4,24.23-5.37C-352.3,444-341.8,439.63-333.85,428.87Z" transform="translate(985.02 368.31)"/><path class="cls-4" d="M-783.23-40.27a403.58,403.58,0,0,0,85.93,28C-728.34-14.41-756.39-25.53-783.23-40.27Z" transform="translate(985.02 368.31)"/><path class="cls-4" d="M-805.65-141.84c-14.8,5.55-29.18-1.74-44.18,3.45C-843.86-147.28-818.35-148.67-805.65-141.84Z" transform="translate(985.02 368.31)"/><path class="cls-4" d="M-663.41,64.68C-661.34,50.75-652.7,40-646,28.31-643.6,44.33-655.26,53.67-663.41,64.68Z" transform="translate(985.02 368.31)"/><path class="cls-4" d="M-557.62,497.73c-1.83,1.24-3.49,3.06-5.5,3.6-4.18,1.14-9,3.13-12.75,2.05-11.33-3.21-22.3-7.72-33.4-11.76a29.81,29.81,0,0,1-3.34-1.68c.13-.57.25-1.15.38-1.73,6.62,1.33,13.35,2.28,19.83,4.11a60.37,60.37,0,0,1,12.93,5.74c5.49,3.09,10.61,3.29,16-.1,1.52-1,3.54-1.12,5.34-1.65C-558,496.78-557.79,497.26-557.62,497.73Z" transform="translate(985.02 368.31)"/><path class="cls-4" d="M-360.7,462.19c-1.28,2-3.07,3.74-3.51,5.77s-.38,5.07.8,6.67c7.35,10,7.2,13.83-2.68,21.14-3.43,2.53-7.81,3.77-11.76,5.6l-1-1.81c3.85-3,7.68-6,11.56-8.95,6.34-4.83,6.5-6.53,1.12-12.77C-371.72,471.42-369.29,464.21-360.7,462.19Z" transform="translate(985.02 368.31)"/><path class="cls-4" d="M-454.74,600.79-468,609.66l1,1.86,14-5.37,1.27.79c-1.09,1.82-1.84,4-3.33,5.4-4.27,4-9.69,4.59-15,3.27-1.54-.38-3.66-3.84-3.33-5.42C-472.07,604-459.7,598.63-454.74,600.79Z" transform="translate(985.02 368.31)"/><path class="cls-4" d="M-372.17-268.3c-3.7-1.73-6.81-2.53-8.92-4.44-1.33-1.2-1.74-4.17-1.44-6.18.22-1.46,1.72-4.33,4.38-1.59.06.06.95-1,1.51-1.1,2.52-.28,5.8-1.42,7.38-.28,1.82,1.32,3.3,5,2.78,7.15C-367-272.36-370-270.56-372.17-268.3Z" transform="translate(985.02 368.31)"/><path class="cls-4" d="M-710.41-258.88c7.15.43,13.64,1.06,17.92,7.18.76,1.09,1.31,3.12.79,4.07s-2.5,1.48-3.86,1.5C-704.14-246-710.28-251-710.41-258.88Z" transform="translate(985.02 368.31)"/><path class="cls-4" d="M-535-212.49c-8.07,6.68-18.24,7.2-22.89,1.17C-552-217.46-542.73-217.94-535-212.49Z" transform="translate(985.02 368.31)"/><path class="cls-4" d="M-479.28-262.22c-5.54,9.29-17.64,12-24.44,5.34C-496.16-261.38-488.37-262.9-479.28-262.22Z" transform="translate(985.02 368.31)"/><path class="cls-4" d="M-903.32-164.5c-.58,5.8-2.37,10.89-7.11,14.73-2.54,2.05-5.12,1-5.16-1.38a24.25,24.25,0,0,1,2.43-11.13C-911.34-165.84-907.57-166.41-903.32-164.5Z" transform="translate(985.02 368.31)"/><path class="cls-4" d="M-777.66-240.65c-5.83-5.93-4.08-17.51,2.82-20.39C-769.34-253.77-770.2-246.8-777.66-240.65Z" transform="translate(985.02 368.31)"/><path class="cls-4" d="M-425.91,615.37l-9.16,6.49h13.78c-3.44,5.37-10.41,8.09-15.19,6.28-4.49-1.69-5.7-5.89-1.9-8.7,3.44-2.53,7.8-3.82,11.75-5.65Z" transform="translate(985.02 368.31)"/><path class="cls-4" d="M-411.29-261.26c.1-6.92,2.19-8.25,6-5.51a27.26,27.26,0,0,1,7.22,7.54c.76,1.26-.34,4.42-1.58,5.85-.64.75-4,.25-5.15-.77A65.75,65.75,0,0,1-411.29-261.26Z" transform="translate(985.02 368.31)"/><path class="cls-4" d="M-906.66,688c-18-9.89-39.35-16.2-43.73-41.1C-944.53,670.25-922.19,675.31-906.66,688Z" transform="translate(985.02 368.31)"/><path class="cls-4" d="M-619.85,663.49c-7.58,9.24-16.58,15.57-27.25,20.44C-645.62,677.68-626.43,663.17-619.85,663.49Z" transform="translate(985.02 368.31)"/><path class="cls-4" d="M-891.47-254.85c-3.88,14.12-5.5,15.76-12.8,15.43-1.3-5.31.27-9.9,4.53-13C-897.54-254-894.27-254.08-891.47-254.85Z" transform="translate(985.02 368.31)"/><path class="cls-4" d="M-646.81-279.67c3.39,7.23.56,13.79-6.38,15.37-1.24.29-3.22,0-3.91-.77a4.6,4.6,0,0,1-.61-4.15C-655.28-273.68-652.86-278.38-646.81-279.67Z" transform="translate(985.02 368.31)"/><path class="cls-4" d="M-450.53,82l19.92,20.73C-442.75,100.15-452,90.61-450.53,82Z" transform="translate(985.02 368.31)"/><path class="cls-4" d="M-632.81,32.59c-4.28,10.1-8.55,20.2-13.27,31.35-2.47-7.2,5.19-27.25,11.21-32.09Z" transform="translate(985.02 368.31)"/><path class="cls-4" d="M-856,577.19c-10.41,10-23.18,16.35-35.91,22.73l-1-1.54,35.63-22.86Z" transform="translate(985.02 368.31)"/><path class="cls-4" d="M-414-310.87c5.71,2.36,9.84,5.33,11.1,10.78.39,1.66-.86,3.7-1.36,5.57-1.64-.47-3.69-.48-4.83-1.5C-413.33-299.76-416.59-304-414-310.87Z" transform="translate(985.02 368.31)"/><path class="cls-4" d="M-734.22-289.92c0,9.27-3.83,15.44-10.15,17.51-2.4-5.25-1.16-10.14,2.31-14.1C-740.47-288.32-737.23-288.68-734.22-289.92Z" transform="translate(985.02 368.31)"/><path class="cls-4" d="M-621.2-296.63c5.88,1.41,11.05,2.21,15.87,4,3.22,1.18,2.75,3.78-.06,5.48C-611.81-283.31-620-287.4-621.2-296.63Z" transform="translate(985.02 368.31)"/><path class="cls-4" d="M-891.46-227.46c-1.6,9.79-6.07,15.17-12.53,15.39C-905.23-220.56-900.15-227-891.46-227.46Z" transform="translate(985.02 368.31)"/><path class="cls-4" d="M-437.38,72.31c13.55,7.9,17.88,12.12,19.55,19C-428.71,87.43-436.18,80.16-437.38,72.31Z" transform="translate(985.02 368.31)"/><path class="cls-4" d="M-742.17-251.44c3.29,4.94,6.26,9.43,9.53,14.35-6,2.52-9.39.57-12-3S-747-247.13-742.17-251.44Z" transform="translate(985.02 368.31)"/><path class="cls-4" d="M-875.72-148.95c-5-3.76-5.71-11.89-1.46-15.33,1.08-.87,2.88-1.71,4-1.39.89.24,1.65,2.27,1.82,3.59C-870.69-157.2-871.16-152.56-875.72-148.95Z" transform="translate(985.02 368.31)"/><path class="cls-4" d="M-429-246.68c8.66,5.16,9.72,11.31,3.19,16.7C-431.73-234.57-433.06-241-429-246.68Z" transform="translate(985.02 368.31)"/><path class="cls-4" d="M-784.86-285.82c7.55-4.19,16.44-3.86,21.11.57C-768.83-280.45-779.1-280.55-784.86-285.82Z" transform="translate(985.02 368.31)"/><path class="cls-4" d="M-672.9-190.7c-.13-5.19,3.23-7.75,6.86-9,2.72-.92,6.1.13,9.9.35C-660.44-191.71-665.19-189.48-672.9-190.7Z" transform="translate(985.02 368.31)"/><path class="cls-4" d="M-806.26-273c-5.55,7.84-10.77,9.64-19.19,6.89C-822.61-271.58-812-275.54-806.26-273Z" transform="translate(985.02 368.31)"/><path class="cls-4" d="M-887.32-191.86c-2.13-6.43-.12-10.11,3.93-11.87,2.5-1.09,5.88-.18,8.86-.17.28,1,.56,2,.83,3Z" transform="translate(985.02 368.31)"/><path class="cls-4" d="M-555.33,549.94c8.84-1.89,16.32-6.23,25.23-2.9C-536.39,552-549.55,553.81-555.33,549.94Z" transform="translate(985.02 368.31)"/><path class="cls-4" d="M-610.14-231c-.15,5.48-2,9.55-6.65,11.87-2.3,1.14-4.19.75-4.21-2.33C-621-226.69-616.21-231.13-610.14-231Z" transform="translate(985.02 368.31)"/><path class="cls-4" d="M-800.67-49.4C-809.88-53-820.54-65.45-820.48-72Z" transform="translate(985.02 368.31)"/><path class="cls-4" d="M-598.21-189.81c-6,3.22-11.94.54-13.46-6.05C-604.57-197.86-601.42-196.45-598.21-189.81Z" transform="translate(985.02 368.31)"/><path class="cls-4" d="M-870,604.81l19-18.43,2.06,2.22-19.56,17.84Z" transform="translate(985.02 368.31)"/><path class="cls-4" d="M-501.91-304.41c-4.84,5-9.6,5.16-14.45.61C-511.61-307.65-507-307.17-501.91-304.41Z" transform="translate(985.02 368.31)"/><path class="cls-4" d="M-435.74-283.91v10.21c-1.15-.18-2.93.05-3.35-.6-2.19-3.39-2.9-6.85.56-9.68Z" transform="translate(985.02 368.31)"/><path class="cls-4" d="M-442-223.42c-.71,3.23-1.41,6.47-2.12,9.71-1.27-.48-3.47-.74-3.64-1.48-.86-3.7-.39-7.16,3.61-8.84Z" transform="translate(985.02 368.31)"/><path class="cls-4" d="M-611.07,677.1l10.77-10.77,1.59,1.68-11,10.51Z" transform="translate(985.02 368.31)"/><path class="cls-4" d="M-875.61,511.7a82.92,82.92,0,0,1-9.16-2.31c-.45-.17-.06-2.71-.06-4.48l9.8,4.78C-875.22,510.36-875.42,511-875.61,511.7Z" transform="translate(985.02 368.31)"/><path class="cls-4" d="M-877.74,710.73l-14.1-6.91c.34-.68.68-1.35,1-2l13.77,7.58Z" transform="translate(985.02 368.31)"/><path class="cls-4" d="M-423,66.19l10.16,9.25L-414,76.93-424.68,68Z" transform="translate(985.02 368.31)"/><path class="cls-4" d="M-544.86-84.29c-3.57,6.38-1.44,8.54,3.89,8.72,1.1,0,2.17.63,3.28.78,5.29.67,8.42,3.3,8,9-.35,4.56,1.86,6.36,6.12,6A39.65,39.65,0,0,0-516.88-61c6.16-1.69,11.51-1.62,16.88,3.14,4.53,4,11,5.79,15.57,9.8C-477-41.48-478.9-33.2-488.15-30a52,52,0,0,1-28.56,1.31c-5-1.08-9.93-2.48-15-3.13-3.23-.42-5-1.5-5.07-4.81,0-4.06-2.29-6.29-5.94-7.41-7.2-2.21-14.43-4.32-21.61-6.63-10.64-3.42-20.66-7.91-25.89-18.74a50.42,50.42,0,0,1-4.46-12.78c-.65-3.68,1.17-7.06,5.76-6.63C-574.61-87.46-560.34-85.9-544.86-84.29Zm-43.1-.54c.88,9.53,5.08,15.63,10.53,20.58,7.34,6.66,16.81,8.88,26.13,11.61,6.52,1.91,14.91,4.35,18,9.34,3.45,5.61,7.25,6.55,12.21,7.66,1.84.41,3.63,1,5.48,1.4,8.87,1.73,17.68,1.94,26.32-1.24,3.23-1.19,5.33-2.86,3.67-6.83-2.92-6.95-19-16.17-26.4-15.14a96,96,0,0,1-12.43,1c-6.29.07-8.78-2.27-8.61-8.47.12-4.24-1.82-5.87-5.53-6.44a47,47,0,0,1-7.22-1.4c-3.55-1.13-7.14-2.52-4.76-7.65Z" transform="translate(985.02 368.31)"/><path class="cls-4" d="M-418.78-59.4C-412.51-58-406-57.2-400-55.1A211.77,211.77,0,0,1-374.9-44.54c8.12,4.07,9.57,7.81,6.3,16.27a70.53,70.53,0,0,1-9.08,16.41c-3.42,4.61-9.12,5.19-14.6,4.59-6.23-.68-12.41-1.87-18.66-2.37-1.28-.11-3.51,1.53-4,2.84-2.29,6.33-5.74,7.75-11.16,3.67a126.11,126.11,0,0,1-14.38-12.08c-1.89-1.92-2.39-5.37-3.12-8.23-.36-1.4.73-3.24.24-4.52-1.91-5,.67-5.44,4.64-5.45,6.37,0,12.64-8.31,11.11-14.34C-430.09-57.52-429.19-58.65-418.78-59.4Zm-3.55,51.1c3-7.36,4.93-8.58,12.56-7.69,4.14.49,8.21,1.58,12.35,1.86,5.57.38,11.82,2.33,16.23-2.51,3.13-3.43,5.38-7.84,7.38-12.12,3.74-7.94,2.23-11-6.1-13.79-6.78-2.29-13.47-5-20.38-6.77-7.3-1.91-14.81-3-23-4.6,1.5,7.17,5,12.88-1.86,17-4.77,2.89-9.49,5.86-15,9.26.71,1.9,1.06,5.85,3.21,8C-432.72-15.42-427.48-12.19-422.33-8.3Z" transform="translate(985.02 368.31)"/><path class="cls-4" d="M-711.56-102.94c-6.22,11.12-20,15.83-24.36,29.2,4.86,1.17,9.66,2.6,14.57,3.45s7.8,3.53,9.68,7.82c2.24,5.11,6,7.76,11.64,8.75,6.65,1.18,13.19,3.12,19.72,4.94,4.69,1.3,8.48.34,11.86-3.26,3.14-3.34,2.72-6.82,1.29-10.62-2.2-5.83-4.62-11.61-6.37-17.59-2.5-8.56.77-18.52,7.95-23.68,0,3.08.52,5.66-.09,7.94a38.84,38.84,0,0,0,1.46,25.61c4.87,12.19,1,22.34-9.34,24.43-4.45.91-9.48-1.18-14.27-1.8-4.08-.53-8.2-1.33-12.28-1.24-8.41.19-13.11-2-16.3-9.67-2.17-5.22-6.58-5.77-10.9-6.84-2.75-.68-5.65-.76-8.41-1.39-5.64-1.29-7.91-5.92-5.07-10.84C-734-89.47-723.39-96.9-711.56-102.94Z" transform="translate(985.02 368.31)"/><path class="cls-4" d="M-778.81-88c7.52-3,15.07-5.8,23.31-3.18.11.76.22,1.51.32,2.26l-23.22,3.42C-778.54-86.37-778.67-87.21-778.81-88Z" transform="translate(985.02 368.31)"/><path class="cls-4" d="M-770.81-77.48c6.39-3.9,10.94-7.85,18.45-6C-757.47-78.17-762.84-76.58-770.81-77.48Z" transform="translate(985.02 368.31)"/><path class="cls-4" d="M-502.38-49.73c-3.91,5.63-7.48,6.4-14.74,1.77l14.16-3.8C-502.76-51.08-502.57-50.41-502.38-49.73Z" transform="translate(985.02 368.31)"/></g></g></svg>