<svg xmlns="http://www.w3.org/2000/svg" xmlns:xlink="http://www.w3.org/1999/xlink" viewBox="0 0 750 837.02"><defs><style>.cls-1,.cls-24,.cls-25,.cls-27,.cls-29,.cls-30,.cls-32{fill:none;}.cls-2{isolation:isolate;}.cls-11,.cls-13,.cls-3,.cls-35,.cls-46,.cls-5,.cls-6{fill:#e1ad01;}.cls-3{opacity:0.3;}.cls-4{clip-path:url(#clip-path);}.cls-45,.cls-5{opacity:0.49;}.cls-6{opacity:0.52;}.cls-14,.cls-15,.cls-22,.cls-33,.cls-7{mix-blend-mode:multiply;}.cls-14,.cls-8{fill:#c5c6ee;}.cls-9{clip-path:url(#clip-path-2);}.cls-10,.cls-40{fill:#fff;}.cls-11{opacity:0.08;}.cls-12,.cls-19{fill:#f6445e;}.cls-12{opacity:0.1;}.cls-13{opacity:0.15;}.cls-15{opacity:0.21;}.cls-16{fill:#34346b;}.cls-17{fill:#9492dc;}.cls-18,.cls-33{fill:#ffde40;}.cls-20{fill:#252f47;}.cls-21,.cls-22{fill:#313f5e;}.cls-22{opacity:0.5;}.cls-23{fill:#e5e8fa;}.cls-24,.cls-25{stroke:#34346b;}.cls-24,.cls-25,.cls-27,.cls-29,.cls-30,.cls-32{stroke-linecap:round;stroke-miterlimit:10;}.cls-24,.cls-27,.cls-29{stroke-width:0.74px;}.cls-25,.cls-30{stroke-width:0.5px;}.cls-26{fill:#e2e9fc;}.cls-27{stroke:#9492dc;}.cls-28{fill:#fffffd;}.cls-29,.cls-30{stroke:#e5e8fa;}.cls-31{clip-path:url(#clip-path-3);}.cls-32{stroke:#313f5e;stroke-width:5.1px;}.cls-34{clip-path:url(#clip-path-4);}.cls-35{font-size:23.24px;font-family:Montserrat-SemiBold, Montserrat;font-weight:600;}.cls-36{letter-spacing:-0.02em;}.cls-37{letter-spacing:-0.01em;}.cls-38{letter-spacing:0em;}.cls-39{letter-spacing:-0.01em;}.cls-40{font-size:9.63px;font-family:Montserrat-Regular, Montserrat;}.cls-41{letter-spacing:-0.02em;}.cls-42{letter-spacing:0em;}.cls-43{letter-spacing:0.01em;}.cls-44{letter-spacing:0em;}</style><clipPath id="clip-path" transform="translate(0 159.97)"><rect class="cls-1" width="750" height="500"/></clipPath><clipPath id="clip-path-2" transform="translate(0 159.97)"><rect class="cls-1" x="81.25" y="47.48" width="592.55" height="385.38"/></clipPath><clipPath id="clip-path-3" transform="translate(0 159.97)"><path class="cls-1" d="M355.16,221.26,617.48,279v23.71a3.83,3.83,0,0,1-4.62,3.75l-259-54.44a3.14,3.14,0,0,1-2.5-3.07V224.32A3.14,3.14,0,0,1,355.16,221.26Z"/></clipPath><clipPath id="clip-path-4" transform="translate(0 159.97)"><path class="cls-1" d="M613.54,251.28,353.83,308.47a2.59,2.59,0,0,0-2,2.53v23.18a2.57,2.57,0,0,0,3.11,2.52L615.06,282a3.63,3.63,0,0,0,2.89-3.55V254.83A3.63,3.63,0,0,0,613.54,251.28Z"/></clipPath></defs><g class="cls-2"><g id="BACKGROUND"><rect class="cls-3" y="159.97" width="750" height="500"/><g class="cls-4"><path class="cls-5" d="M253.88-159.24l-128.7,15a124.1,124.1,0,0,0-105.69,92h0A169,169,0,0,0,67.21,113.5h0a109,109,0,0,0,129.38,14.94L335.21,48.11a109,109,0,0,0,54.36-94.73h0A109,109,0,0,0,315.45-149.5l-14-4.74A109.14,109.14,0,0,0,253.88-159.24Z" transform="translate(0 159.97)"/><path class="cls-6" d="M197.65,579.5l97.72,73.83a117.3,117.3,0,0,0,132.27,6.28h0a159.78,159.78,0,0,0,75.72-144.38h0a103,103,0,0,0-78.58-94.74L277.61,384.75a103,103,0,0,0-99,29.16h0A103,103,0,0,0,162,532.6L168.45,545A103.2,103.2,0,0,0,197.65,579.5Z" transform="translate(0 159.97)"/></g></g><g id="OBJECTS"><g class="cls-7"><path class="cls-8" d="M721,71V59a3.55,3.55,0,0,0-3.55-3.55h-4.08a2.19,2.19,0,0,1-2.12-1.74c-.08-.34-.15-.67-.23-1a2.17,2.17,0,0,1,1-2.42l3.68-2.13A3.55,3.55,0,0,0,717,43.32l-6-10.4a3.54,3.54,0,0,0-4.84-1.3l-3.09,1.78a2.17,2.17,0,0,1-2.66-.38c-.32-.34-.64-.68-1-1a2.17,2.17,0,0,1-.31-2.59l1.06-1.84a5.15,5.15,0,0,0-1.89-7l-7.59-4.39A5.17,5.17,0,0,0,683.65,18l-.5.87a3.11,3.11,0,0,1-3.53,1.44h0a3.13,3.13,0,0,1-2.3-3V13.8A2.85,2.85,0,0,0,674.43,11H661a2.86,2.86,0,0,0-2.85,2.85v3.56a3.06,3.06,0,0,1-2.25,2.95h0a3,3,0,0,1-3.46-1.42l-2.06-3.56a2.49,2.49,0,0,0-3.41-.91l-12.22,7.05a2.5,2.5,0,0,0-.91,3.41l2.58,4.47a2.15,2.15,0,0,1-.36,2.58l-.75.77a2.13,2.13,0,0,1-2.63.41L628.91,31a3.56,3.56,0,0,0-4.85,1.3l-6,10.4a3.55,3.55,0,0,0,1.29,4.85l4.16,2.4a2.13,2.13,0,0,1,1,2.4l-.18.7a2.14,2.14,0,0,1-2.08,1.68H618A4.27,4.27,0,0,0,613.68,59V69.51A4.27,4.27,0,0,0,618,73.78h4.77a2.15,2.15,0,0,1,2.06,1.6c0,.12.07.24.1.36a2.15,2.15,0,0,1-1,2.48l-4.31,2.49A4.27,4.27,0,0,0,618,86.54l5.27,9.14a4.27,4.27,0,0,0,5.84,1.57l4.57-2.64a2.14,2.14,0,0,1,2.6.37l.09.08a2.16,2.16,0,0,1,.37,2.61l-2.35,4.08a5.05,5.05,0,0,0,1.85,6.9l7.79,4.5a5.06,5.06,0,0,0,6.9-1.85l2.34-4a2.14,2.14,0,0,1,2.45-1h0a2.14,2.14,0,0,1,1.6,2.07v4.87a5.06,5.06,0,0,0,5.06,5h9a5,5,0,0,0,5-5v-4.46a2.21,2.21,0,0,1,1.7-2.12h.06a2.18,2.18,0,0,1,2.44,1l2.33,4a5.05,5.05,0,0,0,6.9,1.85l7.8-4.5a5,5,0,0,0,1.84-6.9l-2-3.43A2.2,2.2,0,0,1,698,96l.23-.22a2.19,2.19,0,0,1,2.6-.32l4.9,2.83a3.56,3.56,0,0,0,4.85-1.3l6-10.4a3.55,3.55,0,0,0-1.3-4.85l-4.12-2.38a2.17,2.17,0,0,1-1-2.57l.2-.65a2.18,2.18,0,0,1,2.08-1.58h4.94A3.55,3.55,0,0,0,721,71ZM702,59.8a34.43,34.43,0,1,1-30.74-30.74A34.44,34.44,0,0,1,702,59.8Z" transform="translate(0 159.97)"/></g><g class="cls-9"><rect class="cls-10" x="81.25" y="207.45" width="592.55" height="385.38"/><path class="cls-11" d="M424.93,367.18H542.69a112.78,112.78,0,0,0,105.1-71.86h0a153.62,153.62,0,0,0-25.6-154.65h0A99.07,99.07,0,0,0,507,113.55L373.38,171.44a99.08,99.08,0,0,0-59.06,79.77h0A99.09,99.09,0,0,0,370.37,351.9l12.17,5.75A99,99,0,0,0,424.93,367.18Z" transform="translate(0 159.97)"/><path class="cls-12" d="M253.88-159.24l-128.7,15a124.1,124.1,0,0,0-105.69,92h0A169,169,0,0,0,67.21,113.5h0a109,109,0,0,0,129.38,14.94L335.21,48.11a109,109,0,0,0,54.36-94.73h0A109,109,0,0,0,315.45-149.5l-14-4.74A109.14,109.14,0,0,0,253.88-159.24Z" transform="translate(0 159.97)"/><path class="cls-13" d="M197.65,579.5l97.72,73.83a117.3,117.3,0,0,0,132.27,6.28h0a159.78,159.78,0,0,0,75.72-144.38h0a103,103,0,0,0-78.58-94.74L277.61,384.75a103,103,0,0,0-99,29.16h0A103,103,0,0,0,162,532.6L168.45,545A103.2,103.2,0,0,0,197.65,579.5Z" transform="translate(0 159.97)"/><ellipse class="cls-14" cx="484.97" cy="536.26" rx="122.76" ry="3.99"/><ellipse class="cls-14" cx="484.97" cy="536.26" rx="69.13" ry="2.25"/><g class="cls-15"><path class="cls-16" d="M384.45,183.69v-7.25a2.14,2.14,0,0,0-2.15-2.14h-2.46a1.31,1.31,0,0,1-1.28-1.05c-.05-.2-.09-.4-.14-.6a1.31,1.31,0,0,1,.61-1.46l2.22-1.29A2.14,2.14,0,0,0,382,167l-3.62-6.28a2.15,2.15,0,0,0-2.93-.78L373.62,161a1.28,1.28,0,0,1-1.6-.23l-.59-.61a1.3,1.3,0,0,1-.19-1.56l.64-1.11a3.12,3.12,0,0,0-1.14-4.26l-4.58-2.65a3.11,3.11,0,0,0-4.26,1.15l-.3.52a1.88,1.88,0,0,1-2.13.87h0a1.89,1.89,0,0,1-1.38-1.82v-2.12a1.72,1.72,0,0,0-1.72-1.72h-8.09a1.72,1.72,0,0,0-1.72,1.72v2.15a1.85,1.85,0,0,1-1.36,1.78h0a1.84,1.84,0,0,1-2.08-.86l-1.25-2.15a1.5,1.5,0,0,0-2.06-.55l-7.37,4.26a1.5,1.5,0,0,0-.55,2.06l1.55,2.69a1.29,1.29,0,0,1-.21,1.56l-.45.47a1.29,1.29,0,0,1-1.59.24l-2.27-1.3a2.12,2.12,0,0,0-2.92.78l-3.63,6.28a2.13,2.13,0,0,0,.79,2.92L325.6,171a1.29,1.29,0,0,1,.59,1.45c0,.14-.07.28-.1.43a1.3,1.3,0,0,1-1.26,1h-2.59a2.58,2.58,0,0,0-2.58,2.58v6.37a2.59,2.59,0,0,0,2.58,2.58h2.88a1.3,1.3,0,0,1,1.24,1l.06.22a1.3,1.3,0,0,1-.58,1.5l-2.6,1.5a2.57,2.57,0,0,0-.95,3.52l3.19,5.52a2.57,2.57,0,0,0,3.52.94l2.76-1.59a1.3,1.3,0,0,1,1.57.22l.05.05a1.32,1.32,0,0,1,.23,1.58l-1.42,2.46a3,3,0,0,0,1.11,4.16l4.71,2.72a3,3,0,0,0,4.16-1.12l1.41-2.43a1.31,1.31,0,0,1,1.48-.6h0a1.3,1.3,0,0,1,1,1.25v2.94a3,3,0,0,0,3,3h5.44a3.06,3.06,0,0,0,3-3v-2.69a1.33,1.33,0,0,1,1-1.28h0a1.34,1.34,0,0,1,1.48.61l1.4,2.44a3.06,3.06,0,0,0,4.17,1.11l4.7-2.71a3.06,3.06,0,0,0,1.12-4.17l-1.2-2.07a1.34,1.34,0,0,1,.26-1.64l.15-.13a1.3,1.3,0,0,1,1.56-.19l3,1.7a2.14,2.14,0,0,0,2.93-.78l3.62-6.28a2.14,2.14,0,0,0-.78-2.92l-2.49-1.44a1.32,1.32,0,0,1-.59-1.55l.12-.39a1.33,1.33,0,0,1,1.26-1h3A2.14,2.14,0,0,0,384.45,183.69ZM373,176.93a20.78,20.78,0,1,1-18.55-18.56A20.78,20.78,0,0,1,373,176.93Z" transform="translate(0 159.97)"/></g><path class="cls-17" d="M383,180.83v-7.25a2.14,2.14,0,0,0-2.14-2.14h-2.46a1.31,1.31,0,0,1-1.28-1.05c-.05-.2-.09-.41-.14-.61a1.32,1.32,0,0,1,.61-1.46l2.22-1.28a2.15,2.15,0,0,0,.78-2.93L377,157.84a2.14,2.14,0,0,0-2.93-.79l-1.86,1.08a1.3,1.3,0,0,1-1.6-.23l-.59-.61a1.3,1.3,0,0,1-.19-1.56l.64-1.11a3.12,3.12,0,0,0-1.14-4.26l-4.58-2.65a3.12,3.12,0,0,0-4.26,1.14l-.31.53a1.87,1.87,0,0,1-2.12.87h0a1.88,1.88,0,0,1-1.38-1.82V146.3a1.72,1.72,0,0,0-1.72-1.72h-8.09a1.72,1.72,0,0,0-1.72,1.72v2.15a1.85,1.85,0,0,1-1.36,1.78h0a1.84,1.84,0,0,1-2.09-.85l-1.24-2.15a1.5,1.5,0,0,0-2.06-.55l-7.37,4.25a1.51,1.51,0,0,0-.55,2.06l1.55,2.7a1.29,1.29,0,0,1-.21,1.56l-.45.46a1.3,1.3,0,0,1-1.59.25l-2.27-1.31a2.13,2.13,0,0,0-2.92.79l-3.63,6.28a2.13,2.13,0,0,0,.79,2.92l2.5,1.45a1.28,1.28,0,0,1,.6,1.45c0,.14-.07.28-.1.42a1.3,1.3,0,0,1-1.26,1h-2.59a2.57,2.57,0,0,0-2.58,2.58v6.37a2.58,2.58,0,0,0,2.58,2.58h2.88a1.29,1.29,0,0,1,1.24,1l.06.22a1.29,1.29,0,0,1-.58,1.49l-2.61,1.51a2.58,2.58,0,0,0-.94,3.52l3.19,5.52a2.58,2.58,0,0,0,3.52.94l2.76-1.59a1.29,1.29,0,0,1,1.57.22l.05,0a1.32,1.32,0,0,1,.23,1.58l-1.42,2.46a3,3,0,0,0,1.11,4.16l4.71,2.72a3,3,0,0,0,4.16-1.12l1.41-2.44a1.31,1.31,0,0,1,1.48-.59h0a1.29,1.29,0,0,1,1,1.25v2.94a3,3,0,0,0,3.05,3h5.44a3,3,0,0,0,3.05-3v-2.69a1.31,1.31,0,0,1,1-1.28h0a1.32,1.32,0,0,1,1.47.61l1.41,2.43a3,3,0,0,0,4.16,1.12l4.71-2.72a3,3,0,0,0,1.12-4.16l-1.2-2.07a1.34,1.34,0,0,1,.26-1.64l.14-.13a1.33,1.33,0,0,1,1.57-.2l3,1.71a2.15,2.15,0,0,0,2.93-.78l3.62-6.28a2.14,2.14,0,0,0-.78-2.92l-2.49-1.44a1.32,1.32,0,0,1-.59-1.56l.12-.39a1.32,1.32,0,0,1,1.26-.95h3A2.14,2.14,0,0,0,383,180.83Zm-11.49-6.76A20.78,20.78,0,1,1,353,155.51,20.79,20.79,0,0,1,371.52,174.07Z" transform="translate(0 159.97)"/><g class="cls-15"><path class="cls-16" d="M637.94,170.76v-6.57a1.94,1.94,0,0,0-1.94-1.95h-2.24a1.2,1.2,0,0,1-1.16-1c0-.18-.08-.37-.13-.55a1.18,1.18,0,0,1,.56-1.32l2-1.17a1.93,1.93,0,0,0,.71-2.65l-3.28-5.69a2,2,0,0,0-2.66-.72l-1.69,1a1.18,1.18,0,0,1-1.45-.21l-.53-.55A1.18,1.18,0,0,1,626,148l.58-1a2.83,2.83,0,0,0-1-3.86l-4.16-2.4a2.83,2.83,0,0,0-3.86,1l-.28.48a1.7,1.7,0,0,1-1.93.79h0a1.7,1.7,0,0,1-1.25-1.65v-1.92a1.56,1.56,0,0,0-1.56-1.56h-7.35a1.56,1.56,0,0,0-1.56,1.56v1.94A1.67,1.67,0,0,1,602.3,143h0a1.68,1.68,0,0,1-1.9-.78l-1.12-1.95a1.36,1.36,0,0,0-1.87-.5l-6.69,3.86a1.36,1.36,0,0,0-.5,1.87l1.41,2.44a1.17,1.17,0,0,1-.2,1.42l-.4.42a1.19,1.19,0,0,1-1.45.23l-2-1.19a2,2,0,0,0-2.66.71l-3.28,5.7a1.94,1.94,0,0,0,.71,2.65l2.27,1.31a1.17,1.17,0,0,1,.54,1.32l-.09.38a1.17,1.17,0,0,1-1.14.92h-2.35a2.34,2.34,0,0,0-2.34,2.34v5.78a2.34,2.34,0,0,0,2.34,2.34h2.61a1.19,1.19,0,0,1,1.13.88,1.33,1.33,0,0,1,0,.19,1.16,1.16,0,0,1-.53,1.36l-2.36,1.37a2.32,2.32,0,0,0-.85,3.19l2.89,5a2.32,2.32,0,0,0,3.19.85l2.5-1.44a1.18,1.18,0,0,1,1.43.2l0,.05a1.17,1.17,0,0,1,.21,1.43l-1.29,2.23a2.77,2.77,0,0,0,1,3.78l4.26,2.46a2.77,2.77,0,0,0,3.78-1l1.28-2.21a1.19,1.19,0,0,1,1.35-.54h0a1.18,1.18,0,0,1,.88,1.14v2.66a2.77,2.77,0,0,0,2.77,2.77h4.93a2.77,2.77,0,0,0,2.77-2.77v-2.43a1.22,1.22,0,0,1,.93-1.17h0a1.19,1.19,0,0,1,1.34.55l1.27,2.21a2.78,2.78,0,0,0,3.78,1l4.27-2.46a2.77,2.77,0,0,0,1-3.78l-1.08-1.88a1.21,1.21,0,0,1,.24-1.49.69.69,0,0,1,.13-.11,1.18,1.18,0,0,1,1.42-.18l2.68,1.55a2,2,0,0,0,2.66-.71l3.28-5.7a1.93,1.93,0,0,0-.71-2.65l-2.26-1.31a1.2,1.2,0,0,1-.53-1.41,3.58,3.58,0,0,0,.11-.35,1.2,1.2,0,0,1,1.14-.87H636A1.94,1.94,0,0,0,637.94,170.76Zm-10.43-6.13a18.85,18.85,0,1,1-16.83-16.84A18.86,18.86,0,0,1,627.51,164.63Z" transform="translate(0 159.97)"/></g><path class="cls-18" d="M636.64,168.16v-6.57a1.94,1.94,0,0,0-1.94-1.94h-2.24a1.21,1.21,0,0,1-1.16-1l-.12-.54a1.2,1.2,0,0,1,.55-1.33l2-1.16a2,2,0,0,0,.72-2.66l-3.29-5.69a2,2,0,0,0-2.66-.71l-1.69,1a1.16,1.16,0,0,1-1.45-.21l-.53-.55a1.18,1.18,0,0,1-.17-1.42l.58-1a2.83,2.83,0,0,0-1-3.87l-4.16-2.4a2.82,2.82,0,0,0-3.86,1l-.28.47a1.7,1.7,0,0,1-1.93.79h0a1.7,1.7,0,0,1-1.25-1.65v-1.92a1.56,1.56,0,0,0-1.56-1.56H603.8a1.56,1.56,0,0,0-1.56,1.56v1.95A1.68,1.68,0,0,1,601,140.4h0a1.69,1.69,0,0,1-1.9-.78L598,137.68a1.37,1.37,0,0,0-1.87-.5L589.4,141a1.37,1.37,0,0,0-.5,1.87l1.41,2.45a1.17,1.17,0,0,1-.19,1.41l-.41.42a1.19,1.19,0,0,1-1.45.23l-2-1.19a1.94,1.94,0,0,0-2.65.71l-3.29,5.7a1.93,1.93,0,0,0,.71,2.65l2.27,1.32a1.17,1.17,0,0,1,.55,1.31c0,.13-.07.26-.1.39a1.18,1.18,0,0,1-1.14.92h-2.35a2.34,2.34,0,0,0-2.34,2.34v5.78a2.34,2.34,0,0,0,2.34,2.34h2.61a1.18,1.18,0,0,1,1.13.87l.06.2a1.17,1.17,0,0,1-.54,1.35l-2.36,1.37a2.34,2.34,0,0,0-.85,3.2l2.89,5a2.34,2.34,0,0,0,3.19.86l2.5-1.45a1.2,1.2,0,0,1,1.43.2l.05.05a1.18,1.18,0,0,1,.2,1.43L589.23,185a2.77,2.77,0,0,0,1,3.78l4.27,2.46a2.75,2.75,0,0,0,3.77-1l1.28-2.21a1.19,1.19,0,0,1,1.35-.54h0a1.18,1.18,0,0,1,.89,1.13v2.67a2.75,2.75,0,0,0,2.76,2.76h4.93a2.76,2.76,0,0,0,2.77-2.76v-2.44a1.2,1.2,0,0,1,.93-1.16h0a1.21,1.21,0,0,1,1.34.55l1.28,2.21a2.75,2.75,0,0,0,3.77,1L623.9,189a2.77,2.77,0,0,0,1-3.78l-1.09-1.88a1.19,1.19,0,0,1,.24-1.48l.13-.12a1.18,1.18,0,0,1,1.42-.18l2.68,1.55a2,2,0,0,0,2.66-.71l3.29-5.69a2,2,0,0,0-.72-2.66l-2.26-1.3a1.2,1.2,0,0,1-.53-1.41c0-.12.08-.24.11-.36a1.2,1.2,0,0,1,1.14-.86h2.71A1.94,1.94,0,0,0,636.64,168.16ZM626.22,162a18.86,18.86,0,1,1-16.84-16.83A18.86,18.86,0,0,1,626.22,162Z" transform="translate(0 159.97)"/><g class="cls-15"><path class="cls-16" d="M653.08,341.78v-6.57a2,2,0,0,0-2-1.95H648.9a1.19,1.19,0,0,1-1.16-.95c0-.19-.09-.37-.13-.55a1.18,1.18,0,0,1,.55-1.32l2-1.17a1.93,1.93,0,0,0,.71-2.65l-3.29-5.7a1.94,1.94,0,0,0-2.65-.71l-1.69,1a1.2,1.2,0,0,1-1.46-.21c-.17-.19-.35-.37-.53-.56a1.18,1.18,0,0,1-.17-1.41l.58-1a2.83,2.83,0,0,0-1-3.86l-4.16-2.4a2.84,2.84,0,0,0-3.87,1l-.27.48a1.72,1.72,0,0,1-1.93.79h0a1.71,1.71,0,0,1-1.26-1.65v-1.92a1.56,1.56,0,0,0-1.56-1.56h-7.34a1.56,1.56,0,0,0-1.56,1.56v1.94a1.67,1.67,0,0,1-1.23,1.62h0a1.66,1.66,0,0,1-1.89-.77l-1.13-1.95a1.36,1.36,0,0,0-1.87-.5l-6.69,3.86a1.38,1.38,0,0,0-.5,1.87l1.41,2.44a1.18,1.18,0,0,1-.19,1.42l-.41.42a1.16,1.16,0,0,1-1.44.22l-2.06-1.18a1.93,1.93,0,0,0-2.65.71l-3.29,5.7a1.94,1.94,0,0,0,.71,2.65l2.28,1.31a1.18,1.18,0,0,1,.54,1.32c0,.13-.07.25-.1.38a1.17,1.17,0,0,1-1.14.92h-2.35a2.34,2.34,0,0,0-2.34,2.34V341a2.34,2.34,0,0,0,2.34,2.34h2.61a1.17,1.17,0,0,1,1.13.88l.06.19a1.18,1.18,0,0,1-.53,1.36l-2.36,1.36a2.34,2.34,0,0,0-.86,3.2l2.89,5a2.34,2.34,0,0,0,3.2.85l2.5-1.44a1.17,1.17,0,0,1,1.42.2l0,0a1.18,1.18,0,0,1,.21,1.43l-1.29,2.23a2.75,2.75,0,0,0,1,3.77l4.27,2.47a2.78,2.78,0,0,0,3.78-1l1.28-2.22a1.17,1.17,0,0,1,1.34-.53h0a1.19,1.19,0,0,1,.88,1.14v2.66a2.77,2.77,0,0,0,2.77,2.77H626a2.77,2.77,0,0,0,2.76-2.77v-2.43a1.22,1.22,0,0,1,.93-1.17h0a1.2,1.2,0,0,1,1.33.56l1.28,2.21a2.77,2.77,0,0,0,3.78,1l4.27-2.47a2.76,2.76,0,0,0,1-3.77L640.26,357a1.22,1.22,0,0,1,.24-1.49l.13-.12a1.19,1.19,0,0,1,1.42-.17l2.69,1.55a1.94,1.94,0,0,0,2.65-.72l3.29-5.69a1.93,1.93,0,0,0-.71-2.65l-2.26-1.31a1.2,1.2,0,0,1-.53-1.41c0-.11.07-.23.11-.35a1.2,1.2,0,0,1,1.14-.87h2.7A1.94,1.94,0,0,0,653.08,341.78Zm-10.43-6.13a18.85,18.85,0,1,1-16.83-16.84A18.86,18.86,0,0,1,642.65,335.65Z" transform="translate(0 159.97)"/></g><path class="cls-19" d="M651.78,339.18v-6.57a1.94,1.94,0,0,0-1.94-1.95H647.6a1.19,1.19,0,0,1-1.16-1c0-.18-.08-.36-.13-.55a1.19,1.19,0,0,1,.55-1.32l2-1.16a2,2,0,0,0,.71-2.66l-3.29-5.69a1.93,1.93,0,0,0-2.65-.71l-1.69,1a1.18,1.18,0,0,1-1.46-.21c-.17-.19-.35-.37-.53-.55a1.19,1.19,0,0,1-.17-1.42l.58-1a2.84,2.84,0,0,0-1-3.87l-4.16-2.4a2.83,2.83,0,0,0-3.87,1l-.27.47a1.7,1.7,0,0,1-1.93.79h0a1.71,1.71,0,0,1-1.26-1.65v-1.92a1.56,1.56,0,0,0-1.56-1.56h-7.34a1.56,1.56,0,0,0-1.56,1.56v1.95a1.67,1.67,0,0,1-1.23,1.61h0a1.68,1.68,0,0,1-1.9-.78l-1.13-1.95a1.36,1.36,0,0,0-1.86-.5l-6.69,3.86a1.38,1.38,0,0,0-.51,1.87l1.42,2.45a1.17,1.17,0,0,1-.2,1.41l-.41.42a1.17,1.17,0,0,1-1.44.23l-2.06-1.19a1.94,1.94,0,0,0-2.65.71l-3.29,5.7a1.94,1.94,0,0,0,.71,2.65l2.28,1.31a1.18,1.18,0,0,1,.54,1.32l-.09.39a1.18,1.18,0,0,1-1.14.91h-2.35a2.35,2.35,0,0,0-2.35,2.35v5.78a2.35,2.35,0,0,0,2.35,2.34H598a1.19,1.19,0,0,1,1.13.87,1.94,1.94,0,0,0,0,.2,1.17,1.17,0,0,1-.53,1.35l-2.36,1.37a2.34,2.34,0,0,0-.86,3.19l2.89,5a2.35,2.35,0,0,0,3.2.86l2.5-1.45a1.17,1.17,0,0,1,1.42.2l.05.05a1.18,1.18,0,0,1,.21,1.43L604.37,356a2.78,2.78,0,0,0,1,3.78l4.27,2.46a2.76,2.76,0,0,0,3.78-1l1.28-2.21a1.18,1.18,0,0,1,1.34-.54h0a1.17,1.17,0,0,1,.88,1.13v2.67a2.77,2.77,0,0,0,2.77,2.76h4.93a2.77,2.77,0,0,0,2.76-2.76v-2.44a1.2,1.2,0,0,1,.93-1.16h0a1.21,1.21,0,0,1,1.34.55l1.27,2.21a2.76,2.76,0,0,0,3.78,1L639,360a2.78,2.78,0,0,0,1-3.78L639,354.35a1.2,1.2,0,0,1,.24-1.48l.13-.12a1.18,1.18,0,0,1,1.42-.18l2.69,1.55a1.93,1.93,0,0,0,2.65-.71l3.29-5.7a1.93,1.93,0,0,0-.71-2.65l-2.26-1.31a1.19,1.19,0,0,1-.53-1.4c0-.12.07-.24.11-.36a1.19,1.19,0,0,1,1.14-.86h2.71A1.94,1.94,0,0,0,651.78,339.18Zm-10.43-6.13a18.85,18.85,0,1,1-16.83-16.83A18.86,18.86,0,0,1,641.35,333.05Z" transform="translate(0 159.97)"/><g class="cls-15"><path class="cls-16" d="M563,136l-1.19-3.81a1.19,1.19,0,0,0-1.48-.77l-1.29.41a.74.74,0,0,1-.85-.34c0-.1-.11-.2-.17-.3a.71.71,0,0,1,.08-.86l.95-1a1.17,1.17,0,0,0-.07-1.67l-2.93-2.7a1.19,1.19,0,0,0-1.67.07l-.8.88a.73.73,0,0,1-.88.14l-.4-.23a.71.71,0,0,1-.36-.79l.15-.68a1.71,1.71,0,0,0-1.3-2l-2.84-.63a1.71,1.71,0,0,0-2.05,1.3l-.07.32a1,1,0,0,1-1,.81h0a1,1,0,0,1-1-.73l-.35-1.11a.93.93,0,0,0-1.18-.62L538,122.92a1,1,0,0,0-.62,1.19l.35,1.13a1,1,0,0,1-.42,1.15h0a1,1,0,0,1-1.24-.1l-1-.93a.82.82,0,0,0-1.17,0l-3.17,3.45a.82.82,0,0,0,0,1.17l1.26,1.16a.73.73,0,0,1,.14.86l-.16.31a.71.71,0,0,1-.79.4l-1.41-.32a1.18,1.18,0,0,0-1.4.9l-.87,3.89a1.18,1.18,0,0,0,.89,1.4L530,139a.71.71,0,0,1,.55.66c0,.08,0,.16,0,.24a.7.7,0,0,1-.49.74l-1.36.43a1.42,1.42,0,0,0-.93,1.78l1.05,3.34a1.41,1.41,0,0,0,1.78.93l1.51-.47a.7.7,0,0,1,.81.3l.07.1a.72.72,0,0,1-.06.88l-1.12,1.22a1.43,1.43,0,0,0,.08,2l2.59,2.37a1.41,1.41,0,0,0,2-.09l1.19-1.29a.71.71,0,0,1,.86-.14l0,0a.72.72,0,0,1,.38.79l-.34,1.52a1.69,1.69,0,0,0,1.27,2l2.92.65a1.68,1.68,0,0,0,2-1.27l.34-1.52a.71.71,0,0,1,.68-.55h0a.72.72,0,0,1,.72.49l.48,1.55a1.67,1.67,0,0,0,2.1,1.09l2.85-.89a1.67,1.67,0,0,0,1.1-2.1l-.44-1.41a.72.72,0,0,1,.33-.84l0,0a.72.72,0,0,1,.87.08l1.14,1.05a1.68,1.68,0,0,0,2.37-.1l2-2.2a1.68,1.68,0,0,0-.1-2.37l-1-.89a.73.73,0,0,1-.13-.9l0-.1a.73.73,0,0,1,.79-.36l1.84.41a1.19,1.19,0,0,0,1.41-.89l.86-3.89a1.17,1.17,0,0,0-.89-1.41l-1.54-.34a.74.74,0,0,1-.57-.72v-.23a.74.74,0,0,1,.51-.71l1.56-.49A1.16,1.16,0,0,0,563,136Zm-7.14-1.66a11.44,11.44,0,1,1-12.8-6.68A11.44,11.44,0,0,1,555.85,134.33Z" transform="translate(0 159.97)"/></g><path class="cls-19" d="M561.69,133.39l-1.19-3.8a1.18,1.18,0,0,0-1.48-.78l-1.29.41a.73.73,0,0,1-.85-.34,2.75,2.75,0,0,0-.17-.29.72.72,0,0,1,.08-.87l1-1a1.18,1.18,0,0,0-.07-1.67l-2.94-2.69a1.17,1.17,0,0,0-1.66.07l-.8.87a.73.73,0,0,1-.89.14l-.4-.22a.71.71,0,0,1-.36-.79l.15-.69a1.71,1.71,0,0,0-1.3-2l-2.84-.63a1.72,1.72,0,0,0-2,1.3l-.07.32a1,1,0,0,1-1,.81h0a1,1,0,0,1-1-.72l-.35-1.12A.94.94,0,0,0,541,119l-4.25,1.34a.94.94,0,0,0-.62,1.18l.36,1.13a1,1,0,0,1-.42,1.16h0a1,1,0,0,1-1.23-.11l-1-.92a.83.83,0,0,0-1.17,0l-3.17,3.45a.84.84,0,0,0,0,1.18l1.26,1.15a.71.71,0,0,1,.14.86c0,.1-.11.21-.16.32a.71.71,0,0,1-.79.39l-1.41-.31a1.16,1.16,0,0,0-1.4.89l-.87,3.89a1.19,1.19,0,0,0,.89,1.41l1.56.34a.73.73,0,0,1,.55.67c0,.08,0,.16,0,.24a.71.71,0,0,1-.49.74l-1.36.42a1.42,1.42,0,0,0-.93,1.78l1,3.35a1.42,1.42,0,0,0,1.78.92l1.51-.47a.7.7,0,0,1,.81.3l.07.1a.74.74,0,0,1-.06.89l-1.12,1.21a1.42,1.42,0,0,0,.09,2l2.58,2.37a1.42,1.42,0,0,0,2-.08l1.19-1.29a.72.72,0,0,1,.86-.15l0,0a.72.72,0,0,1,.38.79l-.34,1.53a1.68,1.68,0,0,0,1.27,2l2.92.65a1.68,1.68,0,0,0,2-1.27l.34-1.51a.72.72,0,0,1,.68-.56h0a.72.72,0,0,1,.72.5l.48,1.54a1.68,1.68,0,0,0,2.1,1.1l2.86-.9a1.67,1.67,0,0,0,1.09-2.1l-.44-1.41a.73.73,0,0,1,.33-.84h0a.72.72,0,0,1,.87.08l1.14,1a1.68,1.68,0,0,0,2.37-.1l2-2.2a1.67,1.67,0,0,0-.1-2.37l-1-.89a.73.73,0,0,1-.13-.9l.06-.09a.72.72,0,0,1,.79-.36l1.83.4a1.17,1.17,0,0,0,1.41-.89l.87-3.89a1.19,1.19,0,0,0-.9-1.41l-1.54-.34a.72.72,0,0,1-.56-.72c0-.07,0-.15,0-.22a.72.72,0,0,1,.51-.71l1.56-.49A1.18,1.18,0,0,0,561.69,133.39Zm-7.14-1.66a11.44,11.44,0,1,1-12.8-6.68A11.43,11.43,0,0,1,554.55,131.73Z" transform="translate(0 159.97)"/><g class="cls-15"><path class="cls-16" d="M598,116.19l-.65-2.07a.64.64,0,0,0-.8-.42l-.71.22a.4.4,0,0,1-.46-.19l-.09-.16a.39.39,0,0,1,0-.47l.52-.57a.63.63,0,0,0,0-.9l-1.6-1.47a.63.63,0,0,0-.9,0l-.44.48a.39.39,0,0,1-.48.08l-.22-.13a.39.39,0,0,1-.2-.43l.09-.37a.94.94,0,0,0-.71-1.11l-1.55-.35a.94.94,0,0,0-1.12.71l0,.17a.55.55,0,0,1-.53.45h0a.57.57,0,0,1-.55-.4l-.2-.61a.5.5,0,0,0-.64-.33l-2.32.72a.52.52,0,0,0-.33.65l.19.61a.55.55,0,0,1-.23.63h0a.56.56,0,0,1-.67-.06l-.55-.5a.46.46,0,0,0-.64,0l-1.72,1.88a.46.46,0,0,0,0,.64l.69.63a.39.39,0,0,1,.08.47l-.09.17a.38.38,0,0,1-.43.21l-.77-.17a.64.64,0,0,0-.76.49l-.48,2.12a.66.66,0,0,0,.49.77l.85.19a.38.38,0,0,1,.3.36.62.62,0,0,0,0,.13.39.39,0,0,1-.27.4l-.74.23a.77.77,0,0,0-.51,1l.57,1.82a.78.78,0,0,0,1,.51l.83-.26a.4.4,0,0,1,.44.17l0,0a.39.39,0,0,1,0,.48l-.61.67a.76.76,0,0,0,.05,1.09l1.4,1.29a.78.78,0,0,0,1.1,0l.64-.7a.39.39,0,0,1,.47-.08h0a.4.4,0,0,1,.21.43l-.19.84a.91.91,0,0,0,.69,1.09l1.59.35a.91.91,0,0,0,1.09-.69l.19-.83a.4.4,0,0,1,.37-.3h0a.41.41,0,0,1,.39.27l.26.84a.91.91,0,0,0,1.14.6L592,127a.91.91,0,0,0,.6-1.14l-.24-.77a.4.4,0,0,1,.17-.46h0a.39.39,0,0,1,.47,0l.62.57a.92.92,0,0,0,1.29-.06l1.1-1.2a.91.91,0,0,0,0-1.29l-.53-.48a.4.4,0,0,1-.07-.49l0,0a.39.39,0,0,1,.43-.2l1,.22a.64.64,0,0,0,.77-.48l.47-2.12a.64.64,0,0,0-.49-.77l-.84-.19a.4.4,0,0,1-.31-.39v-.12a.4.4,0,0,1,.28-.39l.85-.27A.63.63,0,0,0,598,116.19Zm-3.89-.9a6.23,6.23,0,1,1-7-3.64A6.23,6.23,0,0,1,594.12,115.29Z" transform="translate(0 159.97)"/></g><path class="cls-17" d="M597.3,114.77l-.65-2.07a.63.63,0,0,0-.8-.42l-.71.22a.4.4,0,0,1-.46-.18l-.09-.16a.41.41,0,0,1,0-.48l.52-.56a.64.64,0,0,0,0-.91l-1.59-1.47a.65.65,0,0,0-.91,0l-.44.47a.38.38,0,0,1-.48.08l-.22-.12a.39.39,0,0,1-.19-.43l.08-.37a.94.94,0,0,0-.71-1.12l-1.55-.35a.94.94,0,0,0-1.11.71l0,.18a.57.57,0,0,1-.53.44h0a.55.55,0,0,1-.56-.4l-.19-.6a.53.53,0,0,0-.65-.34l-2.31.73a.51.51,0,0,0-.34.64l.19.62a.55.55,0,0,1-.23.63h0a.56.56,0,0,1-.68-.06l-.55-.5a.44.44,0,0,0-.63,0l-1.73,1.88a.45.45,0,0,0,0,.64l.68.63a.38.38,0,0,1,.08.46l-.09.18a.38.38,0,0,1-.43.21l-.76-.17a.64.64,0,0,0-.77.48l-.47,2.13a.64.64,0,0,0,.48.76l.85.19a.39.39,0,0,1,.3.36s0,.09,0,.13a.41.41,0,0,1-.27.41l-.74.23a.78.78,0,0,0-.51,1l.58,1.82a.77.77,0,0,0,1,.51l.83-.26a.37.37,0,0,1,.44.16l0,.06a.38.38,0,0,1,0,.48l-.61.66a.78.78,0,0,0,0,1.09l1.41,1.3a.78.78,0,0,0,1.09,0l.64-.7a.4.4,0,0,1,.47-.08h0a.39.39,0,0,1,.21.43l-.19.83a.91.91,0,0,0,.7,1.09l1.59.36a.91.91,0,0,0,1.09-.7l.18-.82a.37.37,0,0,1,.37-.3h0a.38.38,0,0,1,.39.27l.26.84a.92.92,0,0,0,1.15.6l1.55-.49a.92.92,0,0,0,.6-1.15l-.24-.77a.38.38,0,0,1,.18-.45h0a.39.39,0,0,1,.47,0l.62.57a.93.93,0,0,0,1.3,0l1.1-1.2a.92.92,0,0,0-.06-1.29l-.53-.49a.41.41,0,0,1-.07-.49l0,0a.42.42,0,0,1,.43-.2l1,.23a.65.65,0,0,0,.77-.49l.47-2.12a.64.64,0,0,0-.49-.77l-.84-.18a.4.4,0,0,1-.3-.4v-.12a.38.38,0,0,1,.27-.38l.85-.27A.64.64,0,0,0,597.3,114.77Zm-3.89-.9a6.23,6.23,0,1,1-7-3.64A6.24,6.24,0,0,1,593.41,113.87Z" transform="translate(0 159.97)"/><path class="cls-11" d="M439.52,370.86l100-8.95a96.13,96.13,0,0,0,83.76-69h0a131,131,0,0,0-33.48-129.35h0a84.45,84.45,0,0,0-99.86-14.28l-109,59.3a84.45,84.45,0,0,0-44.08,72.22h0A84.43,84.43,0,0,0,392,362l10.77,4A84.46,84.46,0,0,0,439.52,370.86Z" transform="translate(0 159.97)"/><rect class="cls-20" x="464.93" y="489.54" width="40.18" height="40.18"/><path class="cls-21" d="M527,375.65H442.76a6.72,6.72,0,0,1,6.71-6.71h70.81a6.71,6.71,0,0,1,6.71,6.71Z" transform="translate(0 159.97)"/><rect class="cls-22" x="464.93" y="504.13" width="40.18" height="8.46"/><rect class="cls-21" x="353.69" y="323.59" width="260.59" height="182.36" rx="7.76"/><polygon class="cls-23" points="607.73 478.37 360.29 478.37 360.29 332.76 607.73 332.75 607.73 478.37"/><g class="cls-15"><rect class="cls-16" x="380.74" y="345.08" width="207.9" height="124.57" rx="4.75"/><path class="cls-16" d="M583.06,184.62H386.31a5.57,5.57,0,0,0-5.57,5.57v7.09H588.63v-7.09A5.57,5.57,0,0,0,583.06,184.62Z" transform="translate(0 159.97)"/><path class="cls-16" d="M394.9,191a2.7,2.7,0,1,1-2.7-2.7A2.7,2.7,0,0,1,394.9,191Z" transform="translate(0 159.97)"/><path class="cls-16" d="M403.42,191a2.7,2.7,0,1,1-2.69-2.7A2.69,2.69,0,0,1,403.42,191Z" transform="translate(0 159.97)"/><path class="cls-16" d="M412,191a2.7,2.7,0,1,1-2.69-2.7A2.69,2.69,0,0,1,412,191Z" transform="translate(0 159.97)"/><rect class="cls-16" x="499.48" y="366.6" width="77.88" height="95.75"/><path class="cls-16" d="M570.11,218.47H505.88a2,2,0,0,1-2-2h0a2,2,0,0,1,2-2h64.23a2,2,0,0,1,2,2h0A2,2,0,0,1,570.11,218.47Z" transform="translate(0 159.97)"/><path class="cls-16" d="M487.11,219.22H435.4a2.38,2.38,0,0,1-2.38-2.37h0a2.38,2.38,0,0,1,2.38-2.38h51.71a2.37,2.37,0,0,1,2.37,2.38h0A2.37,2.37,0,0,1,487.11,219.22Z" transform="translate(0 159.97)"/><path class="cls-16" d="M454.57,229H435.4a2.38,2.38,0,0,1-2.38-2.38h0a2.38,2.38,0,0,1,2.38-2.37h19.17a2.37,2.37,0,0,1,2.37,2.37h0A2.37,2.37,0,0,1,454.57,229Z" transform="translate(0 159.97)"/><path class="cls-16" d="M521.47,226.62H505.88a2,2,0,0,1-2-2h0a2,2,0,0,1,2-2h15.59a2,2,0,0,1,2,2h0A2,2,0,0,1,521.47,226.62Z" transform="translate(0 159.97)"/><path class="cls-16" d="M570.11,226.62H530.19a2,2,0,0,1-2-2h0a2,2,0,0,1,2-2h39.92a2,2,0,0,1,2,2h0A2,2,0,0,1,570.11,226.62Z" transform="translate(0 159.97)"/><line class="cls-24" x1="504.99" y1="436.35" x2="572.11" y2="436.35"/><line class="cls-24" x1="504.99" y1="442.87" x2="572.11" y2="442.87"/><line class="cls-24" x1="504.99" y1="449.39" x2="572.11" y2="449.39"/><line class="cls-24" x1="504.99" y1="455.92" x2="572.11" y2="455.92"/><circle class="cls-16" cx="408.16" cy="392.19" r="17.96"/><circle class="cls-16" cx="408.16" cy="385.25" r="5.07"/><path class="cls-16" d="M397.26,242a10.9,10.9,0,1,1,21.79,0" transform="translate(0 159.97)"/><line class="cls-24" x1="389.5" y1="416.74" x2="451.37" y2="416.74"/><line class="cls-24" x1="389.5" y1="422.75" x2="451.37" y2="422.75"/><line class="cls-24" x1="389.5" y1="428.76" x2="451.37" y2="428.76"/><line class="cls-24" x1="389.5" y1="434.78" x2="451.37" y2="434.78"/><line class="cls-24" x1="389.5" y1="440.79" x2="451.37" y2="440.79"/><line class="cls-24" x1="389.5" y1="446.8" x2="451.37" y2="446.8"/><line class="cls-24" x1="389.5" y1="452.82" x2="451.37" y2="452.82"/><line class="cls-24" x1="389.5" y1="458.83" x2="451.37" y2="458.83"/><line class="cls-25" x1="460.43" y1="416.74" x2="489.48" y2="416.74"/><line class="cls-25" x1="460.43" y1="422.75" x2="489.48" y2="422.75"/><line class="cls-25" x1="460.43" y1="428.76" x2="489.48" y2="428.76"/><line class="cls-25" x1="460.43" y1="434.78" x2="489.48" y2="434.78"/><line class="cls-25" x1="460.43" y1="440.79" x2="489.48" y2="440.79"/><line class="cls-25" x1="460.43" y1="446.8" x2="489.48" y2="446.8"/><line class="cls-25" x1="460.43" y1="452.82" x2="489.48" y2="452.82"/><line class="cls-25" x1="460.43" y1="458.83" x2="489.48" y2="458.83"/><rect class="cls-16" x="433.02" y="396.36" width="57.53" height="15.5"/><rect class="cls-16" x="507.32" y="396.51" width="27.21" height="33.31"/><rect class="cls-16" x="537.59" y="396.51" width="15.73" height="33.31"/><rect class="cls-16" x="556.38" y="396.51" width="15.73" height="33.31"/></g><rect class="cls-8" x="378.53" y="342.87" width="207.9" height="124.57" rx="4.75"/><path class="cls-17" d="M580.85,182.41H384.1a5.58,5.58,0,0,0-5.57,5.58v7.08h207.9V188A5.58,5.58,0,0,0,580.85,182.41Z" transform="translate(0 159.97)"/><path class="cls-26" d="M392.69,188.74A2.7,2.7,0,1,1,390,186,2.7,2.7,0,0,1,392.69,188.74Z" transform="translate(0 159.97)"/><path class="cls-21" d="M401.22,188.74a2.7,2.7,0,1,1-2.7-2.7A2.7,2.7,0,0,1,401.22,188.74Z" transform="translate(0 159.97)"/><path class="cls-18" d="M409.75,188.74a2.7,2.7,0,1,1-2.7-2.7A2.7,2.7,0,0,1,409.75,188.74Z" transform="translate(0 159.97)"/><rect class="cls-23" x="497.27" y="364.39" width="77.88" height="95.75"/><path class="cls-17" d="M567.9,216.26H503.67a2,2,0,0,1-2-2h0a2,2,0,0,1,2-2H567.9a2,2,0,0,1,2,2h0A2,2,0,0,1,567.9,216.26Z" transform="translate(0 159.97)"/><path class="cls-17" d="M484.9,217H433.19a2.38,2.38,0,0,1-2.38-2.37h0a2.39,2.39,0,0,1,2.38-2.38H484.9a2.39,2.39,0,0,1,2.38,2.38h0A2.38,2.38,0,0,1,484.9,217Z" transform="translate(0 159.97)"/><path class="cls-17" d="M452.36,226.79H433.19a2.38,2.38,0,0,1-2.38-2.37h0a2.38,2.38,0,0,1,2.38-2.38h19.17a2.38,2.38,0,0,1,2.38,2.38h0A2.38,2.38,0,0,1,452.36,226.79Z" transform="translate(0 159.97)"/><path class="cls-17" d="M519.27,224.42h-15.6a2,2,0,0,1-2-2h0a2,2,0,0,1,2-2h15.6a2,2,0,0,1,2,2h0A2,2,0,0,1,519.27,224.42Z" transform="translate(0 159.97)"/><path class="cls-8" d="M567.9,224.42H528a2,2,0,0,1-2-2h0a2,2,0,0,1,2-2H567.9a2,2,0,0,1,2,2h0A2,2,0,0,1,567.9,224.42Z" transform="translate(0 159.97)"/><line class="cls-27" x1="502.78" y1="434.14" x2="569.9" y2="434.14"/><line class="cls-27" x1="502.78" y1="440.66" x2="569.9" y2="440.66"/><line class="cls-27" x1="502.78" y1="447.19" x2="569.9" y2="447.19"/><line class="cls-27" x1="502.78" y1="453.71" x2="569.9" y2="453.71"/><circle class="cls-28" cx="405.95" cy="389.99" r="17.96"/><circle class="cls-17" cx="405.95" cy="383.04" r="5.07"/><path class="cls-17" d="M395.06,239.78a10.89,10.89,0,1,1,21.78,0" transform="translate(0 159.97)"/><line class="cls-29" x1="387.29" y1="414.53" x2="449.16" y2="414.53"/><line class="cls-29" x1="387.29" y1="420.54" x2="449.16" y2="420.54"/><line class="cls-29" x1="387.29" y1="426.56" x2="449.16" y2="426.56"/><line class="cls-29" x1="387.29" y1="432.57" x2="449.16" y2="432.57"/><line class="cls-29" x1="387.29" y1="438.58" x2="449.16" y2="438.58"/><line class="cls-29" x1="387.29" y1="444.6" x2="449.16" y2="444.6"/><line class="cls-29" x1="387.29" y1="450.61" x2="449.16" y2="450.61"/><line class="cls-29" x1="387.29" y1="456.62" x2="449.16" y2="456.62"/><line class="cls-30" x1="458.22" y1="414.53" x2="487.28" y2="414.53"/><line class="cls-30" x1="458.22" y1="420.54" x2="487.28" y2="420.54"/><line class="cls-30" x1="458.22" y1="426.56" x2="487.28" y2="426.56"/><line class="cls-30" x1="458.22" y1="432.57" x2="487.28" y2="432.57"/><line class="cls-30" x1="458.22" y1="438.58" x2="487.28" y2="438.58"/><line class="cls-30" x1="458.22" y1="444.6" x2="487.28" y2="444.6"/><line class="cls-30" x1="458.22" y1="450.61" x2="487.28" y2="450.61"/><line class="cls-30" x1="458.22" y1="456.62" x2="487.28" y2="456.62"/><rect class="cls-23" x="430.81" y="394.15" width="57.53" height="15.5"/><rect class="cls-28" x="505.11" y="394.3" width="27.21" height="33.31"/><rect class="cls-28" x="535.38" y="394.3" width="15.73" height="33.31"/><rect class="cls-28" x="554.17" y="394.3" width="15.73" height="33.31"/><path class="cls-18" d="M355.16,221.26l259.37,57.12a3.76,3.76,0,0,1,3,3.67v20.78a3.76,3.76,0,0,1-4.53,3.68L353.84,252.05a3.14,3.14,0,0,1-2.5-3.07V224.32A3.14,3.14,0,0,1,355.16,221.26Z" transform="translate(0 159.97)"/><g class="cls-31"><line class="cls-32" x1="349.93" y1="371.44" x2="380.42" y2="429.34"/><line class="cls-32" x1="371.77" y1="375.69" x2="402.27" y2="433.59"/><line class="cls-32" x1="393.62" y1="379.94" x2="424.11" y2="437.85"/><line class="cls-32" x1="415.46" y1="384.2" x2="445.96" y2="442.1"/><line class="cls-32" x1="437.3" y1="388.45" x2="467.8" y2="446.36"/><line class="cls-32" x1="459.15" y1="392.71" x2="489.65" y2="450.61"/><line class="cls-32" x1="480.99" y1="396.96" x2="511.49" y2="454.87"/><line class="cls-32" x1="502.84" y1="401.22" x2="533.34" y2="459.12"/><line class="cls-32" x1="524.68" y1="405.47" x2="555.18" y2="463.38"/><line class="cls-32" x1="546.53" y1="409.72" x2="577.02" y2="467.63"/><line class="cls-32" x1="568.37" y1="413.98" x2="598.87" y2="471.88"/><line class="cls-32" x1="590.22" y1="418.23" x2="620.71" y2="476.14"/></g><polygon class="cls-33" points="561.47 455.66 617.48 442.02 617.48 439 552.52 424.69 470.26 436.49 561.47 455.66"/><path class="cls-18" d="M611.61,251.71,353.83,308.47a2.59,2.59,0,0,0-2,2.53v23.18a2.57,2.57,0,0,0,3.11,2.52l258.89-54.41a5.22,5.22,0,0,0,4.14-5.1V256.8A5.21,5.21,0,0,0,611.61,251.71Z" transform="translate(0 159.97)"/><g class="cls-34"><line class="cls-32" x1="620.16" y1="402.13" x2="589.66" y2="460.04"/><line class="cls-32" x1="598.32" y1="406.31" x2="567.82" y2="464.22"/><line class="cls-32" x1="576.47" y1="410.49" x2="545.98" y2="468.4"/><line class="cls-32" x1="554.63" y1="414.68" x2="524.13" y2="472.58"/><line class="cls-32" x1="532.78" y1="418.86" x2="502.29" y2="476.76"/><line class="cls-32" x1="510.94" y1="423.04" x2="480.44" y2="480.94"/><line class="cls-32" x1="489.09" y1="427.22" x2="458.6" y2="485.13"/><line class="cls-32" x1="467.25" y1="431.4" x2="436.75" y2="489.31"/><line class="cls-32" x1="445.41" y1="435.58" x2="414.91" y2="493.49"/><line class="cls-32" x1="423.56" y1="439.77" x2="393.06" y2="497.67"/><line class="cls-32" x1="401.72" y1="443.95" x2="371.22" y2="501.85"/><line class="cls-32" x1="379.87" y1="448.13" x2="349.38" y2="506.03"/></g><text class="cls-35" transform="translate(150.21 416.66)">UNDER<tspan class="cls-36" x="-53.12" y="27.89">C</tspan><tspan x="-36.57" y="27.89">ON</tspan><tspan class="cls-37" x="1.82" y="27.89">S</tspan><tspan class="cls-38" x="16.21" y="27.89">TRU</tspan><tspan class="cls-39" x="65.52" y="27.89">C</tspan><tspan x="82.23" y="27.89">TION</tspan></text><text class="cls-40" transform="translate(188.39 494.41)"><tspan class="cls-41">C</tspan><tspan x="6.7" y="0">ont</tspan><tspan class="cls-42" x="23.17" y="0">a</tspan><tspan class="cls-43" x="28.87" y="0">c</tspan><tspan class="cls-44" x="34.35" y="0">t us</tspan></text></g><g class="cls-45"><path class="cls-46" d="M586.75,31.68l-1.82-5.79a1.79,1.79,0,0,0-2.24-1.18l-2,.62a1.09,1.09,0,0,1-1.29-.52c-.09-.15-.17-.3-.26-.44a1.08,1.08,0,0,1,.12-1.32l1.45-1.58a1.8,1.8,0,0,0-.11-2.54l-4.46-4.1a1.8,1.8,0,0,0-2.54.1l-1.21,1.33a1.1,1.1,0,0,1-1.34.22l-.62-.34a1.1,1.1,0,0,1-.55-1.21l.24-1a2.62,2.62,0,0,0-2-3.12l-4.33-1a2.6,2.6,0,0,0-3.11,2l-.11.49a1.58,1.58,0,0,1-1.49,1.23h0a1.59,1.59,0,0,1-1.56-1.1l-.53-1.7a1.43,1.43,0,0,0-1.8-.94l-6.47,2a1.44,1.44,0,0,0-.94,1.8l.54,1.72a1.54,1.54,0,0,1-.64,1.76h0a1.54,1.54,0,0,1-1.88-.16l-1.53-1.41a1.28,1.28,0,0,0-1.79.08l-4.82,5.25a1.25,1.25,0,0,0,.08,1.78l1.92,1.77a1.06,1.06,0,0,1,.21,1.29l-.24.49a1.09,1.09,0,0,1-1.21.6l-2.14-.48a1.78,1.78,0,0,0-2.13,1.36l-1.33,5.92a1.8,1.8,0,0,0,1.36,2.14l2.37.53a1.09,1.09,0,0,1,.84,1c0,.12,0,.24,0,.36a1.08,1.08,0,0,1-.75,1.13l-2.07.65a2.15,2.15,0,0,0-1.41,2.7l1.6,5.09a2.16,2.16,0,0,0,2.7,1.42l2.3-.72a1.09,1.09,0,0,1,1.24.45c0,.06.07.11.1.16a1.08,1.08,0,0,1-.09,1.34l-1.7,1.86a2.16,2.16,0,0,0,.12,3l3.93,3.61a2.16,2.16,0,0,0,3-.13l1.81-2a1.08,1.08,0,0,1,1.31-.22l.05,0a1.09,1.09,0,0,1,.58,1.2l-.52,2.32a2.54,2.54,0,0,0,1.93,3l4.44,1a2.56,2.56,0,0,0,3.05-1.94l.51-2.3a1.1,1.1,0,0,1,1-.85h0a1.11,1.11,0,0,1,1.09.76l.73,2.35a2.56,2.56,0,0,0,3.2,1.67L570,62a2.54,2.54,0,0,0,1.67-3.2L571,56.62a1.12,1.12,0,0,1,.5-1.28l0,0a1.11,1.11,0,0,1,1.33.12L574.6,57a2.55,2.55,0,0,0,3.61-.15l3.07-3.35a2.54,2.54,0,0,0-.15-3.6l-1.47-1.36a1.09,1.09,0,0,1-.2-1.37.64.64,0,0,1,.08-.14,1.09,1.09,0,0,1,1.2-.55l2.79.62a1.78,1.78,0,0,0,2.14-1.36L587,39.85a1.79,1.79,0,0,0-1.36-2.14l-2.35-.52a1.12,1.12,0,0,1-.85-1.1v-.34a1.1,1.1,0,0,1,.76-1.08l2.39-.75A1.78,1.78,0,0,0,586.75,31.68Zm-10.88-2.52A17.4,17.4,0,1,1,556.4,19,17.4,17.4,0,0,1,575.87,29.16Z" transform="translate(0 159.97)"/></g><g class="cls-45"><path class="cls-46" d="M722.81,439.48V427a3.68,3.68,0,0,0-3.68-3.68H714.9a2.26,2.26,0,0,1-2.2-1.81l-.24-1a2.27,2.27,0,0,1,1-2.51l3.82-2.2a3.69,3.69,0,0,0,1.35-5L712.44,400a3.68,3.68,0,0,0-5-1.35l-3.2,1.85a2.23,2.23,0,0,1-2.75-.4l-1-1.05a2.23,2.23,0,0,1-.32-2.68l1.1-1.9a5.36,5.36,0,0,0-2-7.32l-7.87-4.54a5.36,5.36,0,0,0-7.32,2l-.52.9a3.21,3.21,0,0,1-3.65,1.49h-.06a3.25,3.25,0,0,1-2.38-3.12v-3.65a3,3,0,0,0-3-2.95H660.64a3,3,0,0,0-2.95,2.95v3.69a3.18,3.18,0,0,1-2.33,3.06h-.05a3.18,3.18,0,0,1-3.59-1.47l-2.13-3.69a2.59,2.59,0,0,0-3.54-1l-12.66,7.31a2.59,2.59,0,0,0-.95,3.54l2.68,4.62a2.23,2.23,0,0,1-.38,2.68l-.77.8a2.21,2.21,0,0,1-2.73.43L627.35,398a3.68,3.68,0,0,0-5,1.35l-6.22,10.78a3.67,3.67,0,0,0,1.34,5l4.31,2.48a2.23,2.23,0,0,1,1,2.5l-.18.72a2.21,2.21,0,0,1-2.15,1.74H616a4.43,4.43,0,0,0-4.43,4.43v10.94a4.43,4.43,0,0,0,4.43,4.43h4.94a2.25,2.25,0,0,1,2.14,1.66c0,.12.07.24.1.37a2.23,2.23,0,0,1-1,2.57l-4.47,2.58a4.42,4.42,0,0,0-1.62,6l5.47,9.47a4.42,4.42,0,0,0,6.05,1.62l4.73-2.73a2.23,2.23,0,0,1,2.7.38l.09.09a2.24,2.24,0,0,1,.38,2.71l-2.43,4.22A5.23,5.23,0,0,0,635,478.5l8.08,4.66a5.23,5.23,0,0,0,7.15-1.91l2.42-4.19a2.24,2.24,0,0,1,2.55-1h0a2.23,2.23,0,0,1,1.67,2.15v5.05a5.23,5.23,0,0,0,5.23,5.23h9.33a5.23,5.23,0,0,0,5.24-5.23v-4.62a2.28,2.28,0,0,1,1.76-2.2h.07a2.25,2.25,0,0,1,2.53,1.05l2.41,4.17a5.23,5.23,0,0,0,7.15,1.92l8.08-4.66a5.25,5.25,0,0,0,1.92-7.16l-2.06-3.55a2.27,2.27,0,0,1,.46-2.81l.24-.23a2.25,2.25,0,0,1,2.69-.33l5.08,2.93a3.68,3.68,0,0,0,5-1.35l6.22-10.77a3.69,3.69,0,0,0-1.35-5l-4.28-2.47a2.27,2.27,0,0,1-1-2.66l.21-.67a2.26,2.26,0,0,1,2.16-1.64h5.12A3.68,3.68,0,0,0,722.81,439.48Zm-19.74-11.61A35.69,35.69,0,1,1,671.21,396,35.69,35.69,0,0,1,703.07,427.87Z" transform="translate(0 159.97)"/></g><g class="cls-7"><path class="cls-8" d="M125,158.72v-10a3,3,0,0,0-3-2.95h-3.4a1.83,1.83,0,0,1-1.77-1.46c-.06-.27-.12-.55-.19-.83a1.81,1.81,0,0,1,.84-2l3.07-1.77a3,3,0,0,0,1.08-4l-5-8.66a3,3,0,0,0-4-1.08L110,127.4a1.78,1.78,0,0,1-2.21-.32l-.81-.84a1.8,1.8,0,0,1-.26-2.15l.88-1.53a4.3,4.3,0,0,0-1.57-5.88L99.71,113a4.3,4.3,0,0,0-5.87,1.57l-.42.73a2.61,2.61,0,0,1-2.94,1.2h0A2.61,2.61,0,0,1,88.53,114v-2.93a2.37,2.37,0,0,0-2.38-2.37H75a2.37,2.37,0,0,0-2.37,2.37v3a2.55,2.55,0,0,1-1.87,2.46h0a2.54,2.54,0,0,1-2.88-1.18l-1.72-3a2.08,2.08,0,0,0-2.84-.76L53.1,117.47a2.08,2.08,0,0,0-.76,2.85L54.48,124a1.79,1.79,0,0,1-.3,2.16l-.62.64a1.78,1.78,0,0,1-2.19.34l-3.13-1.81a3,3,0,0,0-4,1.09l-5,8.66a3,3,0,0,0,1.08,4l3.46,2a1.79,1.79,0,0,1,.82,2c0,.19-.1.38-.14.58a1.8,1.8,0,0,1-1.73,1.4H39.12a3.56,3.56,0,0,0-3.56,3.56v8.79A3.56,3.56,0,0,0,39.12,161h4a1.8,1.8,0,0,1,1.72,1.32c0,.1,0,.2.08.3a1.81,1.81,0,0,1-.8,2.07l-3.6,2.07a3.56,3.56,0,0,0-1.3,4.86l4.4,7.62a3.56,3.56,0,0,0,4.86,1.3l3.8-2.2a1.81,1.81,0,0,1,2.17.31l.07.07a1.79,1.79,0,0,1,.31,2.17l-2,3.4a4.2,4.2,0,0,0,1.54,5.74l6.5,3.75a4.2,4.2,0,0,0,5.74-1.54l1.95-3.36a1.78,1.78,0,0,1,2-.82h0A1.79,1.79,0,0,1,72,189.83v4.06a4.2,4.2,0,0,0,4.21,4.2h7.49a4.2,4.2,0,0,0,4.21-4.2v-3.71a1.83,1.83,0,0,1,1.41-1.77h.06a1.82,1.82,0,0,1,2,.84l1.94,3.36a4.21,4.21,0,0,0,5.75,1.54l6.49-3.75a4.2,4.2,0,0,0,1.54-5.74l-1.65-2.86a1.83,1.83,0,0,1,.36-2.26l.2-.18a1.82,1.82,0,0,1,2.16-.27l4.08,2.36a3,3,0,0,0,4-1.09l5-8.66a3,3,0,0,0-1.08-4l-3.44-2a1.81,1.81,0,0,1-.81-2.14c.06-.18.12-.36.17-.54a1.83,1.83,0,0,1,1.73-1.32H122A3,3,0,0,0,125,158.72Zm-15.86-9.33a28.68,28.68,0,1,1-25.6-25.6A28.68,28.68,0,0,1,109.09,149.39Z" transform="translate(0 159.97)"/></g></g></g></svg>