<svg xmlns="http://www.w3.org/2000/svg" xmlns:xlink="http://www.w3.org/1999/xlink" viewBox="0 0 1125 2436"><defs><style>.cls-1,.cls-17,.cls-18,.cls-21,.cls-23,.cls-24,.cls-26{fill:none;}.cls-2{isolation:isolate;}.cls-29,.cls-3,.cls-5,.cls-6{fill:#e1ad01;}.cls-3{opacity:0.3;}.cls-34,.cls-4{fill:#fff;}.cls-5{opacity:0.15;}.cls-6{opacity:0.08;}.cls-19,.cls-7{fill:#c5c6ee;}.cls-15,.cls-27,.cls-7,.cls-8{mix-blend-mode:multiply;}.cls-8{opacity:0.21;}.cls-9{fill:#34346b;}.cls-10{fill:#9492dc;}.cls-11,.cls-27{fill:#ffde40;}.cls-12{fill:#f6445e;}.cls-13{fill:#252f47;}.cls-14,.cls-15{fill:#313f5e;}.cls-15{opacity:0.5;}.cls-16{fill:#e5e8fa;}.cls-17,.cls-18{stroke:#34346b;}.cls-17,.cls-18,.cls-21,.cls-23,.cls-24,.cls-26{stroke-linecap:round;stroke-miterlimit:10;}.cls-17,.cls-21,.cls-23{stroke-width:0.74px;}.cls-18,.cls-24{stroke-width:0.5px;}.cls-20{fill:#e2e9fc;}.cls-21{stroke:#9492dc;}.cls-22{fill:#fffffd;}.cls-23,.cls-24{stroke:#e5e8fa;}.cls-25{clip-path:url(#clip-path);}.cls-26{stroke:#313f5e;stroke-width:5.1px;}.cls-28{clip-path:url(#clip-path-2);}.cls-29{font-size:99.72px;font-family:Montserrat-SemiBold, Montserrat;font-weight:600;}.cls-30{letter-spacing:-0.01em;}.cls-31{letter-spacing:-0.01em;}.cls-32{letter-spacing:0em;}.cls-33{letter-spacing:-0.01em;}.cls-34{font-size:9.63px;font-family:Montserrat-Regular, Montserrat;}.cls-35{letter-spacing:-0.02em;}.cls-36{letter-spacing:0em;}.cls-37{letter-spacing:0.01em;}.cls-38{letter-spacing:0em;}</style><clipPath id="clip-path"><path class="cls-1" d="M255.15,1345.51l616.3,135.72v55.71a9,9,0,0,1-10.86,8.81l-608.54-127.9a7.37,7.37,0,0,1-5.86-7.22v-57.92A7.38,7.38,0,0,1,255.15,1345.51Z"/></clipPath><clipPath id="clip-path-2"><path class="cls-1" d="M862.18,1416.05,252,1550.42a6.06,6.06,0,0,0-4.76,5.92v54.46a6.06,6.06,0,0,0,7.31,5.93l611.18-128.46a8.52,8.52,0,0,0,6.77-8.34v-55.55A8.53,8.53,0,0,0,862.18,1416.05Z"/></clipPath></defs><g class="cls-2"><g id="Layer_1" data-name="Layer 1"><rect class="cls-3" width="1125" height="2436"/><rect class="cls-4" x="86" y="370.5" width="953" height="1695"/><path class="cls-5" d="M353.46,181.54l-128.7,15a124.1,124.1,0,0,0-105.69,92h0a169,169,0,0,0,47.72,165.74h0a109,109,0,0,0,129.38,14.94l138.62-80.33a109,109,0,0,0,54.36-94.73h0A109,109,0,0,0,415,191.28l-14-4.74A109.14,109.14,0,0,0,353.46,181.54Z"/><path class="cls-5" d="M723.23,2133.28,821,2207.11a117.3,117.3,0,0,0,132.27,6.28h0A159.78,159.78,0,0,0,1028.94,2069h0a103,103,0,0,0-78.58-94.74l-147.17-35.74a103,103,0,0,0-99,29.16h0a103,103,0,0,0-16.62,118.69l6.48,12.4A103.14,103.14,0,0,0,723.23,2133.28Z"/><path class="cls-6" d="M419.08,1688.34H695.74a265,265,0,0,0,246.92-168.83h0a360.94,360.94,0,0,0-60.14-363.32h0a232.76,232.76,0,0,0-270.66-63.73L298,1228.47a232.74,232.74,0,0,0-138.75,187.42h0A232.77,232.77,0,0,0,290.9,1652.43L319.48,1666A232.6,232.6,0,0,0,419.08,1688.34Z"/><ellipse class="cls-7" cx="560.13" cy="1709.73" rx="288.42" ry="9.38"/><ellipse class="cls-7" cx="560.13" cy="1709.73" rx="162.41" ry="5.28"/><g class="cls-8"><path class="cls-9" d="M322,1253.39v-17a5,5,0,0,0-5-5h-5.79a3.09,3.09,0,0,1-3-2.47c-.11-.47-.21-.95-.33-1.42a3.08,3.08,0,0,1,1.43-3.43l5.22-3a5,5,0,0,0,1.84-6.88l-8.51-14.74a5,5,0,0,0-6.87-1.84l-4.38,2.52a3.06,3.06,0,0,1-3.77-.54c-.45-.49-.91-1-1.37-1.44a3,3,0,0,1-.44-3.67l1.5-2.6a7.32,7.32,0,0,0-2.68-10l-10.77-6.22a7.32,7.32,0,0,0-10,2.68l-.71,1.23a4.43,4.43,0,0,1-5,2l-.08,0a4.42,4.42,0,0,1-3.25-4.27v-5a4,4,0,0,0-4-4H237a4,4,0,0,0-4,4v5a4.35,4.35,0,0,1-3.19,4.19h-.07a4.32,4.32,0,0,1-4.9-2l-2.92-5a3.54,3.54,0,0,0-4.84-1.3l-17.32,10a3.54,3.54,0,0,0-1.3,4.84l3.66,6.34a3,3,0,0,1-.51,3.66c-.36.36-.71.72-1.06,1.09a3,3,0,0,1-3.73.59l-5.33-3.08a5,5,0,0,0-6.87,1.84L176,1213.19a5,5,0,0,0,1.84,6.86l5.89,3.41a3,3,0,0,1,1.4,3.41l-.24,1a3,3,0,0,1-3,2.38h-6.09a6.06,6.06,0,0,0-6.06,6.06v15a6.06,6.06,0,0,0,6.06,6.06h6.76a3.05,3.05,0,0,1,2.92,2.26l.15.51a3.06,3.06,0,0,1-1.38,3.52l-6.11,3.53a6.06,6.06,0,0,0-2.22,8.28l7.48,13a6.07,6.07,0,0,0,8.28,2.22l6.48-3.74a3.06,3.06,0,0,1,3.69.52l.12.12a3.05,3.05,0,0,1,.53,3.7l-3.33,5.78a7.15,7.15,0,0,0,2.62,9.78l11.05,6.39a7.18,7.18,0,0,0,9.79-2.62l3.31-5.74a3.06,3.06,0,0,1,3.48-1.39l.05,0a3.06,3.06,0,0,1,2.28,2.93v6.91a7.16,7.16,0,0,0,7.16,7.16h12.77a7.16,7.16,0,0,0,7.16-7.16V1307a3.11,3.11,0,0,1,2.41-3l.1,0a3.13,3.13,0,0,1,3.46,1.44l3.3,5.72a7.16,7.16,0,0,0,9.78,2.62l11.06-6.38a7.17,7.17,0,0,0,2.62-9.79l-2.81-4.87a3.1,3.1,0,0,1,.62-3.84l.33-.31a3.12,3.12,0,0,1,3.68-.46l6.95,4a5,5,0,0,0,6.88-1.84l8.51-14.75a5,5,0,0,0-1.84-6.87l-5.85-3.38a3.11,3.11,0,0,1-1.38-3.65c.1-.31.19-.61.28-.92a3.1,3.1,0,0,1,3-2.24h7A5,5,0,0,0,322,1253.39Zm-27-15.88a48.83,48.83,0,1,1-43.59-43.6A48.85,48.85,0,0,1,295,1237.51Z"/></g><path class="cls-10" d="M320.6,1250.53v-17a5,5,0,0,0-5-5h-5.79a3.09,3.09,0,0,1-3-2.47l-.33-1.42a3.08,3.08,0,0,1,1.43-3.43l5.22-3a5,5,0,0,0,1.84-6.88l-8.51-14.74a5,5,0,0,0-6.87-1.85l-4.38,2.53a3.06,3.06,0,0,1-3.77-.54c-.45-.49-.91-1-1.37-1.44a3,3,0,0,1-.44-3.67l1.5-2.6a7.34,7.34,0,0,0-2.68-10l-10.78-6.21a7.31,7.31,0,0,0-10,2.68l-.71,1.23a4.41,4.41,0,0,1-5,2l-.08,0a4.43,4.43,0,0,1-3.25-4.27v-5a4,4,0,0,0-4-4h-19a4,4,0,0,0-4,4v5a4.34,4.34,0,0,1-3.19,4.18l-.07,0a4.33,4.33,0,0,1-4.9-2l-2.92-5.05a3.54,3.54,0,0,0-4.84-1.3l-17.32,10a3.54,3.54,0,0,0-1.3,4.84l3.66,6.33a3,3,0,0,1-.51,3.67c-.36.36-.71.72-1.06,1.09a3,3,0,0,1-3.74.58l-5.32-3.07a5,5,0,0,0-6.87,1.84l-8.52,14.75a5,5,0,0,0,1.85,6.87l5.89,3.4a3.05,3.05,0,0,1,1.4,3.42c-.08.33-.17.66-.25,1a3,3,0,0,1-3,2.38h-6.08a6.06,6.06,0,0,0-6.06,6.06v15a6.06,6.06,0,0,0,6.06,6.06h6.76a3.05,3.05,0,0,1,2.92,2.26l.15.51a3.06,3.06,0,0,1-1.38,3.52l-6.11,3.53a6.05,6.05,0,0,0-2.22,8.28l7.48,13a6.07,6.07,0,0,0,8.28,2.22l6.48-3.74a3,3,0,0,1,3.69.52l.12.12a3.05,3.05,0,0,1,.53,3.7l-3.33,5.78a7.15,7.15,0,0,0,2.62,9.78l11.05,6.38a7.16,7.16,0,0,0,9.79-2.62l3.31-5.73a3.06,3.06,0,0,1,3.48-1.39h0a3.07,3.07,0,0,1,2.28,2.94v6.91a7.17,7.17,0,0,0,7.16,7.16h12.77a7.17,7.17,0,0,0,7.16-7.16v-6.32a3.11,3.11,0,0,1,2.41-3l.09,0a3.1,3.1,0,0,1,3.46,1.44l3.31,5.72a7.16,7.16,0,0,0,9.78,2.62l11.06-6.38a7.18,7.18,0,0,0,2.62-9.79l-2.81-4.87A3.09,3.09,0,0,1,288,1286l.33-.31a3.1,3.1,0,0,1,3.68-.46l6.95,4a5,5,0,0,0,6.88-1.84l8.51-14.74a5,5,0,0,0-1.84-6.88l-5.86-3.37a3.11,3.11,0,0,1-1.37-3.65c.1-.31.19-.61.28-.92a3.1,3.1,0,0,1,3-2.24h7A5,5,0,0,0,320.6,1250.53Zm-27-15.89A48.83,48.83,0,1,1,250,1191.05,48.84,48.84,0,0,1,293.59,1234.64Z"/><g class="cls-8"><path class="cls-9" d="M917.77,1223.37v-15.45a4.57,4.57,0,0,0-4.57-4.56H908a2.8,2.8,0,0,1-2.73-2.24l-.3-1.29a2.79,2.79,0,0,1,1.3-3.11L911,1194a4.56,4.56,0,0,0,1.67-6.24l-7.72-13.38a4.57,4.57,0,0,0-6.24-1.67l-4,2.29a2.76,2.76,0,0,1-3.42-.49c-.4-.44-.82-.87-1.24-1.3a2.78,2.78,0,0,1-.4-3.33l1.36-2.36a6.64,6.64,0,0,0-2.43-9.08l-9.77-5.64a6.64,6.64,0,0,0-9.08,2.43l-.65,1.12a4,4,0,0,1-4.53,1.86l-.08,0a4,4,0,0,1-2.94-3.87v-4.52a3.67,3.67,0,0,0-3.67-3.67H840.6a3.67,3.67,0,0,0-3.67,3.67v4.57a3.93,3.93,0,0,1-2.89,3.8H834a3.92,3.92,0,0,1-4.45-1.82l-2.65-4.58a3.21,3.21,0,0,0-4.39-1.18l-15.72,9.07a3.22,3.22,0,0,0-1.17,4.39l3.31,5.75a2.75,2.75,0,0,1-.46,3.32l-1,1a2.76,2.76,0,0,1-3.4.53l-4.83-2.79a4.57,4.57,0,0,0-6.23,1.67l-7.72,13.39a4.55,4.55,0,0,0,1.67,6.23l5.34,3.09a2.75,2.75,0,0,1,1.27,3.09c-.07.3-.15.6-.22.9a2.75,2.75,0,0,1-2.67,2.16h-5.53a5.5,5.5,0,0,0-5.5,5.5v13.58a5.5,5.5,0,0,0,5.5,5.5h6.14a2.78,2.78,0,0,1,2.65,2l.13.46a2.77,2.77,0,0,1-1.25,3.19l-5.55,3.21a5.49,5.49,0,0,0-2,7.51l6.79,11.76a5.5,5.5,0,0,0,7.51,2l5.88-3.39a2.78,2.78,0,0,1,3.35.47l.11.11a2.78,2.78,0,0,1,.48,3.36l-3,5.24a6.49,6.49,0,0,0,2.38,8.87l10,5.79a6.5,6.5,0,0,0,8.88-2.37l3-5.2a2.77,2.77,0,0,1,3.16-1.26h0a2.77,2.77,0,0,1,2.07,2.66v6.27a6.49,6.49,0,0,0,6.5,6.49H854a6.49,6.49,0,0,0,6.5-6.49V1272a2.82,2.82,0,0,1,2.19-2.73l.08,0a2.81,2.81,0,0,1,3.14,1.3l3,5.19a6.49,6.49,0,0,0,8.87,2.38l10-5.79a6.5,6.5,0,0,0,2.38-8.88l-2.55-4.42a2.82,2.82,0,0,1,.56-3.48l.3-.28a2.82,2.82,0,0,1,3.34-.42l6.31,3.64a4.57,4.57,0,0,0,6.24-1.67l7.72-13.38a4.56,4.56,0,0,0-1.67-6.23l-5.31-3.07a2.82,2.82,0,0,1-1.25-3.31c.09-.27.18-.55.26-.83a2.8,2.8,0,0,1,2.68-2h6.36A4.58,4.58,0,0,0,917.77,1223.37ZM893.27,1209a44.3,44.3,0,1,1-39.55-39.55A44.32,44.32,0,0,1,893.27,1209Z"/></g><path class="cls-11" d="M916.47,1220.77v-15.44a4.58,4.58,0,0,0-4.57-4.57h-5.25a2.8,2.8,0,0,1-2.73-2.24l-.3-1.28a2.81,2.81,0,0,1,1.3-3.12l4.73-2.73a4.57,4.57,0,0,0,1.68-6.24l-7.73-13.37a4.56,4.56,0,0,0-6.23-1.68l-4,2.3a2.78,2.78,0,0,1-3.42-.5c-.41-.44-.83-.87-1.25-1.3a2.78,2.78,0,0,1-.4-3.33l1.36-2.36a6.64,6.64,0,0,0-2.43-9.08l-9.77-5.64a6.66,6.66,0,0,0-9.08,2.43l-.65,1.12a4,4,0,0,1-4.53,1.86l-.07,0a4,4,0,0,1-2.95-3.88v-4.52a3.66,3.66,0,0,0-3.67-3.66H839.3a3.66,3.66,0,0,0-3.67,3.66v4.58a3.93,3.93,0,0,1-2.89,3.79l-.06,0a3.94,3.94,0,0,1-4.45-1.83l-2.65-4.58a3.21,3.21,0,0,0-4.39-1.18l-15.72,9.08a3.21,3.21,0,0,0-1.17,4.39l3.32,5.74a2.76,2.76,0,0,1-.47,3.33c-.32.32-.64.65-.95,1a2.77,2.77,0,0,1-3.39.53l-4.83-2.79a4.56,4.56,0,0,0-6.23,1.67L784,1184.3a4.56,4.56,0,0,0,1.67,6.23l5.35,3.09a2.75,2.75,0,0,1,1.27,3.09c-.08.3-.15.6-.23.91a2.76,2.76,0,0,1-2.67,2.15h-5.53a5.5,5.5,0,0,0-5.49,5.5v13.58a5.49,5.49,0,0,0,5.49,5.5H790a2.77,2.77,0,0,1,2.65,2.05c0,.16.09.31.13.46a2.78,2.78,0,0,1-1.25,3.2l-5.54,3.2a5.51,5.51,0,0,0-2,7.51l6.79,11.76a5.5,5.5,0,0,0,7.51,2l5.88-3.39a2.78,2.78,0,0,1,3.35.47l.11.11a2.78,2.78,0,0,1,.48,3.36l-3,5.24a6.5,6.5,0,0,0,2.37,8.88l10,5.79a6.5,6.5,0,0,0,8.88-2.38l3-5.2a2.78,2.78,0,0,1,3.16-1.26h0a2.76,2.76,0,0,1,2.07,2.66v6.27a6.5,6.5,0,0,0,6.5,6.5h11.58a6.5,6.5,0,0,0,6.5-6.5v-5.73a2.83,2.83,0,0,1,2.19-2.73l.08,0a2.83,2.83,0,0,1,3.14,1.3l3,5.19a6.49,6.49,0,0,0,8.87,2.38l10-5.79a6.49,6.49,0,0,0,2.38-8.88l-2.55-4.41a2.83,2.83,0,0,1,.56-3.49c.11-.09.21-.19.3-.28a2.85,2.85,0,0,1,3.35-.42l6.3,3.64a4.55,4.55,0,0,0,6.24-1.67l7.72-13.37a4.57,4.57,0,0,0-1.67-6.24l-5.31-3.06a2.81,2.81,0,0,1-1.24-3.31c.08-.28.17-.56.25-.84a2.81,2.81,0,0,1,2.68-2h6.36A4.57,4.57,0,0,0,916.47,1220.77ZM892,1206.36a44.3,44.3,0,1,1-39.55-39.54A44.32,44.32,0,0,1,892,1206.36Z"/><g class="cls-8"><path class="cls-9" d="M953.32,1625.16v-15.45a4.57,4.57,0,0,0-4.56-4.57H943.5a2.82,2.82,0,0,1-2.73-2.24c-.09-.43-.19-.86-.29-1.28a2.79,2.79,0,0,1,1.3-3.11l4.73-2.74a4.57,4.57,0,0,0,1.67-6.24l-7.72-13.37a4.56,4.56,0,0,0-6.24-1.67l-4,2.29a2.79,2.79,0,0,1-3.42-.49c-.41-.44-.82-.88-1.24-1.31a2.76,2.76,0,0,1-.4-3.33l1.36-2.35a6.65,6.65,0,0,0-2.43-9.08l-9.78-5.65a6.64,6.64,0,0,0-9.07,2.44l-.65,1.11a4,4,0,0,1-4.54,1.86l-.07,0a4,4,0,0,1-3-3.87v-4.53a3.66,3.66,0,0,0-3.66-3.66H876.15a3.66,3.66,0,0,0-3.66,3.66v4.58a3.94,3.94,0,0,1-2.89,3.79l-.06,0a4,4,0,0,1-4.46-1.83l-2.64-4.58a3.22,3.22,0,0,0-4.39-1.18l-15.72,9.08a3.21,3.21,0,0,0-1.17,4.39l3.31,5.74a2.76,2.76,0,0,1-.46,3.33l-1,1a2.76,2.76,0,0,1-3.39.53l-4.83-2.79a4.56,4.56,0,0,0-6.23,1.67l-7.72,13.38a4.56,4.56,0,0,0,1.66,6.23l5.35,3.09a2.76,2.76,0,0,1,1.27,3.1c-.07.3-.15.6-.22.9a2.78,2.78,0,0,1-2.68,2.16h-5.52a5.5,5.5,0,0,0-5.5,5.5v13.58a5.49,5.49,0,0,0,5.5,5.49h6.13a2.78,2.78,0,0,1,2.66,2.06c0,.15.08.3.13.46a2.77,2.77,0,0,1-1.25,3.19l-5.55,3.2a5.5,5.5,0,0,0-2,7.51l6.79,11.76a5.51,5.51,0,0,0,7.51,2l5.88-3.4a2.76,2.76,0,0,1,3.34.47l.11.11a2.78,2.78,0,0,1,.49,3.36l-3,5.24a6.51,6.51,0,0,0,2.38,8.88l10,5.79a6.51,6.51,0,0,0,8.88-2.38l3-5.2a2.77,2.77,0,0,1,3.16-1.26h0a2.78,2.78,0,0,1,2.07,2.67v6.26a6.5,6.5,0,0,0,6.5,6.5h11.58a6.5,6.5,0,0,0,6.5-6.5v-5.73a2.83,2.83,0,0,1,2.18-2.73l.09,0a2.82,2.82,0,0,1,3.14,1.31l3,5.18a6.5,6.5,0,0,0,8.88,2.38l10-5.79a6.49,6.49,0,0,0,2.38-8.87l-2.55-4.42a2.83,2.83,0,0,1,.56-3.49l.3-.28a2.81,2.81,0,0,1,3.34-.41l6.31,3.64a4.57,4.57,0,0,0,6.24-1.67l7.72-13.38A4.57,4.57,0,0,0,946,1639l-5.31-3.06a2.82,2.82,0,0,1-1.25-3.31c.09-.28.18-.56.26-.83a2.81,2.81,0,0,1,2.68-2h6.36A4.56,4.56,0,0,0,953.32,1625.16Zm-24.5-14.41a44.3,44.3,0,1,1-39.54-39.55A44.3,44.3,0,0,1,928.82,1610.75Z"/></g><path class="cls-12" d="M952,1622.56v-15.45a4.57,4.57,0,0,0-4.57-4.56h-5.25a2.81,2.81,0,0,1-2.73-2.24l-.3-1.29a2.79,2.79,0,0,1,1.3-3.11l4.73-2.74a4.55,4.55,0,0,0,1.67-6.23l-7.72-13.38a4.57,4.57,0,0,0-6.24-1.67l-4,2.29a2.76,2.76,0,0,1-3.42-.49c-.4-.44-.82-.88-1.24-1.3a2.78,2.78,0,0,1-.4-3.33l1.36-2.36a6.64,6.64,0,0,0-2.43-9.08l-9.77-5.64a6.64,6.64,0,0,0-9.08,2.43l-.65,1.12a4,4,0,0,1-4.53,1.85l-.08,0a4,4,0,0,1-2.94-3.87V1549a3.67,3.67,0,0,0-3.67-3.67H874.85a3.66,3.66,0,0,0-3.66,3.67v4.57a3.94,3.94,0,0,1-2.89,3.8h-.06a3.92,3.92,0,0,1-4.45-1.82l-2.65-4.59a3.22,3.22,0,0,0-4.39-1.17L841,1558.84a3.22,3.22,0,0,0-1.17,4.39l3.31,5.75a2.75,2.75,0,0,1-.46,3.32l-1,1a2.74,2.74,0,0,1-3.39.53l-4.83-2.79a4.56,4.56,0,0,0-6.23,1.67l-7.72,13.39a4.55,4.55,0,0,0,1.67,6.23l5.34,3.08a2.77,2.77,0,0,1,1.27,3.1c-.07.3-.15.6-.22.9a2.76,2.76,0,0,1-2.67,2.16h-5.53a5.5,5.5,0,0,0-5.5,5.5v13.58a5.5,5.5,0,0,0,5.5,5.5h6.13a2.78,2.78,0,0,1,2.66,2l.13.46a2.77,2.77,0,0,1-1.25,3.19l-5.55,3.2a5.51,5.51,0,0,0-2,7.52l6.79,11.76a5.5,5.5,0,0,0,7.51,2l5.88-3.39a2.78,2.78,0,0,1,3.35.46l.11.11a2.79,2.79,0,0,1,.48,3.37l-3,5.23A6.5,6.5,0,0,0,843,1671l10,5.79a6.5,6.5,0,0,0,8.88-2.38l3-5.2a2.78,2.78,0,0,1,3.16-1.26h0a2.79,2.79,0,0,1,2.07,2.67v6.27a6.5,6.5,0,0,0,6.5,6.49h11.58a6.5,6.5,0,0,0,6.5-6.49v-5.73a2.82,2.82,0,0,1,2.19-2.73l.08,0a2.81,2.81,0,0,1,3.14,1.3l3,5.19a6.5,6.5,0,0,0,8.87,2.38l10-5.8a6.49,6.49,0,0,0,2.38-8.87l-2.55-4.42a2.82,2.82,0,0,1,.56-3.48l.3-.28a2.8,2.8,0,0,1,3.34-.42l6.31,3.64a4.57,4.57,0,0,0,6.24-1.67l7.72-13.38a4.56,4.56,0,0,0-1.67-6.23l-5.31-3.07a2.82,2.82,0,0,1-1.25-3.31c.09-.28.18-.55.26-.83a2.81,2.81,0,0,1,2.68-2h6.36A4.57,4.57,0,0,0,952,1622.56Zm-24.5-14.41A44.3,44.3,0,1,1,888,1568.6,44.31,44.31,0,0,1,927.53,1608.15Z"/><g class="cls-8"><path class="cls-9" d="M741.68,1141.67l-2.8-8.93a2.78,2.78,0,0,0-3.47-1.82l-3,1a1.71,1.71,0,0,1-2-.8c-.13-.24-.26-.47-.4-.69a1.7,1.7,0,0,1,.18-2l2.25-2.44a2.77,2.77,0,0,0-.17-3.91l-6.89-6.34a2.78,2.78,0,0,0-3.92.17l-1.88,2a1.68,1.68,0,0,1-2.07.34l-1-.53a1.68,1.68,0,0,1-.84-1.85l.36-1.62a4,4,0,0,0-3-4.81l-6.68-1.49a4,4,0,0,0-4.81,3.06l-.17.76a2.43,2.43,0,0,1-2.29,1.9h0a2.42,2.42,0,0,1-2.4-1.71l-.83-2.61a2.22,2.22,0,0,0-2.78-1.46L683,1111a2.22,2.22,0,0,0-1.45,2.79l.83,2.65a2.4,2.4,0,0,1-1,2.72l0,0a2.41,2.41,0,0,1-2.91-.25l-2.36-2.17a2,2,0,0,0-2.75.11L665.9,1125a1.94,1.94,0,0,0,.12,2.75l3,2.72a1.69,1.69,0,0,1,.34,2c-.13.25-.26.49-.38.75a1.67,1.67,0,0,1-1.86.92l-3.3-.74a2.78,2.78,0,0,0-3.31,2.1l-2,9.14a2.78,2.78,0,0,0,2.1,3.31l3.65.81a1.68,1.68,0,0,1,1.3,1.56c0,.19,0,.38,0,.56a1.7,1.7,0,0,1-1.16,1.74l-3.2,1a3.34,3.34,0,0,0-2.18,4.18l2.47,7.86a3.33,3.33,0,0,0,4.17,2.18l3.55-1.11a1.68,1.68,0,0,1,1.91.7l.16.24a1.7,1.7,0,0,1-.14,2.08l-2.63,2.86a3.33,3.33,0,0,0,.2,4.71l6.06,5.57a3.33,3.33,0,0,0,4.71-.2l2.79-3a1.67,1.67,0,0,1,2-.33l.08,0a1.68,1.68,0,0,1,.89,1.86l-.8,3.58a3.94,3.94,0,0,0,3,4.7l6.85,1.53a4,4,0,0,0,4.71-3l.79-3.55a1.68,1.68,0,0,1,1.6-1.3h0a1.67,1.67,0,0,1,1.68,1.16l1.13,3.63a4,4,0,0,0,4.94,2.58l6.7-2.11a3.92,3.92,0,0,0,2.58-4.93l-1-3.32a1.71,1.71,0,0,1,.77-2l.05,0a1.7,1.7,0,0,1,2,.18l2.68,2.46a3.93,3.93,0,0,0,5.56-.24l4.76-5.17a3.94,3.94,0,0,0-.24-5.56l-2.28-2.1a1.71,1.71,0,0,1-.3-2.12l.12-.21a1.72,1.72,0,0,1,1.86-.85l4.31,1a2.76,2.76,0,0,0,3.3-2.1l2-9.14a2.77,2.77,0,0,0-2.1-3.3l-3.63-.81a1.72,1.72,0,0,1-1.32-1.69V1148a1.69,1.69,0,0,1,1.18-1.66l3.68-1.16A2.76,2.76,0,0,0,741.68,1141.67Zm-16.79-3.89a26.86,26.86,0,1,1-30.06-15.7A26.87,26.87,0,0,1,724.89,1137.78Z"/></g><path class="cls-12" d="M740.38,1139.08l-2.8-8.94a2.76,2.76,0,0,0-3.47-1.81l-3,1a1.71,1.71,0,0,1-2-.8c-.13-.23-.26-.46-.4-.69a1.72,1.72,0,0,1,.18-2l2.25-2.44a2.77,2.77,0,0,0-.17-3.91l-6.89-6.34a2.77,2.77,0,0,0-3.91.17l-1.89,2a1.66,1.66,0,0,1-2.06.34l-1-.53a1.68,1.68,0,0,1-.84-1.85l.36-1.61a4,4,0,0,0-3-4.81l-6.68-1.49a4,4,0,0,0-4.81,3l-.17.76a2.43,2.43,0,0,1-2.29,1.9h0a2.43,2.43,0,0,1-2.41-1.7l-.82-2.62a2.22,2.22,0,0,0-2.79-1.45l-10,3.13a2.21,2.21,0,0,0-1.45,2.78l.83,2.65a2.38,2.38,0,0,1-1,2.72l0,0a2.38,2.38,0,0,1-2.91-.25l-2.36-2.17a1.94,1.94,0,0,0-2.75.12l-7.45,8.1a2,2,0,0,0,.12,2.75l3,2.72a1.67,1.67,0,0,1,.34,2c-.13.25-.26.5-.38.75a1.67,1.67,0,0,1-1.86.92l-3.3-.74a2.77,2.77,0,0,0-3.3,2.1l-2,9.15a2.77,2.77,0,0,0,2.1,3.3l3.66.81a1.68,1.68,0,0,1,1.29,1.56c0,.19,0,.38,0,.57a1.67,1.67,0,0,1-1.16,1.73l-3.2,1a3.34,3.34,0,0,0-2.18,4.18l2.47,7.86a3.33,3.33,0,0,0,4.18,2.18l3.54-1.11a1.68,1.68,0,0,1,1.91.7l.16.25a1.67,1.67,0,0,1-.14,2.07l-2.63,2.86a3.33,3.33,0,0,0,.2,4.71l6.06,5.57a3.33,3.33,0,0,0,4.71-.2l2.79-3a1.67,1.67,0,0,1,2-.34l.08,0a1.68,1.68,0,0,1,.89,1.86l-.8,3.58a3.94,3.94,0,0,0,3,4.7l6.85,1.53a3.94,3.94,0,0,0,4.71-3l.79-3.56a1.69,1.69,0,0,1,1.6-1.3h0a1.69,1.69,0,0,1,1.68,1.16l1.14,3.63a3.93,3.93,0,0,0,4.93,2.58l6.71-2.1a4,4,0,0,0,2.58-4.94l-1-3.32a1.7,1.7,0,0,1,.77-2l0,0a1.71,1.71,0,0,1,2.05.18l2.68,2.46a4,4,0,0,0,5.57-.23l4.75-5.17a4,4,0,0,0-.24-5.57l-2.28-2.09a1.71,1.71,0,0,1-.3-2.12l.12-.22a1.72,1.72,0,0,1,1.86-.85l4.31,1a2.75,2.75,0,0,0,3.3-2.09l2-9.15a2.75,2.75,0,0,0-2.1-3.3l-3.62-.81a1.72,1.72,0,0,1-1.33-1.69v-.53a1.71,1.71,0,0,1,1.18-1.66l3.68-1.15A2.77,2.77,0,0,0,740.38,1139.08Zm-16.79-3.89a26.86,26.86,0,1,1-30.05-15.71A26.87,26.87,0,0,1,723.59,1135.19Z"/><g class="cls-8"><path class="cls-9" d="M824.75,1096.76l-1.53-4.87a1.5,1.5,0,0,0-1.89-1l-1.65.52a.94.94,0,0,1-1.09-.44c-.07-.12-.14-.25-.22-.37a.93.93,0,0,1,.1-1.11l1.23-1.33a1.51,1.51,0,0,0-.09-2.13l-3.76-3.46a1.51,1.51,0,0,0-2.13.09l-1,1.12a.91.91,0,0,1-1.12.18l-.52-.29a.91.91,0,0,1-.46-1l.2-.87a2.21,2.21,0,0,0-1.67-2.63l-3.64-.81a2.2,2.2,0,0,0-2.62,1.67l-.09.41a1.33,1.33,0,0,1-1.25,1h0a1.32,1.32,0,0,1-1.31-.93l-.45-1.43a1.21,1.21,0,0,0-1.52-.79l-5.44,1.71a1.21,1.21,0,0,0-.79,1.51l.45,1.45a1.3,1.3,0,0,1-.53,1.48h0a1.3,1.3,0,0,1-1.58-.14l-1.29-1.18a1.06,1.06,0,0,0-1.5.06l-4.06,4.42a1.06,1.06,0,0,0,.06,1.5l1.62,1.48a.92.92,0,0,1,.18,1.1c-.07.13-.14.27-.2.4a.9.9,0,0,1-1,.5l-1.8-.4a1.51,1.51,0,0,0-1.8,1.15l-1.11,5a1.51,1.51,0,0,0,1.14,1.8l2,.44a.91.91,0,0,1,.7.85c0,.1,0,.21,0,.31a.9.9,0,0,1-.63.94l-1.74.55a1.82,1.82,0,0,0-1.19,2.28l1.34,4.28a1.82,1.82,0,0,0,2.28,1.19l1.93-.61a.92.92,0,0,1,1,.38l.09.14a.91.91,0,0,1-.08,1.13l-1.43,1.56a1.81,1.81,0,0,0,.11,2.56l3.3,3a1.82,1.82,0,0,0,2.57-.11l1.52-1.65a.9.9,0,0,1,1.1-.18l0,0a.92.92,0,0,1,.49,1l-.44,2a2.14,2.14,0,0,0,1.63,2.56l3.73.84a2.15,2.15,0,0,0,2.57-1.63l.43-1.94a.93.93,0,0,1,.87-.71h0a.92.92,0,0,1,.92.64l.62,2a2.15,2.15,0,0,0,2.69,1.41l3.65-1.15a2.15,2.15,0,0,0,1.41-2.69l-.57-1.8a.94.94,0,0,1,.42-1.08h0a.9.9,0,0,1,1.11.1l1.46,1.34a2.16,2.16,0,0,0,3-.13l2.58-2.82a2.14,2.14,0,0,0-.12-3l-1.25-1.14a.94.94,0,0,1-.16-1.16l.06-.12a.94.94,0,0,1,1-.46l2.34.53a1.52,1.52,0,0,0,1.81-1.15l1.11-5a1.51,1.51,0,0,0-1.15-1.8l-2-.44a.92.92,0,0,1-.72-.92,2.81,2.81,0,0,0,0-.29.92.92,0,0,1,.65-.9l2-.63A1.51,1.51,0,0,0,824.75,1096.76Zm-9.15-2.12a14.63,14.63,0,1,1-16.37-8.56A14.63,14.63,0,0,1,815.6,1094.64Z"/></g><path class="cls-10" d="M824,1095.34l-1.52-4.87a1.52,1.52,0,0,0-1.9-1L819,1090a.91.91,0,0,1-1.08-.43l-.22-.38a.92.92,0,0,1,.1-1.11l1.22-1.33a1.51,1.51,0,0,0-.09-2.13l-3.76-3.45a1.5,1.5,0,0,0-2.13.09l-1,1.11a.92.92,0,0,1-1.13.19l-.52-.29a.92.92,0,0,1-.46-1l.2-.88a2.2,2.2,0,0,0-1.67-2.62l-3.63-.81a2.2,2.2,0,0,0-2.63,1.66l-.09.42a1.31,1.31,0,0,1-1.25,1h0a1.32,1.32,0,0,1-1.31-.93l-.45-1.42a1.21,1.21,0,0,0-1.52-.8l-5.43,1.71a1.21,1.21,0,0,0-.8,1.52l.46,1.44a1.3,1.3,0,0,1-.54,1.48h0a1.29,1.29,0,0,1-1.58-.13l-1.29-1.18a1.06,1.06,0,0,0-1.5.06l-4.06,4.41a1.07,1.07,0,0,0,.07,1.5l1.61,1.49a.9.9,0,0,1,.18,1.09l-.2.41a.92.92,0,0,1-1,.5l-1.79-.4a1.5,1.5,0,0,0-1.8,1.14l-1.12,5a1.5,1.5,0,0,0,1.15,1.8l2,.45a.91.91,0,0,1,.7.85c0,.1,0,.2,0,.3a.91.91,0,0,1-.63,1l-1.74.55a1.81,1.81,0,0,0-1.19,2.27l1.35,4.28a1.81,1.81,0,0,0,2.27,1.19l1.94-.6a.9.9,0,0,1,1,.38l.08.13a.92.92,0,0,1-.07,1.13l-1.44,1.56a1.82,1.82,0,0,0,.11,2.57l3.31,3a1.81,1.81,0,0,0,2.56-.11l1.52-1.65a.92.92,0,0,1,1.1-.18l0,0a.93.93,0,0,1,.48,1l-.44,1.95a2.16,2.16,0,0,0,1.63,2.56l3.74.83a2.15,2.15,0,0,0,2.56-1.62l.43-1.94a.91.91,0,0,1,.87-.71h0a.91.91,0,0,1,.91.63l.62,2a2.14,2.14,0,0,0,2.69,1.4l3.66-1.14a2.14,2.14,0,0,0,1.4-2.69l-.57-1.81a.92.92,0,0,1,.42-1.07l0,0a.93.93,0,0,1,1.12.1l1.45,1.34a2.15,2.15,0,0,0,3-.13l2.59-2.82a2.15,2.15,0,0,0-.13-3l-1.24-1.14a.91.91,0,0,1-.17-1.15.75.75,0,0,1,.07-.12.93.93,0,0,1,1-.46l2.35.52a1.51,1.51,0,0,0,1.8-1.14l1.11-5a1.5,1.5,0,0,0-1.14-1.8l-2-.44a.93.93,0,0,1-.72-.92v-.29a.92.92,0,0,1,.64-.91l2-.63A1.5,1.5,0,0,0,824,1095.34Zm-9.14-2.12a14.64,14.64,0,1,1-16.38-8.55A14.64,14.64,0,0,1,814.9,1093.22Z"/><path class="cls-6" d="M453.36,1697l234.87-21A225.85,225.85,0,0,0,885,1513.86h0A307.62,307.62,0,0,0,806.37,1210h0a198.4,198.4,0,0,0-234.62-33.55L315.6,1315.76A198.39,198.39,0,0,0,212,1485.41h0a198.41,198.41,0,0,0,129.77,190.81l25.29,9.31A198.33,198.33,0,0,0,453.36,1697Z"/><rect class="cls-13" x="513.05" y="1599.96" width="94.39" height="94.39"/><path class="cls-14" d="M658.85,1708.23H461a15.75,15.75,0,0,1,15.75-15.75H643.1a15.75,15.75,0,0,1,15.75,15.75Z"/><rect class="cls-15" x="513.05" y="1634.25" width="94.39" height="19.88"/><rect class="cls-14" x="251.71" y="1210.1" width="612.23" height="428.44" rx="7.76"/><polygon class="cls-16" points="848.55 1573.73 267.22 1573.73 267.22 1231.63 848.55 1231.61 848.55 1573.73"/><g class="cls-8"><rect class="cls-9" x="312.27" y="1257.59" width="488.43" height="292.65" rx="4.75"/><path class="cls-9" d="M795.12,1256.45H317.85a5.58,5.58,0,0,0-5.58,5.58v24.17H800.7V1262A5.58,5.58,0,0,0,795.12,1256.45Z"/><path class="cls-9" d="M345.53,1271.33a6.34,6.34,0,1,1-6.33-6.34A6.33,6.33,0,0,1,345.53,1271.33Z"/><path class="cls-9" d="M365.57,1271.33a6.34,6.34,0,1,1-6.34-6.34A6.34,6.34,0,0,1,365.57,1271.33Z"/><path class="cls-9" d="M385.61,1271.33a6.34,6.34,0,1,1-6.34-6.34A6.34,6.34,0,0,1,385.61,1271.33Z"/><rect class="cls-9" x="591.23" y="1308.15" width="182.97" height="224.96"/><path class="cls-9" d="M757.18,1336H606.27a4.7,4.7,0,0,1-4.7-4.7h0a4.7,4.7,0,0,1,4.7-4.7H757.18a4.7,4.7,0,0,1,4.69,4.7h0A4.7,4.7,0,0,1,757.18,1336Z"/><path class="cls-9" d="M562.17,1337.75H440.69a5.58,5.58,0,0,1-5.59-5.58h0a5.59,5.59,0,0,1,5.59-5.59H562.17a5.58,5.58,0,0,1,5.58,5.59h0A5.58,5.58,0,0,1,562.17,1337.75Z"/><path class="cls-9" d="M485.72,1360.72h-45a5.58,5.58,0,0,1-5.59-5.58h0a5.59,5.59,0,0,1,5.59-5.59h45a5.59,5.59,0,0,1,5.59,5.59h0A5.58,5.58,0,0,1,485.72,1360.72Z"/><path class="cls-9" d="M642.91,1355.14H606.27a4.7,4.7,0,0,1-4.7-4.7h0a4.7,4.7,0,0,1,4.7-4.7h36.64a4.71,4.71,0,0,1,4.7,4.7h0A4.71,4.71,0,0,1,642.91,1355.14Z"/><path class="cls-9" d="M757.18,1355.14H663.4a4.7,4.7,0,0,1-4.7-4.7h0a4.7,4.7,0,0,1,4.7-4.7h93.78a4.7,4.7,0,0,1,4.69,4.7h0A4.7,4.7,0,0,1,757.18,1355.14Z"/><line class="cls-17" x1="604.19" y1="1472.02" x2="761.87" y2="1472.02"/><line class="cls-17" x1="604.19" y1="1487.34" x2="761.87" y2="1487.34"/><line class="cls-17" x1="604.19" y1="1502.67" x2="761.87" y2="1502.67"/><line class="cls-17" x1="604.19" y1="1518" x2="761.87" y2="1518"/><circle class="cls-9" cx="376.69" cy="1368.29" r="42.2"/><circle class="cls-9" cx="376.69" cy="1351.96" r="11.92"/><path class="cls-9" d="M351.1,1391.23a25.6,25.6,0,1,1,51.19,0"/><line class="cls-17" x1="332.86" y1="1425.95" x2="478.21" y2="1425.95"/><line class="cls-17" x1="332.86" y1="1440.08" x2="478.21" y2="1440.08"/><line class="cls-17" x1="332.86" y1="1454.2" x2="478.21" y2="1454.2"/><line class="cls-17" x1="332.86" y1="1468.33" x2="478.21" y2="1468.33"/><line class="cls-17" x1="332.86" y1="1482.46" x2="478.21" y2="1482.46"/><line class="cls-17" x1="332.86" y1="1496.59" x2="478.21" y2="1496.59"/><line class="cls-17" x1="332.86" y1="1510.71" x2="478.21" y2="1510.71"/><line class="cls-17" x1="332.86" y1="1524.84" x2="478.21" y2="1524.84"/><line class="cls-18" x1="499.5" y1="1425.95" x2="567.75" y2="1425.95"/><line class="cls-18" x1="499.5" y1="1440.08" x2="567.75" y2="1440.08"/><line class="cls-18" x1="499.5" y1="1454.2" x2="567.75" y2="1454.2"/><line class="cls-18" x1="499.5" y1="1468.33" x2="567.75" y2="1468.33"/><line class="cls-18" x1="499.5" y1="1482.46" x2="567.75" y2="1482.46"/><line class="cls-18" x1="499.5" y1="1496.59" x2="567.75" y2="1496.59"/><line class="cls-18" x1="499.5" y1="1510.71" x2="567.75" y2="1510.71"/><line class="cls-18" x1="499.5" y1="1524.84" x2="567.75" y2="1524.84"/><rect class="cls-9" x="435.1" y="1378.08" width="135.15" height="36.41"/><rect class="cls-9" x="609.65" y="1378.43" width="63.93" height="78.26"/><rect class="cls-9" x="680.77" y="1378.43" width="36.95" height="78.26"/><rect class="cls-9" x="724.92" y="1378.43" width="36.95" height="78.26"/></g><rect class="cls-19" x="310.06" y="1255.38" width="488.43" height="292.65" rx="4.75"/><path class="cls-10" d="M792.91,1254.24H315.64a5.58,5.58,0,0,0-5.58,5.58V1284H798.49v-24.18A5.58,5.58,0,0,0,792.91,1254.24Z"/><path class="cls-20" d="M343.33,1269.12a6.34,6.34,0,1,1-6.34-6.34A6.34,6.34,0,0,1,343.33,1269.12Z"/><path class="cls-14" d="M363.36,1269.12a6.34,6.34,0,1,1-6.33-6.34A6.33,6.33,0,0,1,363.36,1269.12Z"/><path class="cls-11" d="M383.4,1269.12a6.34,6.34,0,1,1-6.34-6.34A6.34,6.34,0,0,1,383.4,1269.12Z"/><rect class="cls-16" x="589.02" y="1305.94" width="182.97" height="224.96"/><path class="cls-10" d="M755,1333.77H604.06a4.69,4.69,0,0,1-4.7-4.7h0a4.69,4.69,0,0,1,4.7-4.69H755a4.69,4.69,0,0,1,4.69,4.69h0A4.69,4.69,0,0,1,755,1333.77Z"/><path class="cls-10" d="M560,1335.54H438.48a5.58,5.58,0,0,1-5.58-5.58h0a5.58,5.58,0,0,1,5.58-5.58H560a5.58,5.58,0,0,1,5.59,5.58h0A5.58,5.58,0,0,1,560,1335.54Z"/><path class="cls-10" d="M483.52,1358.51h-45a5.58,5.58,0,0,1-5.58-5.58h0a5.58,5.58,0,0,1,5.58-5.58h45a5.58,5.58,0,0,1,5.58,5.58h0A5.58,5.58,0,0,1,483.52,1358.51Z"/><path class="cls-10" d="M640.7,1352.93H604.06a4.69,4.69,0,0,1-4.7-4.7h0a4.69,4.69,0,0,1,4.7-4.69H640.7a4.69,4.69,0,0,1,4.7,4.69h0A4.69,4.69,0,0,1,640.7,1352.93Z"/><path class="cls-19" d="M755,1352.93H661.19a4.7,4.7,0,0,1-4.7-4.7h0a4.7,4.7,0,0,1,4.7-4.69H755a4.69,4.69,0,0,1,4.69,4.69h0A4.69,4.69,0,0,1,755,1352.93Z"/><line class="cls-21" x1="601.98" y1="1469.81" x2="759.66" y2="1469.81"/><line class="cls-21" x1="601.98" y1="1485.13" x2="759.66" y2="1485.13"/><line class="cls-21" x1="601.98" y1="1500.46" x2="759.66" y2="1500.46"/><line class="cls-21" x1="601.98" y1="1515.79" x2="759.66" y2="1515.79"/><circle class="cls-22" cx="374.48" cy="1366.08" r="42.2"/><circle class="cls-10" cx="374.48" cy="1349.75" r="11.92"/><path class="cls-10" d="M348.89,1389a25.6,25.6,0,0,1,51.19,0"/><line class="cls-23" x1="330.65" y1="1423.74" x2="476" y2="1423.74"/><line class="cls-23" x1="330.65" y1="1437.87" x2="476" y2="1437.87"/><line class="cls-23" x1="330.65" y1="1452" x2="476" y2="1452"/><line class="cls-23" x1="330.65" y1="1466.12" x2="476" y2="1466.12"/><line class="cls-23" x1="330.65" y1="1480.25" x2="476" y2="1480.25"/><line class="cls-23" x1="330.65" y1="1494.38" x2="476" y2="1494.38"/><line class="cls-23" x1="330.65" y1="1508.51" x2="476" y2="1508.51"/><line class="cls-23" x1="330.65" y1="1522.63" x2="476" y2="1522.63"/><line class="cls-24" x1="497.29" y1="1423.74" x2="565.55" y2="1423.74"/><line class="cls-24" x1="497.29" y1="1437.87" x2="565.55" y2="1437.87"/><line class="cls-24" x1="497.29" y1="1452" x2="565.55" y2="1452"/><line class="cls-24" x1="497.29" y1="1466.12" x2="565.55" y2="1466.12"/><line class="cls-24" x1="497.29" y1="1480.25" x2="565.55" y2="1480.25"/><line class="cls-24" x1="497.29" y1="1494.38" x2="565.55" y2="1494.38"/><line class="cls-24" x1="497.29" y1="1508.51" x2="565.55" y2="1508.51"/><line class="cls-24" x1="497.29" y1="1522.63" x2="565.55" y2="1522.63"/><rect class="cls-16" x="432.9" y="1375.87" width="135.15" height="36.41"/><rect class="cls-22" x="607.44" y="1376.22" width="63.93" height="78.26"/><rect class="cls-22" x="678.57" y="1376.22" width="36.95" height="78.26"/><rect class="cls-22" x="722.71" y="1376.22" width="36.95" height="78.26"/><path class="cls-11" d="M255.15,1345.51,864.51,1479.7a8.84,8.84,0,0,1,6.94,8.63v48.81a8.85,8.85,0,0,1-10.66,8.66l-608.74-128a7.37,7.37,0,0,1-5.86-7.22v-57.92A7.38,7.38,0,0,1,255.15,1345.51Z"/><g class="cls-25"><line class="cls-26" x1="242.87" y1="1322.5" x2="314.52" y2="1458.54"/><line class="cls-26" x1="294.19" y1="1332.49" x2="365.84" y2="1468.53"/><line class="cls-26" x1="345.51" y1="1342.49" x2="417.16" y2="1478.53"/><line class="cls-26" x1="396.83" y1="1352.48" x2="468.48" y2="1488.52"/><line class="cls-26" x1="448.15" y1="1362.48" x2="519.8" y2="1498.52"/><line class="cls-26" x1="499.47" y1="1372.47" x2="571.12" y2="1508.51"/><line class="cls-26" x1="550.79" y1="1382.47" x2="622.44" y2="1518.51"/><line class="cls-26" x1="602.11" y1="1392.46" x2="673.76" y2="1528.5"/><line class="cls-26" x1="653.43" y1="1402.46" x2="725.08" y2="1538.5"/><line class="cls-26" x1="704.75" y1="1412.45" x2="776.4" y2="1548.49"/><line class="cls-26" x1="756.07" y1="1422.45" x2="827.72" y2="1558.49"/><line class="cls-26" x1="807.39" y1="1432.44" x2="879.04" y2="1568.48"/></g><polygon class="cls-27" points="739.85 1520.38 871.45 1488.33 871.45 1481.23 718.83 1447.62 525.58 1475.34 739.85 1520.38"/><path class="cls-11" d="M857.66,1417.05,252,1550.42a6.06,6.06,0,0,0-4.76,5.92v54.46a6.06,6.06,0,0,0,7.31,5.93l608.22-127.84a12.24,12.24,0,0,0,9.73-12V1429A12.24,12.24,0,0,0,857.66,1417.05Z"/><g class="cls-28"><line class="cls-26" x1="877.74" y1="1394.61" x2="806.09" y2="1530.65"/><line class="cls-26" x1="826.42" y1="1404.43" x2="754.77" y2="1540.47"/><line class="cls-26" x1="775.1" y1="1414.26" x2="703.45" y2="1550.3"/><line class="cls-26" x1="723.78" y1="1424.08" x2="652.13" y2="1560.12"/><line class="cls-26" x1="672.46" y1="1433.91" x2="600.81" y2="1569.95"/><line class="cls-26" x1="621.14" y1="1443.73" x2="549.49" y2="1579.77"/><line class="cls-26" x1="569.82" y1="1453.56" x2="498.17" y2="1589.59"/><line class="cls-26" x1="518.5" y1="1463.38" x2="446.85" y2="1599.42"/><line class="cls-26" x1="467.18" y1="1473.2" x2="395.53" y2="1609.24"/><line class="cls-26" x1="415.86" y1="1483.03" x2="344.21" y2="1619.07"/><line class="cls-26" x1="364.54" y1="1492.85" x2="292.89" y2="1628.89"/><line class="cls-26" x1="313.22" y1="1502.68" x2="241.57" y2="1638.72"/></g><text class="cls-29" transform="translate(371.74 801.65)">UNDER<tspan class="cls-30" x="-227.9" y="119.66">C</tspan><tspan x="-156.91" y="119.66">ON</tspan><tspan class="cls-31" x="7.83" y="119.66">S</tspan><tspan class="cls-32" x="69.55" y="119.66">TRU</tspan><tspan class="cls-33" x="281.15" y="119.66">C</tspan><tspan x="352.85" y="119.66">TION</tspan></text><text class="cls-34" transform="translate(411.97 1290.22)"><tspan class="cls-35">C</tspan><tspan x="6.7" y="0">ont</tspan><tspan class="cls-36" x="23.17" y="0">a</tspan><tspan class="cls-37" x="28.87" y="0">c</tspan><tspan class="cls-38" x="34.35" y="0">t us</tspan></text></g></g></svg>